<?xml version="1.0" encoding="utf-8"?>
<!-- Generator: Adobe Illustrator 25.4.1, SVG Export Plug-In . SVG Version: 6.00 Build 0)  -->
<svg version="1.1" id="Layer_1" xmlns="http://www.w3.org/2000/svg" xmlns:xlink="http://www.w3.org/1999/xlink" x="0px" y="0px"
	 viewBox="0 0 311.8 311.8" style="enable-background:new 0 0 311.8 311.8;" xml:space="preserve">
<style type="text/css">
	.st0{fill:#1D1D1B;}
</style>
<rect x="140.3" y="118" class="st0" width="31.2" height="9"/>
<g>
	<path class="st0" d="M238.4,6.7h-71.5h-22H73.4V177H95c6.8,27.3,31.5,47.5,60.9,47.5c29.4,0,54.1-20.3,60.9-47.5h21.7V6.7z
		 M209.7,95.9c0,29.6-24.1,53.8-53.8,53.8s-53.8-24.1-53.8-53.8v-44c8.4-2.8,16.3-6.6,23.4-10.8c2.8,0.5,18.2,4,18.2,14.4l0,3.8
		c0,11.6,0.1,24.7-3.7,30.6l-2.5,3.8l18.3,11.5l18.3-11.5l-2.5-3.8c-3.8-5.9-3.7-19-3.7-30.6l0-3.8c0-10.3,15.4-13.8,18.2-14.4
		c7.1,4.2,15,8,23.4,10.8V95.9z M209.7,161.8c0,2-0.1,3.9-0.3,5.8c-5.2-1-9.9-3.4-13.2-7.1c-4.2-4.7-5.4-9.5-5.7-12.2
		c7.8-5.2,14.4-12,19.3-20.1V161.8z M102.1,161.8v-33.6c4.8,8,11.4,14.9,19.3,20.1c-0.3,2.7-1.5,7.6-5.7,12.2
		c-3.4,3.7-8.1,6.2-13.2,7.1C102.2,165.7,102.1,163.8,102.1,161.8 M159.1,55.5l0,3.7c0,11.4-0.1,23.2,3.1,31.4l-6.3,4l-6.3-4
		c3.2-8.3,3.1-20,3.1-31.4l0-3.7c0-11.7-9.6-17.8-17.2-20.8c9.2-6.4,16.3-12.7,20.4-16.6c4.1,3.9,11.2,10.2,20.4,16.6
		C168.7,37.7,159.1,43.7,159.1,55.5 M82.4,168.1V15.6h62.9c-9.9,8.7-28.1,22.6-48.8,28.6l-3.2,0.9v116.7c0,2.1,0.1,4.2,0.3,6.2H82.4
		z M155.9,215.6c-24.6,0-45.4-16.6-51.7-39.2c7.1-1.3,13.5-4.8,18.2-9.9c4.3-4.7,6.4-9.7,7.3-13.7c8,3.7,16.9,5.8,26.3,5.8
		c9.4,0,18.3-2.1,26.3-5.8c1,3.9,3,8.9,7.3,13.7c4.7,5.1,11.1,8.6,18.2,9.9C201.3,199,180.5,215.6,155.9,215.6 M229.5,168.1h-11.1
		c0.2-2.1,0.3-4.1,0.3-6.2V45.2l-3.2-0.9c-20.7-6-38.9-19.9-48.8-28.6h62.9V168.1z"/>
	<path class="st0" d="M111,69.6h4.7c0.7,3.7,3.9,6.6,7.8,6.6s7.2-2.8,7.8-6.6h4.7v-9H111V69.6z"/>
	<path class="st0" d="M175.8,69.6h4.7c0.7,3.7,3.9,6.6,7.8,6.6c3.9,0,7.2-2.8,7.8-6.6h4.7v-9h-25.1V69.6z"/>
	<polygon class="st0" points="160.3,179.5 155.9,168.4 151.5,179.5 139.6,180.3 148.8,187.9 145.8,199.4 155.9,193 166,199.4 
		163,187.9 172.2,180.3 	"/>
	<path class="st0" d="M45.5,292c0,7.4-4.7,13.2-17.1,13.2H6.1v-45.3h19.6c13.1,0,17.2,5.2,17.2,12.4c0,4.7-3.3,7.9-4.3,8.7
		C43.1,283.2,45.5,287.1,45.5,292 M32.6,273.7c0-3.1-2-4.5-6.2-4.5H17v9.5h9.4C31.1,278.7,32.6,277.3,32.6,273.7 M27.1,287H17v8.8
		h10.1c4.4,0,6.6-1.5,6.6-4.4C33.7,288,31.5,287,27.1,287"/>
	<polygon class="st0" points="87.9,259.9 87.9,270 64.1,270 64.1,277.8 83.9,277.8 83.9,287.2 64.1,287.2 64.1,295 87.9,295 
		87.9,305.1 53.2,305.1 53.2,259.9 	"/>
	<polygon class="st0" points="107.6,295 131.4,295 131.4,305.1 96.7,305.1 96.7,259.9 107.6,259.9 	"/>
	<path class="st0" d="M179.5,269l-9.5,4.8c-2.3-2.9-5.8-4.5-11-4.5c-7.9,0-13.4,5.5-13.4,13c0,7.2,5.7,13.4,13.6,13.4
		c4.9,0,8.7-1.5,11.1-3.8v-4.4h-13.8v-8.4H180V296c-0.3,0.7-7.5,10-20.7,10c-15,0-24.6-11.2-24.6-23.4c0-12.6,10.3-23.4,24.6-23.4
		C167.9,259.1,175,263,179.5,269"/>
	<rect x="188.2" y="259.9" class="st0" width="10.9" height="45.3"/>
	<path class="st0" d="M252.7,294.2c-4.1,6.8-11.6,11.8-21.2,11.8c-14.2,0-24.5-10.4-24.5-23.8c0-12.6,10.3-23.1,24.5-23.1
		c9.7,0,17.2,4.5,21.3,11.3l-9.3,5.4c-2.1-4.1-6.3-6.9-12-6.9c-7.9,0-13.4,5.8-13.4,13.2c0,7.2,5.5,13.5,13.4,13.5
		c5.6,0,9.7-2.9,11.9-6.9L252.7,294.2z"/>
	<path class="st0" d="M291.1,298.1h-21.8l-3,7.1h-11.6l19.4-45.3h12.2l19.4,45.3H294L291.1,298.1z M287.3,289.2l-7.1-16.9l-7.2,16.9
		H287.3z"/>
</g>
</svg>
