<svg width="80" height="10" viewBox="0 0 80 10" fill="none" xmlns="http://www.w3.org/2000/svg">
<path fill-rule="evenodd" clip-rule="evenodd" d="M29.9279 0.538234C30.2826 0.538234 30.5151 0.574816 31.0898 0.574816L36.6428 7.05721V3.21684C36.6428 2.78861 36.6306 2.25046 36.606 1.84685C36.5571 1.1863 36.447 0.84389 36.1535 0.538234H36.2515C36.4838 0.538234 36.7284 0.599262 36.9729 0.599262C37.2175 0.599262 37.4621 0.538234 37.6946 0.538234H37.7924C37.4867 0.856199 37.3278 1.14972 37.3154 1.84685C37.3031 2.25046 37.291 2.78861 37.291 3.21684V7.3509C37.291 7.93794 37.3031 8.80636 37.3399 9.44229L31.0165 2.05472V6.48248C31.0165 6.91054 31.0288 7.44868 31.0409 7.85229C31.0532 8.54942 31.2122 8.84294 31.5181 9.16108H31.4201C31.1878 9.16108 30.9431 9.09988 30.6985 9.09988C30.4539 9.09988 30.2093 9.16108 29.9768 9.16108H29.879C30.1725 8.85525 30.2826 8.51267 30.3315 7.85229C30.3561 7.44868 30.3682 6.91054 30.3682 6.48248L30.3682 3.07287C30.3678 2.68607 30.3642 2.27895 30.3315 1.92019C30.2705 1.27195 30.1358 0.892781 29.7812 0.538234H29.9279ZM63.9168 0.538234C64.2713 0.538234 64.5038 0.574816 65.0787 0.574816L70.6315 7.05721V3.21684C70.6315 2.78861 70.6192 2.25046 70.5949 1.84685C70.5458 1.1863 70.4359 0.84389 70.1422 0.538234H70.24C70.4725 0.538234 70.7171 0.599262 70.9618 0.599262C71.2064 0.599262 71.451 0.538234 71.6833 0.538234H71.7811C71.4755 0.856199 71.3165 1.14972 71.3042 1.84685C71.292 2.25046 71.2797 2.78861 71.2797 3.21684V7.3509C71.2797 7.93794 71.292 8.80636 71.3288 9.44229L65.0052 2.05472V6.48248C65.0052 6.91054 65.0175 7.44868 65.0298 7.85229C65.042 8.54942 65.2009 8.84294 65.5068 9.16108H65.409C65.1765 9.16108 64.9319 9.09988 64.6872 9.09988C64.4426 9.09988 64.198 9.16108 63.9657 9.16108H63.8677C64.1614 8.85525 64.2713 8.51267 64.3204 7.85229C64.3447 7.44868 64.357 6.91054 64.357 6.48248L64.3569 3.07287C64.3565 2.68607 64.3529 2.27895 64.3204 1.92019C64.2592 1.27195 64.1246 0.892781 63.7699 0.538234H63.9168ZM77.774 0.379165C78.5446 0.379165 79.1561 0.550457 79.7799 0.880558C79.8043 1.0763 79.8166 1.24759 79.8166 1.47991C79.8166 1.81018 79.792 2.40953 79.7065 2.78869C79.2417 1.67564 78.7769 0.941759 77.6762 0.941759C76.8078 0.941759 76.2207 1.47991 76.2207 2.31157C76.2207 2.69091 76.3062 2.99657 76.6488 3.35129C76.8811 3.58361 77.0401 3.71814 77.8228 4.2686C78.7892 4.94129 79.0827 5.14916 79.4252 5.54063C79.7677 5.94424 79.9999 6.53128 79.9999 7.08174C79.9999 8.45173 78.9236 9.33229 77.3214 9.33229C76.4898 9.33229 75.9027 9.20989 75.3155 8.92868C75.181 8.36608 75.1321 7.77887 75.1321 7.31406C75.1321 6.98396 75.1566 6.80053 75.1689 6.61693C75.6826 7.82776 76.0983 8.78183 77.4069 8.78183C78.3856 8.78183 79.0339 8.15804 79.0339 7.31406C79.0339 6.86156 78.8749 6.48239 78.569 6.17656C78.3 5.90749 78.1165 5.72406 77.3703 5.19822C76.3185 4.46434 76.086 4.2686 75.7557 3.84054C75.4501 3.44907 75.3278 3.09452 75.3278 2.51962C75.3278 1.29648 76.3552 0.379165 77.774 0.379165ZM43.0924 0.3792C44.2909 0.3792 44.9882 0.574764 45.7953 0.868457C45.832 1.16198 45.8443 1.30865 45.8443 1.59003C45.8443 1.87124 45.8199 2.4217 45.7219 2.94771C45.086 1.5167 44.5968 0.941793 43.1045 0.941793C40.952 0.941793 39.5086 2.51965 39.5086 4.81892C39.5086 7.30178 41.3433 8.76956 43.3492 8.76956C44.4255 8.76956 44.878 8.45159 44.878 7.68112C44.878 7.25307 44.878 6.97168 44.8535 6.56807C44.8046 5.90752 44.6212 5.57725 44.2665 5.25929H44.4133C44.6456 5.25929 44.9515 5.32049 45.3183 5.32049C45.6854 5.32049 45.9177 5.25929 46.1502 5.25929H46.2969C45.991 5.57725 45.832 5.84632 45.8199 6.54363C45.8076 6.94724 45.7953 7.28965 45.7953 7.71771C45.7953 8.14576 45.8076 8.31705 45.8565 8.69622C45.1594 9.07538 44.242 9.33232 43.1657 9.33232C40.7562 9.33232 38.359 7.92575 38.359 4.83123C38.359 2.14049 40.5116 0.3792 43.0924 0.3792ZM58.5599 0.379131C61.1406 0.379131 63.0242 2.31171 63.0242 4.85561C63.0242 7.43643 61.0672 9.33225 58.67 9.33225C56.0158 9.33225 54.1323 7.50976 54.1323 4.85561C54.1323 2.25051 56.1136 0.379131 58.5599 0.379131ZM12.6708 0.538269C12.9031 0.538269 13.1477 0.599296 13.5146 0.599296C13.9917 0.599296 14.2363 0.550405 14.9456 0.550405C16.6825 0.550405 17.6121 1.57781 17.6121 2.72744C17.6121 3.71827 17.1107 4.46429 16.23 4.84345C16.8782 6.04215 17.4163 6.98391 18.2971 8.09696C18.6272 8.50057 18.933 8.86742 19.4223 9.16094C19.2388 9.31993 18.9819 9.33224 18.7985 9.33224C18.2726 9.33224 17.7832 9.05085 17.2574 8.31697C16.5358 7.33863 16.0342 6.4579 15.386 5.06363C15.2026 5.10022 14.9702 5.11253 14.7133 5.11253C14.5177 5.11253 14.1386 5.10022 13.9917 5.06363V6.4702C13.9917 6.89826 14.0039 7.43641 14.0162 7.84002C14.0285 8.53715 14.1875 8.83084 14.4931 9.14881H14.3464C14.1139 9.14881 13.8816 9.08761 13.5146 9.08761C13.1477 9.08761 12.9031 9.14881 12.6708 9.14881H12.5239C12.8175 8.84298 12.9276 8.50057 12.9765 7.84002C13.0009 7.43641 13.0132 6.89826 13.0132 6.4702V5.5782C12.9491 5.07473 12.8045 4.78537 12.5456 4.5241H12.6923C12.7937 4.5241 12.8981 4.53554 13.0132 4.5482V3.2167C13.0132 2.78864 13.0009 2.25049 12.9765 1.84688C12.9276 1.18634 12.8175 0.843925 12.5239 0.538269H12.6708ZM19.8501 0.538269C20.0824 0.538269 20.3271 0.599296 20.6939 0.599296C21.1709 0.599296 21.4157 0.550405 22.1249 0.550405C23.8618 0.550405 24.7914 1.57781 24.7914 2.72744C24.7914 3.71827 24.2898 4.46429 23.4093 4.84345C24.0575 6.04215 24.5957 6.98391 25.4762 8.09696C25.8065 8.50057 26.1123 8.86742 26.6016 9.16094C26.4182 9.31993 26.1612 9.33224 25.9778 9.33224C25.452 9.33224 24.9625 9.05085 24.4367 8.31697C23.7151 7.33863 23.2136 6.4579 22.5653 5.06363C22.3819 5.10022 22.1496 5.11253 21.8926 5.11253C21.6969 5.11253 21.3177 5.10022 21.1709 5.06363V6.4702C21.1709 6.89826 21.1832 7.43641 21.1955 7.84002C21.2078 8.53715 21.3668 8.83084 21.6724 9.14881H21.5258C21.2933 9.14881 21.061 9.08761 20.6939 9.08761C20.3271 9.08761 20.0824 9.14881 19.8501 9.14881H19.7033C19.9968 8.84298 20.1069 8.50057 20.1558 7.84002C20.1802 7.43641 20.1925 6.89826 20.1925 6.4702V5.5893C20.1291 5.07906 19.9843 4.78728 19.7237 4.5241H19.8704C19.9722 4.5241 20.0769 4.53554 20.1925 4.54837V3.2167C20.1925 2.78864 20.1802 2.25049 20.1558 1.84688C20.1069 1.18634 19.9968 0.843925 19.7033 0.538269H19.8501ZM2.77644 0.513737C4.35412 0.513737 5.34477 1.27207 5.34477 2.55624C5.34477 3.59595 4.67226 4.20744 3.80384 4.48882C4.95347 4.68438 5.78531 5.44289 5.78531 6.67816C5.78531 8.09687 4.70884 9.17317 2.62959 9.17317C2.33607 9.17317 1.78579 9.08769 0.990701 9.08769C0.623672 9.08769 0.379217 9.14872 0.146724 9.14872H-0.00012207C0.293571 8.84289 0.403489 8.50048 0.452553 7.84011C0.476825 7.43649 0.489135 6.89835 0.489135 6.47029V5.38429C0.428975 4.84337 0.283515 4.54118 0.0146146 4.26985H0.161461C0.264791 4.26985 0.371242 4.28164 0.489135 4.29464V3.21679C0.489135 2.78873 0.476825 2.25041 0.452553 1.8468C0.403489 1.18642 0.293571 0.844011 -0.00012207 0.538182H0.146724C0.379217 0.538182 0.623672 0.599383 0.990701 0.599383C1.68783 0.599383 2.14033 0.513737 2.77644 0.513737ZM6.67789 0.538113C6.91021 0.538113 7.15483 0.574868 7.52186 0.574868L9.90616 0.57484C10.3435 0.574564 10.6963 0.571527 11.1299 0.538113C11.1911 0.843942 11.2279 1.19866 11.2279 1.60227C11.2279 1.83459 11.2156 2.07922 11.1667 2.42163C10.8731 1.77356 10.4695 1.23524 9.77224 1.11302C9.46641 1.06412 9.19751 1.05182 8.72039 1.05182C8.14548 1.05182 8.07215 1.1496 8.03557 1.63903C7.99881 2.01819 7.99881 2.45839 7.99881 2.89875V4.4643C8.41473 4.4643 9.27084 4.45217 9.66232 4.4031L9.71855 4.39643C10.237 4.33081 10.5774 4.16875 10.8608 3.76717V3.91385C10.8608 4.15847 10.8241 4.29301 10.8241 4.69662C10.8241 5.10023 10.8608 5.24708 10.8608 5.49171V5.63855C10.5673 5.22263 10.2126 5.07579 9.66232 5.00245C9.27084 4.95356 8.40242 4.94125 7.99881 4.94125L7.99893 6.64491C8.00075 7.07284 8.02375 7.69084 8.03557 7.92568C8.05984 8.52503 8.26788 8.63512 8.81834 8.63512C9.34418 8.63512 9.78454 8.62281 10.1148 8.57392C10.8241 8.47614 11.2523 7.84004 11.5335 7.06957C11.5703 7.3142 11.5824 7.47318 11.5824 7.63216C11.5824 8.13356 11.5091 8.64726 11.3869 9.17327C10.494 9.12438 9.08742 9.11207 7.52186 9.11207C7.15483 9.11207 6.91021 9.14882 6.67789 9.14882H6.53121C6.82456 8.843 6.93465 8.50059 6.98372 7.84004C7.00816 7.43643 7.0203 6.89828 7.0203 6.47022V3.21672C7.0203 2.78866 7.00816 2.25051 6.98372 1.8469C6.93465 1.18635 6.82456 0.843942 6.53121 0.538113H6.67789ZM53.8268 0.538252C53.8512 0.770571 53.8512 1.02734 53.8512 1.29641C53.8512 1.70002 53.8389 2.1038 53.79 2.44621C53.4842 1.79798 53.1174 1.23538 52.3712 1.11298C52.0655 1.06409 51.7964 1.05178 51.5274 1.05178C50.9524 1.05178 50.8791 1.14974 50.8425 1.63899C50.8056 2.01816 50.8056 2.45835 50.8056 2.89872V6.47019C50.8056 6.89824 50.8179 7.43639 50.8302 7.84C50.8425 8.53713 51.0625 8.83083 51.4294 9.14879H51.2827C51.0504 9.14879 50.6957 9.08759 50.3287 9.08759C49.9618 9.08759 49.5949 9.14879 49.3625 9.14879H49.2156C49.5582 8.84296 49.7416 8.50055 49.7905 7.84C49.8151 7.43639 49.8273 6.89824 49.8273 6.47019V2.89872C49.8273 2.45835 49.8273 2.01816 49.7905 1.63899C49.7538 1.14974 49.6804 1.05178 49.1057 1.05178C48.8364 1.05178 48.5674 1.06409 48.2617 1.11298C47.5155 1.23538 47.1487 1.79798 46.8428 2.44621C46.7939 2.1038 46.7816 1.70002 46.7816 1.29641C46.7816 1.02734 46.7816 0.770571 46.8063 0.538252C47.2832 0.574833 47.6868 0.574833 48.1882 0.574833L52.5924 0.574797C53.0277 0.574468 53.3975 0.571175 53.8268 0.538252ZM27.0293 0.538234C27.2617 0.538234 27.5063 0.599262 27.8733 0.599262C28.2402 0.599262 28.4725 0.538234 28.705 0.538234H28.8518C28.546 0.856199 28.387 1.14972 28.3747 1.84685C28.3626 2.25046 28.3503 2.78861 28.3503 3.21684V6.47017C28.3503 6.89823 28.3626 7.43637 28.3747 7.83999C28.387 8.53712 28.546 8.83081 28.8518 9.14877H28.705C28.4725 9.14877 28.2402 9.08757 27.8733 9.08757C27.5063 9.08757 27.2617 9.14877 27.0293 9.14877H26.8827C27.176 8.84294 27.2861 8.50053 27.3352 7.83999C27.3596 7.43637 27.3717 6.89823 27.3717 6.47017V3.21684C27.3717 2.78861 27.3596 2.25046 27.3352 1.84685C27.2861 1.1863 27.176 0.84389 26.8827 0.538234H27.0293ZM58.3765 0.990788C56.6762 0.990788 55.282 2.31171 55.282 4.69662C55.282 7.17966 56.9208 8.7329 58.829 8.7329C60.6024 8.7329 61.8744 7.21624 61.8744 5.00245C61.8744 2.64181 60.2966 0.990788 58.3765 0.990788ZM1.66487 4.80683L1.46765 4.80678L1.46771 6.59607C1.46864 7.02385 1.48077 7.64185 1.5044 7.87686C1.56543 8.48835 1.79792 8.64733 2.69079 8.64733C4.04847 8.64733 4.80663 7.98678 4.80663 6.70261C4.80663 5.44289 4.06061 4.86798 2.65404 4.81892C2.37472 4.80865 2.02515 4.80707 1.66487 4.80683ZM14.7133 1.02735C14.1386 1.02735 14.0651 1.14975 14.0285 1.63901C13.9917 2.01818 13.9917 2.45837 13.9917 2.89873V4.61113C14.0691 4.62074 14.1389 4.62274 14.3528 4.62316L14.5543 4.62327C15.912 4.62327 16.5724 3.93827 16.5724 2.84984C16.5724 1.72466 15.9364 1.02735 14.7133 1.02735ZM21.8926 1.02735C21.3177 1.02735 21.2444 1.14975 21.2078 1.63901C21.1709 2.01818 21.1709 2.45837 21.1709 2.89873V4.61113C21.2484 4.62074 21.3183 4.62274 21.5321 4.62316L21.7336 4.62327C23.0913 4.62327 23.7517 3.93827 23.7517 2.84984C23.7517 1.72466 23.1158 1.02735 21.8926 1.02735ZM2.66617 1.02744C1.77348 1.02744 1.54098 1.23531 1.5044 1.67568C1.46765 2.05484 1.46765 2.49521 1.46765 2.9354V4.30539C1.8957 4.30539 2.32393 4.29308 2.65404 4.25633C3.91376 4.1341 4.40302 3.54706 4.40302 2.67864C4.40302 1.59003 3.69358 1.02744 2.66617 1.02744ZM73.3921 0L74.6275 0.391301L72.9885 3.62036L73.3921 0Z" fill="#183F3C"/>
</svg>
