<svg width="229" height="31" viewBox="0 0 229 31" fill="none" xmlns="http://www.w3.org/2000/svg">
<path d="M19.1523 14.544C22.8063 11.52 23.4363 9.924 23.4363 7.194C23.4363 1.692 18.6483 0.599998 12.4323 0.599998H0.16825C0.54625 0.977998 1.38625 2.28 1.38625 4.38V26.22C1.38625 28.32 0.54625 29.622 0.16825 30H15.4983C18.1863 30 25.0323 29.37 25.0323 21.978C25.0323 17.484 21.9663 15.72 19.1523 14.544ZM11.8023 7.824C12.8943 7.824 14.8683 7.95 14.8683 10.218C14.8683 11.52 14.3643 12.948 11.7183 15.174L10.1223 16.518V7.824H11.8023ZM12.5163 24.12H10.1223V21.306L13.2303 18.996C15.1623 19.416 16.2543 20.256 16.2543 21.684C16.2543 23.154 15.2883 24.12 12.5163 24.12ZM48.0384 22.146C47.4924 21.558 46.9464 20.718 46.3584 19.878C45.9804 19.248 45.5184 18.534 45.0564 17.862C48.9624 14.082 50.0964 10.89 50.0964 7.53C50.0964 1.692 44.9724 0.599998 39.0924 0.599998H26.8284C27.2064 0.977998 28.0464 2.28 28.0464 4.38V26.22C28.0464 28.32 27.2064 29.622 26.8284 30H38.0004C37.6224 29.622 36.7824 28.32 36.7824 26.22V25.002L39.2184 22.944C39.2604 23.07 39.3444 23.196 39.3864 23.322C40.3524 25.464 41.4444 27.144 42.7884 28.278C44.3424 29.622 46.3164 30.126 48.2484 30.126C48.7104 30.126 49.2984 30.084 49.8024 30.042L51.2304 23.238C50.0964 23.784 49.4664 23.532 48.0384 22.146ZM36.7824 7.824H38.4624C39.5544 7.824 41.5284 7.95 41.5284 10.218C41.5284 11.52 40.9404 13.242 38.2944 15.51L36.7824 16.812V7.824ZM69.7573 23.28H62.8273V18.156H66.5233C68.6653 18.156 70.4293 18.366 71.1433 18.534V12.486C70.6393 12.696 69.0853 12.948 66.5233 12.948H62.8273V7.782H69.6733C71.9833 7.782 74.1673 8.328 75.1753 8.706L73.3693 0.599998H52.8733C53.2513 0.977998 54.0913 2.28 54.0913 4.38V26.22C54.0913 28.32 53.2513 29.622 52.8733 30H73.4533L75.3013 22.356C74.2513 22.734 72.0673 23.28 69.7573 23.28ZM105.157 30C103.855 28.824 103.351 27.69 102.721 25.59L96.7571 3.96C96.3791 2.532 96.5471 1.23 96.9671 0.599998H83.6111C83.9891 1.188 84.1991 2.49 83.7791 3.918L77.3531 25.674C76.7231 27.648 76.2191 28.866 74.9591 30H85.7531C85.5851 29.244 85.6271 27.816 85.9211 26.682L86.4671 24.456C87.6011 24.708 88.7771 24.834 89.9531 24.834C91.1711 24.834 92.3891 24.708 93.6071 24.372L94.1111 26.556C94.3631 27.648 94.4471 29.16 94.2791 30H105.157ZM87.6851 19.542L90.2051 9.462L92.5151 19.5C90.8351 19.836 89.1971 19.794 87.6851 19.542ZM127.684 19.5C126.676 17.82 125.584 16.056 123.862 15.216L129.196 3.75C130.372 1.188 132.766 0.599998 132.766 0.599998H121.93L116.722 13.032V4.38C116.722 2.28 117.52 0.977998 117.94 0.599998H106.768C107.146 0.977998 107.986 2.28 107.986 4.38V26.22C107.986 28.32 107.146 29.622 106.768 30H117.94C117.52 29.622 116.722 28.32 116.722 26.22V22.608L118.612 20.928C119.032 21.894 119.41 23.07 119.872 24.288C121.384 28.446 124.744 30.63 128.44 30.63C129.7 30.63 130.918 30.42 132.052 30L132.85 22.986C130.204 23.616 129.112 21.642 127.684 19.5ZM144.489 12.948V7.782H151.335C153.645 7.782 155.829 8.328 156.837 8.706L155.031 0.599998H134.535C134.913 0.977998 135.753 2.28 135.753 4.38V26.22C135.753 28.32 134.913 29.622 134.535 30H145.707C145.287 29.622 144.489 28.32 144.489 26.22V18.156H148.185C150.327 18.156 152.091 18.366 152.805 18.534V12.486C152.301 12.696 150.747 12.948 148.185 12.948H144.489ZM182.513 30C181.211 28.824 180.707 27.69 180.077 25.59L174.113 3.96C173.735 2.532 173.903 1.23 174.323 0.599998H160.967C161.345 1.188 161.555 2.49 161.135 3.918L154.709 25.674C154.079 27.648 153.575 28.866 152.315 30H163.109C162.941 29.244 162.983 27.816 163.277 26.682L163.823 24.456C164.957 24.708 166.133 24.834 167.309 24.834C168.527 24.834 169.745 24.708 170.963 24.372L171.467 26.556C171.719 27.648 171.803 29.16 171.635 30H182.513ZM165.041 19.542L167.561 9.462L169.871 19.5C168.191 19.836 166.553 19.794 165.041 19.542ZM194.476 30.462C200.776 30.462 204.934 27.48 204.934 21.894C204.934 16.896 200.062 14.082 196.828 12.402C194.518 11.184 192.544 10.26 192.502 8.58C192.502 7.404 193.426 6.69 194.812 6.69C196.786 6.69 198.55 7.992 198.718 10.134L204.304 4.422C202.582 1.65 198.13 0.264 193.594 0.264C188.764 0.264 183.43 2.616 183.514 8.16C183.556 12.444 185.698 14.25 188.89 16.434C191.662 18.324 195.358 19.374 195.442 21.516C195.442 22.86 194.518 23.658 193.006 23.658C191.116 23.658 189.436 21.894 189.352 19.752L182.338 22.65C184.396 28.572 188.806 30.462 194.476 30.462ZM222.616 7.824C224.968 7.824 227.236 8.37 228.244 8.748L225.724 0.599998H207.118L204.598 8.748C205.648 8.37 207.874 7.824 210.226 7.824H212.074V26.598C212.074 28.362 211.36 29.58 210.856 30H222.028C221.566 29.58 220.81 28.362 220.81 26.598V7.824H222.616Z" fill="#C49D66"/>
</svg>
