<svg width="285" height="375" viewBox="0 0 285 375" fill="none" xmlns="http://www.w3.org/2000/svg">
<g clip-path="url(#clip0_24_2)">
<path d="M142.33 264.59C142.335 264.653 142.335 264.717 142.33 264.78C142.33 264.78 142.33 264.69 142.33 264.65V264.59Z" fill="#183F3C"/>
<path d="M122.88 214.32V230.64C122.85 231.185 122.928 231.731 123.11 232.246C123.292 232.761 123.574 233.235 123.94 233.64H114.22C114.593 233.239 114.879 232.766 115.061 232.25C115.243 231.734 115.318 231.186 115.28 230.64V214.32H113.68C112.015 214.333 110.362 214.603 108.78 215.12L110.97 208.04H127.15L129.34 215.12C127.762 214.6 126.112 214.33 124.45 214.32H122.88Z" fill="#183F3C"/>
<path d="M153.73 233.6H144.02C144.762 232.669 145.139 231.499 145.08 230.31V223.96C142.998 224.27 140.882 224.27 138.8 223.96V230.35C138.741 231.539 139.118 232.709 139.86 233.64H130.15C130.862 232.696 131.216 231.53 131.15 230.35V211.35C131.216 210.17 130.862 209.004 130.15 208.06H139.86C139.118 208.991 138.741 210.161 138.8 211.35V218.11C140.877 218.459 142.996 218.482 145.08 218.18V211.35C145.139 210.161 144.762 208.991 144.02 208.06H153.73C152.974 208.984 152.596 210.159 152.67 211.35V230.35C152.606 231.528 152.984 232.687 153.73 233.6Z" fill="#183F3C"/>
<path d="M175.86 226.95L174.26 233.6H156.36C157.102 232.669 157.479 231.499 157.42 230.31V211.31C157.479 210.121 157.102 208.951 156.36 208.02H174.18L175.75 215.02C174.212 214.49 172.597 214.217 170.97 214.21H164.97V218.8H168.18C169.527 218.868 170.876 218.73 172.18 218.39V223.65C170.86 223.415 169.521 223.304 168.18 223.32H164.97V227.8H170.97C172.635 227.783 174.287 227.496 175.86 226.95Z" fill="#183F3C"/>
<path d="M57.8101 340.1L66.6101 336.46C66.6307 337.701 67.112 338.889 67.9603 339.795C68.8086 340.701 69.9634 341.258 71.2001 341.36C73.1001 341.36 74.2601 340.36 74.2601 338.68C74.1501 335.99 69.5101 334.68 66.0301 332.3C62.0301 329.56 59.3401 327.3 59.2901 321.91C59.1801 314.91 65.8801 312.01 71.9401 312.01C77.6301 312.01 83.2201 313.75 85.3801 317.22L78.3801 324.39C78.2804 323.176 77.7143 322.048 76.8007 321.242C75.887 320.437 74.6969 320.017 73.4801 320.07C71.7401 320.07 70.5801 320.97 70.5801 322.44C70.6301 324.55 73.1101 325.71 76.0001 327.24C80.0601 329.35 86.1801 332.88 86.1801 339.15C86.1801 346.15 80.9601 349.9 73.0501 349.9C65.9301 349.9 60.3901 347.53 57.8101 340.1Z" fill="#183F3C"/>
<path d="M135.63 312.43C134.025 313.827 133.022 315.791 132.83 317.91L128.63 345.16C128.314 346.543 128.408 347.989 128.9 349.32H115.04C115.512 348.22 115.586 346.989 115.25 345.84L112.45 334.84C111.975 332.602 111.694 330.327 111.61 328.04C111.578 330.311 111.314 332.573 110.82 334.79L107.97 345.86C107.686 346.994 107.759 348.189 108.18 349.28H94.3201C94.8125 347.949 94.9064 346.503 94.5901 345.12L90.3201 317.87C90.1461 315.759 89.1646 313.796 87.5801 312.39H100.38C100.224 313.772 100.224 315.168 100.38 316.55L102.49 329.68C102.706 331.559 103.04 333.423 103.49 335.26C103.643 333.31 103.924 331.373 104.33 329.46L107.23 316.92C107.677 315.412 107.527 313.79 106.81 312.39H116.56C115.845 313.791 115.695 315.412 116.14 316.92L119.14 329.73C119.49 331.331 119.754 332.95 119.93 334.58C120.318 332.91 120.618 331.221 120.83 329.52L122.99 316.52C123.107 315.135 123.09 313.742 122.94 312.36L135.63 312.43Z" fill="#183F3C"/>
<path d="M141.3 344.58V317.17C141.382 315.457 140.838 313.772 139.77 312.43H153.77C152.675 313.758 152.128 315.453 152.24 317.17V344.58C152.128 346.297 152.675 347.992 153.77 349.32H139.77C140.838 347.978 141.382 346.293 141.3 344.58Z" fill="#183F3C"/>
<path d="M192.79 349.32H178.79C179.885 347.992 180.432 346.297 180.32 344.58V342.89C180.32 337.73 177.79 335.67 175.41 333.72C174.104 332.782 173.01 331.579 172.2 330.19V344.58C172.088 346.297 172.635 347.992 173.73 349.32H159.73C160.798 347.978 161.342 346.293 161.26 344.58V317.17C161.342 315.457 160.798 313.772 159.73 312.43H173.73C172.635 313.758 172.088 315.453 172.2 317.17V319.44C172.67 321.91 174.84 323.44 176.94 325.13C178.398 326.236 179.559 327.686 180.32 329.35V317.17C180.432 315.453 179.885 313.758 178.79 312.43H192.79C191.695 313.758 191.148 315.453 191.26 317.17V344.58C191.148 346.297 191.695 347.992 192.79 349.32Z" fill="#183F3C"/>
<path d="M226.83 339.73L224.52 349.32H198.69C199.758 347.978 200.302 346.293 200.22 344.58V317.17C200.302 315.457 199.758 313.772 198.69 312.43H224.41L226.68 322.6C224.454 321.844 222.121 321.453 219.77 321.44H211.18V327.92H215.82C217.771 328.019 219.727 327.824 221.62 327.34V334.93C219.706 334.588 217.764 334.43 215.82 334.46H211.18V340.89H219.88C222.243 340.873 224.589 340.481 226.83 339.73Z" fill="#183F3C"/>
<path d="M80.2001 371.62C80.2002 372.017 80.1016 372.407 79.913 372.757C79.7245 373.106 79.452 373.403 79.1201 373.62C78.8165 374.03 78.4171 374.359 77.9569 374.579C77.4966 374.798 76.9896 374.902 76.4801 374.88C76.0061 374.916 75.5304 374.838 75.0923 374.654C74.6542 374.469 74.2661 374.184 73.9601 373.82C73.72 373.504 73.5901 373.117 73.5901 372.72C73.5805 372.508 73.6289 372.297 73.7301 372.11L74.4101 371.42C74.4547 371.382 74.5113 371.361 74.5701 371.36C74.6311 371.36 74.6896 371.384 74.7327 371.427C74.7758 371.471 74.8001 371.529 74.8001 371.59C74.7618 371.737 74.7384 371.888 74.7301 372.04C74.7375 372.339 74.8351 372.628 75.0101 372.87C75.2741 373.177 75.6084 373.415 75.9845 373.565C76.3606 373.715 76.7673 373.771 77.17 373.73C77.7409 373.74 78.3029 373.588 78.7901 373.29C78.9734 372.989 79.0671 372.642 79.06 372.29C79.06 370.85 77.8201 370.39 76.5101 369.91C75.3701 369.49 73.81 368.97 73.81 367.32C73.8108 366.923 73.9098 366.533 74.0983 366.184C74.2867 365.835 74.5588 365.538 74.89 365.32C75.1612 364.94 75.5202 364.632 75.9364 364.421C76.3526 364.211 76.8136 364.104 77.28 364.11C78.75 364.11 79.75 364.93 79.75 365.8C79.7468 365.988 79.7052 366.174 79.6278 366.346C79.5505 366.518 79.439 366.673 79.3001 366.8L78.6201 367.47C78.5999 367.496 78.574 367.516 78.5445 367.53C78.515 367.544 78.4827 367.551 78.4501 367.55C78.3891 367.55 78.3306 367.526 78.2874 367.483C78.2443 367.439 78.22 367.381 78.22 367.32C78.22 367.09 78.61 367 78.61 366.5C78.61 366 77.83 365.27 76.61 365.27C76.1252 365.264 75.6492 365.4 75.2401 365.66C75.0465 365.957 74.9488 366.306 74.9601 366.66C74.9601 367.93 76.08 368.34 77.36 368.81C78.64 369.28 80.2001 369.86 80.2001 371.62Z" fill="#868F78"/>
<path d="M98.14 364.51C98.1365 364.573 98.1119 364.633 98.0701 364.68L97.4001 365.36C97.3529 365.402 97.293 365.426 97.2301 365.43H96.5101L93.69 374.02C93.69 374.02 93.6901 374.09 93.6301 374.11L92.9501 374.79C92.9309 374.814 92.9067 374.834 92.879 374.848C92.8513 374.862 92.821 374.869 92.7901 374.87C92.7415 374.869 92.6945 374.853 92.6552 374.824C92.6159 374.796 92.5862 374.756 92.5701 374.71L89.5701 366.37L86.8201 374.03C86.8131 374.062 86.7955 374.09 86.7701 374.11L86.0901 374.79C86.0709 374.814 86.0467 374.834 86.019 374.848C85.9913 374.862 85.961 374.869 85.9301 374.87C85.8794 374.871 85.8299 374.855 85.7898 374.824C85.7497 374.793 85.7215 374.749 85.7101 374.7L82.7101 365.43H81.53C81.469 365.43 81.4105 365.406 81.3674 365.363C81.3243 365.319 81.3 365.261 81.3 365.2C81.3036 365.137 81.3283 365.077 81.3701 365.03L82.0401 364.35C82.0621 364.327 82.0885 364.309 82.1178 364.297C82.147 364.285 82.1784 364.279 82.2101 364.28H84.91C84.9534 364.279 84.9959 364.292 85.0318 364.316C85.0677 364.34 85.0952 364.375 85.1105 364.416C85.1258 364.456 85.1283 364.5 85.1174 364.542C85.1066 364.584 85.0831 364.622 85.05 364.65L84.11 365.48L86.4501 372.6L89.17 365C89.181 364.968 89.202 364.94 89.2301 364.92L89.91 364.23C89.9527 364.187 90.0098 364.162 90.0701 364.16C90.1186 364.161 90.1656 364.177 90.2049 364.206C90.2442 364.234 90.2739 364.274 90.2901 364.32L93.2901 372.57L95.64 365.43H94.64C94.6103 365.43 94.5808 365.424 94.5535 365.412C94.5261 365.401 94.5014 365.384 94.4808 365.362C94.4603 365.341 94.4443 365.315 94.4338 365.287C94.4234 365.259 94.4187 365.23 94.42 365.2C94.4194 365.168 94.4253 365.137 94.4373 365.108C94.4494 365.078 94.4673 365.052 94.4901 365.03L95.16 364.35C95.1797 364.327 95.2043 364.309 95.232 364.297C95.2597 364.285 95.2898 364.279 95.3201 364.28H98.0201C98.0609 364.302 98.0942 364.335 98.1156 364.376C98.137 364.417 98.1455 364.464 98.14 364.51Z" fill="#868F78"/>
<path d="M101.91 373.6H103.03C103.091 373.6 103.149 373.624 103.193 373.667C103.236 373.71 103.26 373.769 103.26 373.83C103.257 373.89 103.232 373.947 103.19 373.99L102.52 374.68C102.473 374.722 102.413 374.746 102.35 374.75H99.6299C99.5989 374.751 99.5679 374.746 99.5388 374.735C99.5097 374.724 99.4832 374.708 99.4608 374.686C99.4383 374.665 99.4205 374.639 99.4083 374.61C99.3961 374.582 99.3899 374.551 99.3899 374.52C99.3923 374.46 99.4173 374.403 99.4599 374.36L100.14 373.67C100.183 373.627 100.24 373.602 100.3 373.6H100.74V365.43H99.6299C99.5689 365.43 99.5104 365.406 99.4673 365.363C99.4241 365.319 99.3999 365.261 99.3999 365.2C99.4035 365.135 99.4321 365.074 99.4799 365.03L100.15 364.35C100.17 364.327 100.194 364.309 100.222 364.297C100.25 364.284 100.28 364.279 100.31 364.28H103.01C103.071 364.28 103.129 364.304 103.173 364.347C103.216 364.39 103.24 364.449 103.24 364.51C103.236 364.573 103.212 364.633 103.17 364.68L102.5 365.36C102.453 365.402 102.393 365.426 102.33 365.43H101.89L101.91 373.6Z" fill="#868F78"/>
<path d="M107.87 373.6H111.87L112.15 372.6C112.158 372.564 112.18 372.531 112.21 372.51L112.89 371.82C112.934 371.779 112.99 371.754 113.05 371.75H113.14C113.166 371.759 113.191 371.773 113.212 371.792C113.233 371.81 113.25 371.833 113.262 371.858C113.274 371.883 113.281 371.91 113.282 371.938C113.284 371.966 113.28 371.994 113.27 372.02L112.75 373.89C112.74 373.928 112.719 373.963 112.69 373.99L112.01 374.68C111.967 374.723 111.91 374.748 111.85 374.75H105.63C105.569 374.75 105.511 374.726 105.467 374.683C105.424 374.639 105.4 374.581 105.4 374.52C105.399 374.49 105.405 374.46 105.417 374.432C105.429 374.404 105.447 374.38 105.47 374.36L106.14 373.67C106.187 373.628 106.247 373.603 106.31 373.6H106.75V365.43H105.63C105.569 365.43 105.511 365.406 105.467 365.363C105.424 365.319 105.4 365.261 105.4 365.2C105.404 365.137 105.428 365.077 105.47 365.03L106.14 364.35C106.162 364.327 106.189 364.309 106.218 364.297C106.247 364.285 106.278 364.279 106.31 364.28H109.03C109.061 364.279 109.092 364.284 109.121 364.295C109.15 364.305 109.177 364.322 109.199 364.344C109.222 364.365 109.239 364.391 109.252 364.42C109.264 364.448 109.27 364.479 109.27 364.51C109.267 364.573 109.242 364.633 109.2 364.68L108.52 365.36C108.477 365.403 108.42 365.428 108.36 365.43H107.89L107.87 373.6Z" fill="#868F78"/>
<path d="M117.46 373.6H121.46L121.75 372.6C121.758 372.564 121.779 372.531 121.81 372.51L122.48 371.82C122.527 371.778 122.587 371.754 122.65 371.75H122.74C122.79 371.772 122.831 371.811 122.855 371.861C122.879 371.91 122.884 371.967 122.87 372.02L122.35 373.89C122.336 373.929 122.312 373.964 122.28 373.99L121.61 374.68C121.563 374.722 121.503 374.746 121.44 374.75H115.16C115.129 374.751 115.098 374.746 115.069 374.735C115.04 374.724 115.013 374.708 114.991 374.686C114.968 374.665 114.951 374.639 114.938 374.61C114.926 374.582 114.92 374.551 114.92 374.52C114.922 374.46 114.947 374.403 114.99 374.36L115.67 373.67C115.713 373.627 115.77 373.602 115.83 373.6H116.27V365.43H115.15C115.089 365.43 115.03 365.406 114.987 365.363C114.944 365.319 114.92 365.261 114.92 365.2C114.923 365.137 114.948 365.077 114.99 365.03L115.67 364.35C115.69 364.327 115.714 364.309 115.742 364.297C115.77 364.284 115.8 364.279 115.83 364.28H118.63C118.691 364.28 118.749 364.304 118.793 364.347C118.836 364.39 118.86 364.449 118.86 364.51C118.856 364.573 118.832 364.633 118.79 364.68L118.11 365.36C118.067 365.403 118.01 365.428 117.95 365.43H117.48L117.46 373.6Z" fill="#868F78"/>
<path d="M139.19 372.67V372.73C139.06 373.275 138.723 373.749 138.25 374.05C138.141 374.285 137.97 374.486 137.754 374.63C137.539 374.775 137.289 374.858 137.03 374.87C136.098 374.669 135.278 374.118 134.74 373.33C134.376 373.797 133.913 374.178 133.383 374.444C132.854 374.71 132.272 374.856 131.68 374.87C131.32 374.887 130.96 374.832 130.622 374.707C130.283 374.582 129.974 374.39 129.711 374.143C129.449 373.895 129.239 373.598 129.095 373.267C128.95 372.937 128.874 372.581 128.87 372.22C128.903 371.741 129.042 371.275 129.277 370.856C129.512 370.438 129.838 370.077 130.23 369.8C130.484 369.482 130.777 369.197 131.1 368.95C130.789 368.697 130.538 368.379 130.365 368.017C130.193 367.656 130.102 367.261 130.1 366.86C130.098 366.526 130.182 366.198 130.345 365.907C130.508 365.616 130.744 365.372 131.03 365.2C131.218 364.889 131.484 364.633 131.801 364.458C132.119 364.282 132.477 364.193 132.84 364.2C133.086 364.182 133.332 364.215 133.565 364.295C133.798 364.375 134.012 364.502 134.194 364.668C134.376 364.833 134.523 365.034 134.626 365.258C134.728 365.482 134.784 365.724 134.79 365.97C134.761 366.305 134.656 366.628 134.483 366.916C134.309 367.204 134.072 367.448 133.79 367.63C133.508 367.994 133.171 368.311 132.79 368.57L135.33 371.77C135.77 370.962 136.106 370.102 136.33 369.21H135.39C135.329 369.21 135.271 369.186 135.227 369.143C135.184 369.099 135.16 369.041 135.16 368.98C135.163 368.92 135.188 368.863 135.23 368.82L135.91 368.13C135.953 368.087 136.01 368.062 136.07 368.06H138.55C138.611 368.06 138.67 368.084 138.713 368.127C138.756 368.171 138.78 368.229 138.78 368.29C138.781 368.349 138.76 368.406 138.72 368.45L138.03 369.14C137.987 369.183 137.93 369.208 137.87 369.21H137.3C136.997 370.327 136.496 371.38 135.82 372.32C136.289 373.028 137 373.54 137.82 373.76C137.893 373.77 137.967 373.77 138.04 373.76C138.1 373.639 138.147 373.511 138.18 373.38C138.19 373.339 138.211 373.301 138.24 373.27L138.92 372.58C138.965 372.542 139.021 372.521 139.08 372.52C139.108 372.535 139.133 372.557 139.152 372.583C139.171 372.609 139.184 372.638 139.19 372.67ZM134.44 372.96L131.55 369.34C131.203 369.563 130.869 369.807 130.55 370.07C130.2 370.48 130.005 371.001 130 371.54C130.005 371.839 130.07 372.135 130.192 372.408C130.314 372.682 130.49 372.928 130.71 373.131C130.93 373.335 131.188 373.492 131.47 373.593C131.752 373.694 132.051 373.738 132.35 373.72C133.115 373.723 133.856 373.453 134.44 372.96ZM131.21 366.13C131.22 366.515 131.323 366.892 131.511 367.229C131.699 367.565 131.967 367.85 132.29 368.06C132.29 368.06 133.07 367.54 133.4 367.28C133.541 367.088 133.621 366.858 133.63 366.62C133.624 366.434 133.58 366.252 133.501 366.083C133.421 365.915 133.308 365.765 133.169 365.642C133.029 365.52 132.866 365.427 132.689 365.37C132.512 365.312 132.325 365.292 132.14 365.31C131.863 365.304 131.588 365.366 131.34 365.49C131.249 365.691 131.205 365.91 131.21 366.13Z" fill="#868F78"/>
<path d="M153.63 364.51V365.96C153.631 365.99 153.625 366.02 153.613 366.048C153.601 366.076 153.583 366.1 153.56 366.12L152.88 366.81C152.837 366.853 152.78 366.878 152.72 366.88C152.689 366.88 152.658 366.874 152.63 366.862C152.601 366.849 152.575 366.832 152.554 366.809C152.532 366.787 152.515 366.76 152.505 366.731C152.494 366.702 152.489 366.671 152.49 366.64V365.43H149.89V373.6H150.94C151.001 373.6 151.059 373.624 151.103 373.667C151.146 373.71 151.17 373.769 151.17 373.83C151.166 373.893 151.142 373.953 151.1 374L150.43 374.68C150.383 374.722 150.323 374.746 150.26 374.75H147.63C147.6 374.75 147.571 374.744 147.543 374.732C147.516 374.721 147.491 374.704 147.471 374.682C147.45 374.661 147.434 374.635 147.424 374.607C147.413 374.579 147.409 374.55 147.41 374.52C147.409 374.488 147.415 374.457 147.427 374.428C147.439 374.398 147.457 374.372 147.48 374.35L148.15 373.67C148.172 373.648 148.199 373.63 148.228 373.618C148.257 373.606 148.288 373.6 148.32 373.6H148.75V365.43H146.12V365.96C146.121 366.019 146.1 366.076 146.06 366.12L145.37 366.81C145.327 366.853 145.27 366.878 145.21 366.88C145.179 366.88 145.148 366.874 145.12 366.862C145.091 366.849 145.065 366.832 145.044 366.809C145.022 366.787 145.005 366.76 144.994 366.731C144.984 366.702 144.979 366.671 144.98 366.64V365.2C144.982 365.14 145.007 365.083 145.05 365.04L145.73 364.35C145.75 364.327 145.774 364.309 145.802 364.297C145.83 364.284 145.86 364.279 145.89 364.28H153.4C153.46 364.282 153.517 364.307 153.56 364.35C153.602 364.393 153.627 364.45 153.63 364.51Z" fill="#868F78"/>
<path d="M164.18 374.01C164.13 374.09 163.59 374.86 163.06 374.86C161.75 374.86 160.54 373.05 159.46 371.46C159.21 371.09 158.97 370.73 158.75 370.46H157.91V373.63H159.03C159.091 373.63 159.15 373.654 159.193 373.697C159.236 373.74 159.26 373.799 159.26 373.86C159.257 373.923 159.232 373.983 159.19 374.03L158.52 374.71C158.473 374.752 158.413 374.776 158.35 374.78H155.63C155.569 374.78 155.511 374.756 155.467 374.713C155.424 374.67 155.4 374.611 155.4 374.55C155.399 374.491 155.42 374.434 155.46 374.39L156.14 373.7C156.162 373.678 156.189 373.66 156.218 373.648C156.247 373.636 156.279 373.63 156.31 373.63H156.74V365.39C156.02 365.39 155.74 365.46 155.62 365.46C155.59 365.46 155.561 365.454 155.534 365.442C155.506 365.431 155.481 365.414 155.461 365.392C155.44 365.371 155.424 365.345 155.414 365.317C155.403 365.289 155.399 365.26 155.4 365.23C155.399 365.171 155.42 365.114 155.46 365.07L156.14 364.39C156.159 364.369 156.182 364.352 156.208 364.34C156.234 364.328 156.262 364.321 156.29 364.32C156.29 364.32 157.65 364.19 159.14 364.19C161.43 364.19 162.93 365.19 162.93 366.86C162.933 367.29 162.829 367.714 162.629 368.094C162.428 368.475 162.137 368.799 161.78 369.04C161.383 369.586 160.823 369.992 160.18 370.2L160.4 370.53C161.35 371.93 162.54 373.7 163.58 373.7C163.705 373.687 163.828 373.667 163.95 373.64C164.022 373.641 164.09 373.669 164.14 373.72C164.174 373.759 164.196 373.808 164.203 373.859C164.21 373.911 164.202 373.963 164.18 374.01ZM161.48 368.69C161.703 368.337 161.821 367.928 161.82 367.51C161.82 366.13 160.57 365.3 158.49 365.3H157.91V369.3H159.25C160.037 369.321 160.813 369.108 161.48 368.69Z" fill="#868F78"/>
<path d="M173.37 373.34C172.987 373.828 172.496 374.22 171.935 374.486C171.375 374.751 170.76 374.883 170.14 374.87C167.43 374.87 165.8 372.61 165.8 369.87C165.766 369.081 165.913 368.295 166.23 367.572C166.547 366.849 167.026 366.209 167.63 365.7C168.013 365.212 168.504 364.82 169.065 364.554C169.625 364.289 170.24 364.157 170.86 364.17C173.68 364.17 175.2 366.55 175.2 369.17C175.234 369.959 175.086 370.745 174.769 371.467C174.452 372.19 173.973 372.831 173.37 373.34ZM174.02 369.86C174.02 367.57 172.76 365.31 170.14 365.31C169.342 365.293 168.56 365.543 167.92 366.02C167.25 366.936 166.899 368.046 166.92 369.18C166.92 371.57 168.27 373.72 170.8 373.72C171.601 373.735 172.385 373.486 173.03 373.01C173.691 372.094 174.038 370.989 174.02 369.86Z" fill="#868F78"/>
<path d="M186.76 364.51C186.756 364.573 186.732 364.633 186.69 364.68L186.01 365.36C185.967 365.403 185.91 365.428 185.85 365.43H185.41V370.04C185.471 370.715 185.37 371.396 185.114 372.024C184.859 372.652 184.456 373.21 183.94 373.65C183.662 374.043 183.291 374.36 182.86 374.573C182.428 374.786 181.951 374.888 181.47 374.87C179.37 374.87 178.21 373.19 178.21 370.73V365.43H177.1C177.039 365.43 176.98 365.406 176.937 365.363C176.894 365.319 176.87 365.261 176.87 365.2C176.869 365.168 176.875 365.137 176.887 365.108C176.899 365.078 176.917 365.052 176.94 365.03L177.61 364.35C177.631 364.326 177.657 364.308 177.687 364.295C177.716 364.283 177.748 364.278 177.78 364.28H180.47C180.531 364.28 180.589 364.304 180.633 364.347C180.676 364.39 180.7 364.449 180.7 364.51C180.701 364.542 180.695 364.573 180.683 364.602C180.671 364.632 180.653 364.658 180.63 364.68L179.96 365.36C179.913 365.402 179.853 365.426 179.79 365.43H179.35V370.04C179.35 371.9 180.07 373.72 182.15 373.72C182.665 373.733 183.173 373.594 183.61 373.32C184.082 372.541 184.312 371.64 184.27 370.73V365.43H183.15C183.089 365.43 183.03 365.406 182.987 365.363C182.944 365.319 182.92 365.261 182.92 365.2C182.923 365.137 182.948 365.077 182.99 365.03L183.67 364.35C183.69 364.327 183.714 364.309 183.742 364.297C183.77 364.284 183.8 364.279 183.83 364.28H186.53C186.591 364.28 186.649 364.304 186.693 364.347C186.736 364.39 186.76 364.449 186.76 364.51Z" fill="#868F78"/>
<path d="M198.83 368.98C198.828 369.04 198.803 369.097 198.76 369.14L198.08 369.83C198.037 369.873 197.98 369.898 197.92 369.9H197.48V372.9C197.478 372.96 197.453 373.017 197.41 373.06L196.73 373.75C195.783 374.556 194.562 374.968 193.32 374.9C192.668 374.907 192.021 374.782 191.419 374.531C190.817 374.281 190.272 373.911 189.817 373.443C189.363 372.975 189.008 372.42 188.775 371.811C188.541 371.202 188.434 370.552 188.46 369.9C188.441 369.141 188.593 368.387 188.904 367.695C189.216 367.002 189.679 366.389 190.26 365.9C190.696 365.351 191.253 364.91 191.888 364.613C192.524 364.317 193.219 364.172 193.92 364.19C195.92 364.19 197.11 365.31 197.11 366.34C197.109 366.597 197.009 366.845 196.83 367.03L196.15 367.72C196.13 367.742 196.105 367.76 196.078 367.772C196.05 367.785 196.02 367.79 195.99 367.79C195.929 367.79 195.871 367.766 195.827 367.723C195.784 367.679 195.76 367.621 195.76 367.56C195.76 367.36 195.98 367.37 195.98 367.01C195.98 366.36 195.13 365.34 193.24 365.34C192.277 365.319 191.337 365.634 190.58 366.23C189.917 367.088 189.565 368.146 189.58 369.23C189.553 369.822 189.647 370.414 189.856 370.968C190.066 371.522 190.386 372.028 190.798 372.454C191.21 372.88 191.705 373.218 192.252 373.446C192.799 373.674 193.387 373.787 193.98 373.78C194.79 373.794 195.592 373.616 196.32 373.26V369.96H194.4C194.339 369.96 194.281 369.936 194.237 369.893C194.194 369.85 194.17 369.791 194.17 369.73C194.169 369.671 194.19 369.614 194.23 369.57L194.91 368.88C194.956 368.837 195.017 368.812 195.08 368.81H198.63C198.677 368.815 198.721 368.833 198.757 368.864C198.792 368.894 198.818 368.935 198.83 368.98Z" fill="#868F78"/>
<path d="M211.06 373.8C211.058 373.86 211.033 373.917 210.99 373.96L210.31 374.65C210.267 374.693 210.21 374.718 210.15 374.72H207.45C207.389 374.72 207.331 374.696 207.287 374.653C207.244 374.61 207.22 374.551 207.22 374.49C207.222 374.427 207.247 374.366 207.29 374.32L207.97 373.64C208.013 373.597 208.07 373.572 208.13 373.57H208.57V369.87H202.86V373.57H203.99C204.02 373.57 204.049 373.576 204.077 373.588C204.104 373.599 204.129 373.616 204.149 373.638C204.17 373.659 204.186 373.685 204.196 373.713C204.207 373.741 204.211 373.77 204.21 373.8C204.211 373.83 204.206 373.86 204.193 373.888C204.181 373.916 204.163 373.94 204.14 373.96L203.47 374.65C203.427 374.693 203.37 374.718 203.31 374.72H200.63C200.569 374.72 200.511 374.696 200.467 374.653C200.424 374.61 200.4 374.551 200.4 374.49C200.399 374.46 200.405 374.43 200.417 374.402C200.429 374.374 200.447 374.35 200.47 374.33L201.14 373.64C201.187 373.598 201.247 373.574 201.31 373.57H201.75V365.4H200.63C200.569 365.4 200.511 365.376 200.467 365.333C200.424 365.289 200.4 365.231 200.4 365.17C200.404 365.107 200.428 365.047 200.47 365L201.14 364.32C201.162 364.297 201.189 364.279 201.218 364.267C201.247 364.255 201.278 364.249 201.31 364.25H204.01C204.04 364.25 204.069 364.256 204.097 364.268C204.124 364.279 204.149 364.296 204.169 364.318C204.19 364.339 204.206 364.365 204.216 364.393C204.227 364.421 204.231 364.45 204.23 364.48C204.231 364.512 204.225 364.543 204.213 364.572C204.201 364.602 204.183 364.628 204.16 364.65L203.49 365.33C203.447 365.373 203.39 365.398 203.33 365.4H202.88V368.8H208.59V365.48H207.47C207.44 365.48 207.41 365.474 207.382 365.462C207.354 365.451 207.329 365.434 207.307 365.413C207.286 365.391 207.269 365.366 207.258 365.338C207.246 365.31 207.24 365.28 207.24 365.25C207.244 365.187 207.268 365.127 207.31 365.08L207.99 364.4C208.01 364.377 208.034 364.359 208.062 364.347C208.09 364.334 208.12 364.329 208.15 364.33H210.84C210.871 364.329 210.902 364.334 210.931 364.345C210.96 364.355 210.987 364.372 211.009 364.394C211.032 364.415 211.049 364.441 211.062 364.47C211.074 364.498 211.08 364.529 211.08 364.56C211.078 364.62 211.053 364.677 211.01 364.72L210.33 365.41C210.287 365.453 210.23 365.478 210.17 365.48H209.73V373.65H210.85C210.896 373.651 210.941 373.666 210.978 373.693C211.016 373.719 211.044 373.757 211.06 373.8Z" fill="#868F78"/>
<path d="M0.980091 289.19C-2.63991 275.51 3.89009 261.95 18.6701 258.03C27.5801 255.67 33.5901 258.03 38.6001 260.44L31.9101 276.44C29.4701 273.09 27.0801 271.58 23.2801 272.59C18.3701 273.89 16.2801 279.26 17.7001 284.71C19.1201 290.16 23.7001 293.85 29.1201 292.4C30.739 292.065 32.2291 291.276 33.4157 290.125C34.6023 288.974 35.4363 287.508 35.8201 285.9L47.3801 295.77C45.1601 299.09 41.2601 305 31.8001 307.51C17.0201 311.47 4.63009 302.86 0.980091 289.19Z" fill="#183F3C"/>
<path d="M90.6301 283.89L90.0701 295.7C89.2301 295.91 88.2501 296.14 87.4801 296.26C84.1656 296.9 80.7315 296.321 77.8101 294.63C74.9599 292.705 72.5697 290.175 70.8101 287.22C70.7001 287.02 70.5301 286.83 70.4201 286.63L66.8901 290.74L67.2201 292.74C67.474 295.046 68.5623 297.18 70.2801 298.74L51.5101 301.74C52.6504 299.711 53.0063 297.334 52.5101 295.06L46.6301 258.46C46.3699 256.153 45.2786 254.02 43.5601 252.46L64.1601 249.15C74.0401 247.57 82.9401 248.02 84.5101 257.83C85.4201 263.47 84.3701 269.14 78.8301 276.54C79.8301 277.54 80.7601 278.62 81.5601 279.54C82.637 280.726 83.7858 281.845 85.0001 282.89C87.7301 284.86 88.8501 285.11 90.6301 283.89ZM64.6301 276.99L66.8201 274.39C70.6501 269.87 71.1801 266.82 70.8201 264.63C70.2001 260.82 66.8201 261.14 65.0201 261.44L62.2001 261.89L64.6301 276.99Z" fill="#183F3C"/>
<path d="M126.74 293.24C126.891 291.278 126.695 289.304 126.16 287.41L125.16 283.74C123.162 284.381 121.086 284.747 118.99 284.83C117 284.929 115.005 284.812 113.04 284.48L112.3 288.31C111.917 290.174 111.917 292.096 112.3 293.96L93.96 294.86C96.01 292.86 96.76 290.71 97.67 287.31L106.77 249.81C107.325 247.931 107.12 245.91 106.2 244.18L128.9 243.07C128.24 244.17 128.06 246.4 128.82 248.79L140.76 285.05C142.01 288.56 142.96 290.45 145.27 292.34L126.74 293.24ZM122.86 275.55L118.1 258.69L114.63 276.03C117.38 276.372 120.169 276.209 122.86 275.55Z" fill="#183F3C"/>
<path d="M174.38 265.18C178.73 265.44 181.38 265.18 182.27 264.86L181.66 275.13C179.102 274.509 176.49 274.137 173.86 274.02L167.58 273.65L166.76 287.34C166.55 290.91 167.76 293.2 168.45 293.88L149.45 292.75C151.005 291.021 151.876 288.785 151.9 286.46L154.11 249.37C154.362 247.057 153.761 244.731 152.42 242.83L187.23 244.91L189.47 258.85C186.522 257.646 183.398 256.93 180.22 256.73L168.6 256.03L168.08 264.81L174.38 265.18Z" fill="#183F3C"/>
<path d="M220.63 261.85L215.86 293.43C215.464 295.507 215.887 297.657 217.04 299.43L198.25 296.59C199.07 295.927 199.75 295.107 200.25 294.178C200.75 293.249 201.059 292.23 201.16 291.18L205.94 259.6L202.83 259.13C199.61 258.659 196.337 258.699 193.13 259.25L199.44 246.19L230.74 250.92L232.9 265.27C230.002 263.785 226.887 262.773 223.67 262.27L220.63 261.85Z" fill="#183F3C"/>
<path d="M284.63 263.71C281.939 265.251 279.564 267.287 277.63 269.71L260.18 290.8L257.42 301.8C256.748 304.027 256.908 306.422 257.87 308.54L239.44 303.92C241.285 302.506 242.554 300.47 243.01 298.19L245.77 287.19L240.77 260.68C240.263 257.556 239.131 254.566 237.44 251.89L255.95 256.53C255.337 258.41 255.066 260.384 255.15 262.36L255.62 278.36L264.14 264.36C265.133 262.727 265.812 260.923 266.14 259.04L284.63 263.71Z" fill="#183F3C"/>
</g>
<g clip-path="url(#clip1_24_2)">
<path d="M170.53 163.82C166.44 164.82 162.34 164.53 158.25 165.57C158.06 157.41 157.6 149.33 154.13 141.83C153.03 139.44 149.3 137.41 148.13 135.07C147.2 133.07 147.61 132.42 147.6 130.23C147.59 128.04 148.74 124.8 149.36 122.69C156.36 98.98 161.52 100.13 169.61 88.05C170.81 86.26 173.43 82.23 174.7 80.48C181.701 83.0223 188.074 87.0388 193.388 92.2577C198.701 97.4766 202.832 103.776 205.5 110.73C207.237 115.313 208.627 120.019 209.66 124.81C210.99 130.43 212.15 136.57 209.66 141.81C207.44 146.47 202.8 149.37 198.56 152.3C197.572 152.861 196.756 153.68 196.2 154.67C195.88 155.37 188.63 159.22 187.98 159.67C184.57 161.78 175.96 164.44 170.53 163.82Z" fill="#183F3C"/>
<path d="M167.99 164.48C168.426 164.47 168.858 164.393 169.27 164.25C169.575 164.112 169.858 163.93 170.11 163.71C171.843 162.216 173.446 160.577 174.9 158.81C175.533 158.149 176.075 157.405 176.51 156.6C177.104 155.05 177.188 153.351 176.75 151.75C176.586 150.538 176.203 149.366 175.62 148.29C175.374 147.852 175.042 147.468 174.643 147.162C174.244 146.856 173.787 146.634 173.3 146.51C172.601 146.395 171.889 146.395 171.19 146.51L160.99 147.67C159.927 147.763 158.873 147.944 157.84 148.21C157.33 148.307 156.868 148.575 156.53 148.97C156.346 149.332 156.303 149.749 156.41 150.14L157.72 158.57L158.27 162.12C158.44 163.26 158.81 165.05 160.63 165.12C163.03 165.13 165.61 164.68 167.99 164.48Z" fill="#F7C4CA"/>
<path d="M143.84 177.69C149.25 177.79 155.01 174.62 156.56 169.34C157.04 167.378 157.219 165.355 157.09 163.34C157 156.57 156.68 149.4 153.01 143.76C151.36 141.07 148.819 139.043 145.83 138.03C144.331 137.563 142.735 137.502 141.205 137.853C139.675 138.204 138.265 138.956 137.12 140.03C134.98 142.16 134.28 145.38 134.26 148.42C134.24 151.46 134.81 154.47 134.78 157.5C134.72 162.07 131.5 167.24 132.03 171.61C132.6 176.26 140.15 177.62 143.84 177.69Z" fill="#8C712E"/>
<path d="M121.89 168.85C122.841 169.334 123.905 169.554 124.97 169.49C126.97 169.19 128.08 167.12 128.78 165.25C130.762 160.008 131.828 154.464 131.93 148.86C131.837 146.728 132.001 144.593 132.42 142.5C132.636 141.454 133.104 140.476 133.781 139.651C134.459 138.825 135.326 138.176 136.31 137.76C138.4 137.04 141.11 137.69 142.55 136.03C143 135.436 143.32 134.755 143.49 134.03L151.61 108.51C152.072 106.786 152.769 105.134 153.68 103.6C154.845 102.02 156.24 100.625 157.82 99.46L171.02 88.65C172.51 87.44 174.07 86.11 174.61 84.26C175.15 82.41 174.06 79.99 172.14 79.91C171.441 79.929 170.756 80.1104 170.14 80.44C158.73 85.56 150.35 95.87 139.14 101.35C135.87 102.94 132.2 104.12 128.62 103.46C125.04 102.8 121.7 99.8 121.69 96.15C121.69 95.56 121.69 94.82 121.17 94.54C120.999 94.4751 120.815 94.4478 120.632 94.4598C120.45 94.4719 120.271 94.5231 120.11 94.61C119.057 95.0887 118.215 95.9343 117.74 96.9888C117.265 98.0432 117.191 99.2345 117.53 100.34C117.95 101.58 118.92 102.84 118.42 104.05C117.85 105.46 115.71 105.62 115.04 106.99C114.5 108.09 115.17 109.38 115.19 110.61C115.19 113.21 112.47 114.8 110.66 116.67C108.33 119.1 107.38 122.5 106.52 125.76L100.35 148.97C99.47 152.27 98.63 155.97 100.24 158.97C102.18 162.61 106.24 163.19 109.84 164.21C113.931 165.555 117.953 167.103 121.89 168.85Z" fill="#E2DCCA"/>
<path d="M96.41 112.17C96.8023 112.628 97.3098 112.973 97.88 113.17C99.35 113.5 100.46 111.94 101.41 110.77C103.076 108.824 105.375 107.527 107.903 107.108C110.431 106.689 113.025 107.175 115.23 108.48C114.03 112.48 110.18 114.99 108.28 118.66C106.89 121.34 106.64 124.44 106.28 127.43C105.265 135.626 103.216 143.66 100.18 151.34C99.04 154.2 97.06 157.49 93.98 157.34C93.0925 151.825 92.9177 146.219 93.46 140.66C93.7853 138.848 93.7853 136.992 93.46 135.18C93.0807 134.021 92.5953 132.9 92.01 131.83C88.62 124.69 89.23 116.4 89.91 108.53C90.29 103.48 95.41 111.14 96.41 112.17Z" fill="#183F3C"/>
<path d="M117.33 105.63C120.4 103.74 120.45 99.43 120.94 95.86C120.979 95.2658 121.175 94.6927 121.51 94.2C121.93 93.7955 122.474 93.544 123.055 93.4859C123.635 93.4279 124.218 93.5667 124.71 93.88C125.676 94.5283 126.58 95.2648 127.41 96.08C131.94 99.7401 138.86 97.92 143.57 94.5C148.28 91.08 152 86.28 157.13 83.5C161.42 81.18 166.94 80.05 169.19 75.73C171.76 70.79 168.46 64.8201 169.06 59.2901C169.77 52.6701 175.73 48.07 181.06 44.02C186.39 39.97 191.94 34.58 191.4 27.95L178.16 26.52C174.57 26.14 170.87 25.76 167.42 26.83C163.81 27.94 160.83 30.54 157.28 31.83C153.28 33.29 137.8 35.1 137.5 37.89C137.28 39.95 135.01 41.0301 133.07 41.7201C129.87 42.8701 126.56 44.03 123.17 43.82C115.9 43.38 109.37 36.75 102.31 38.56C100.414 39.0906 98.7283 40.1957 97.4855 41.7231C96.2428 43.2506 95.5037 45.1255 95.3699 47.0901C95.3051 49.0554 95.8511 50.9926 96.9328 52.6349C98.0144 54.2771 99.5786 55.5436 101.41 56.26C103.03 56.85 104.86 57.0001 106.25 58.0301C109.62 60.5201 108.25 66.12 110.73 69.49C112.07 71.3 114.29 72.16 116.23 73.32C118.17 74.48 120.04 76.3201 119.82 78.6001C119.65 80.2401 118.41 81.5301 117.19 82.6001C114.486 85.0696 111.545 87.2669 108.41 89.1601C105.874 90.4812 103.464 92.0309 101.21 93.7901C97.5199 97.0201 94.9799 105.35 101.6 106.95C103.67 107.45 106.39 106.17 108.51 106.12C111.41 106.05 114.61 107.26 117.33 105.63Z" fill="#F7C4CA"/>
<path d="M159.32 128.83C159.188 129.371 158.941 129.877 158.596 130.313C158.251 130.75 157.816 131.107 157.32 131.36C156.695 131.641 156.041 131.853 155.37 131.99C155.026 132.087 154.662 132.09 154.317 131.998C153.972 131.907 153.657 131.724 153.406 131.47C153.155 131.216 152.976 130.899 152.889 130.553C152.802 130.206 152.809 129.843 152.91 129.5C153.05 128.83 153.19 128.17 153.32 127.5C153.394 127.081 153.554 126.682 153.791 126.328C154.028 125.975 154.336 125.675 154.696 125.447C155.055 125.219 155.458 125.069 155.879 125.006C156.3 124.943 156.729 124.968 157.14 125.08C157.826 125.429 158.396 125.969 158.782 126.634C159.169 127.299 159.356 128.062 159.32 128.83ZM156.32 128.72L155.8 128.11C155.7 128.23 155.48 128.39 155.51 128.47C155.606 128.704 155.73 128.926 155.88 129.13L156.32 128.72Z" fill="#373636"/>
<path d="M160.99 117.58C161.034 118.099 160.955 118.62 160.76 119.103C160.566 119.586 160.261 120.016 159.87 120.36C159.645 120.596 159.372 120.782 159.07 120.906C158.769 121.03 158.444 121.089 158.118 121.08C157.792 121.07 157.471 120.992 157.177 120.851C156.883 120.71 156.621 120.509 156.41 120.26C154.99 118.91 155.24 115.89 156.62 114.69C157.034 114.295 157.548 114.02 158.107 113.897C158.666 113.774 159.248 113.806 159.79 113.99C160.248 114.218 160.621 114.587 160.855 115.042C161.089 115.497 161.171 116.015 161.09 116.52C161.06 116.85 161.02 117.17 160.99 117.58ZM158.41 116.26C158.31 116.32 158.11 116.38 158.11 116.41C158.133 116.654 158.201 116.891 158.31 117.11C158.56 117.52 158.04 118.43 158.64 118.35C159.48 118.23 158.86 117.48 158.79 117C158.781 116.811 158.751 116.623 158.7 116.44C158.64 116.32 158.48 116.26 158.41 116.26Z" fill="#373636"/>
<path d="M171.92 38.07C172.13 37.42 172.36 36.78 172.55 36.12C172.74 35.46 172.38 35.24 171.83 35.38C171.467 35.4648 171.131 35.6419 170.856 35.8941C170.581 36.1464 170.376 36.4652 170.26 36.82C169.52 38.74 168.66 40.62 167.94 42.54C167.865 42.7458 167.729 42.9239 167.551 43.0507C167.372 43.1775 167.159 43.247 166.94 43.25C166.71 43.25 166.29 42.82 166.2 42.51C166.065 42.0293 166.065 41.5208 166.2 41.04C166.56 39.85 167.05 38.7 167.45 37.52C167.5 37.2288 167.5 36.9313 167.45 36.64C167.151 36.6592 166.859 36.7373 166.59 36.87C166.195 37.1498 165.881 37.5294 165.68 37.97C164.79 40.63 163.99 43.32 163.11 45.97C162.922 46.497 162.645 46.9876 162.29 47.42C162.209 47.559 162.09 47.6718 161.946 47.7449C161.803 47.8181 161.642 47.8486 161.482 47.8328C161.322 47.817 161.17 47.7556 161.043 47.6558C160.917 47.5561 160.822 47.4221 160.77 47.27C160.596 46.9704 160.485 46.6386 160.444 46.2947C160.403 45.9509 160.432 45.6022 160.53 45.27C161.09 43.49 161.68 41.71 162.26 39.94C162.341 39.7692 162.395 39.5871 162.42 39.4C162.41 39.2254 162.347 39.058 162.24 38.92C162.185 38.8935 162.126 38.8797 162.065 38.8797C162.004 38.8797 161.945 38.8935 161.89 38.92C160.89 39.82 159.37 40.19 158.84 41.65C158.65 42.18 158.15 42.55 157.65 42.28C157.182 41.9957 156.829 41.5572 156.65 41.04C156.562 40.7319 156.567 40.4049 156.662 40.0992C156.758 39.7935 156.942 39.5226 157.19 39.32C158.784 37.7834 160.64 36.544 162.67 35.66C164.5 34.99 166.26 34.12 168.13 33.59C170.053 33.0634 172.011 32.6757 173.99 32.43C176.28 32.11 178.6 32.05 180.88 31.72C181.981 31.4824 183.058 31.1477 184.1 30.72C184.52 30.5231 184.959 30.369 185.41 30.26C185.71 30.26 186.04 30.5 186.35 30.64C186.2 30.96 186.14 31.43 185.89 31.59C184.81 32.24 183.7 32.81 182.57 33.37C181.9 33.7 181.18 33.95 180.47 34.22C179.76 34.49 179.07 34.75 179.07 35.76C179.012 36.1993 178.799 36.6036 178.47 36.9C178.341 37.0298 178.183 37.128 178.01 37.187C177.836 37.246 177.652 37.2641 177.47 37.24C177.19 37.16 176.97 36.76 176.78 36.46C176.7 36.32 176.78 36.09 176.78 35.9C176.78 35.46 176.93 34.97 176.25 34.9C175.57 34.83 175.12 34.9 174.91 35.64C174.59 36.64 174.26 37.64 173.91 38.64C173.82 38.92 173.68 39.32 173.46 39.41C173.06 39.5561 172.626 39.5839 172.21 39.49C172.07 39.49 172.02 38.96 171.97 38.67C171.95 38.4805 171.95 38.2895 171.97 38.1L171.92 38.07Z" fill="#373636"/>
<path d="M104.6 48.46C103.53 48.37 102.91 47.74 103.03 46.85C103.05 46.527 103.137 46.2117 103.285 45.9244C103.434 45.6371 103.641 45.384 103.894 45.1816C104.146 44.9791 104.438 44.8316 104.751 44.7487C105.064 44.6658 105.39 44.6492 105.71 44.7C106.149 44.7915 106.535 45.0531 106.782 45.4278C107.03 45.8025 107.119 46.2599 107.03 46.7C106.912 47.2409 106.599 47.7195 106.151 48.0442C105.703 48.3689 105.151 48.5169 104.6 48.46Z" fill="#373636"/>
<path d="M102.65 44.87C102.633 45.3214 102.493 45.7597 102.247 46.1383C102 46.5169 101.656 46.8216 101.25 47.02C101.027 47.1837 100.756 47.2668 100.48 47.2559C100.203 47.245 99.9391 47.1407 99.73 46.96C99.5963 46.9037 99.4754 46.8209 99.3744 46.7168C99.2734 46.6127 99.1944 46.4893 99.1421 46.3539C99.0898 46.2186 99.0654 46.0741 99.0702 45.9291C99.075 45.7841 99.1089 45.6416 99.17 45.51C99.4566 44.6577 100.053 43.944 100.84 43.51C101.91 43.08 102.72 43.6 102.65 44.87Z" fill="#373636"/>
<path d="M129.99 105.65C129.904 105.159 129.979 104.652 130.204 104.207C130.429 103.762 130.793 103.401 131.24 103.18C131.45 103.05 131.94 103.02 132.05 103.18C132.63 103.89 133.42 104.42 133.55 105.5C133.691 106.033 133.627 106.599 133.372 107.087C133.116 107.576 132.688 107.951 132.17 108.14C131.929 108.262 131.661 108.319 131.391 108.306C131.122 108.292 130.861 108.209 130.633 108.063C130.406 107.918 130.221 107.715 130.096 107.476C129.971 107.237 129.91 106.97 129.92 106.7C129.92 106.349 129.943 105.998 129.99 105.65Z" fill="#373636"/>
<path d="M110.3 65.33C110.88 66.13 111.56 65.54 112.17 65.39C114.027 64.9373 115.974 65.0135 117.79 65.61C119.553 66.1718 121.452 66.1352 123.192 65.5058C124.932 64.8764 126.415 63.6896 127.41 62.13C127.69 61.67 128 61.24 128.32 60.78C127.737 60.301 127.211 59.7575 126.75 59.16C126.634 58.9346 126.566 58.6875 126.551 58.4344C126.535 58.1814 126.572 57.9279 126.66 57.69C126.76 57.44 127.5 57.24 127.86 57.35C131.23 58.35 134.34 59.73 135.95 63.14C136.097 63.7962 136.127 64.4732 136.04 65.14C135.381 65.1342 134.736 64.9437 134.179 64.5902C133.622 64.2367 133.176 63.7343 132.89 63.14C132.725 62.7977 132.501 62.4865 132.23 62.22C131.59 61.57 131.23 61.66 130.7 62.51C129.783 63.9667 128.586 65.2268 127.179 66.2173C125.771 67.2078 124.181 67.909 122.5 68.28C120.601 68.5381 118.669 68.3916 116.83 67.85C115.424 67.4756 113.945 67.478 112.54 67.8572C111.136 68.2364 109.856 68.9789 108.83 70.01C108.72 70.12 108.63 70.24 108.52 70.35" fill="#373636"/>
<path d="M150.16 73.61C150.559 73.2139 150.934 72.7931 151.28 72.3501C151.363 72.2769 151.43 72.1868 151.475 72.086C151.521 71.9851 151.544 71.8757 151.544 71.765C151.544 71.6544 151.521 71.545 151.475 71.4441C151.43 71.3432 151.363 71.2532 151.28 71.18C150.96 70.79 150.66 70.62 150.17 70.88C149.9 71.02 149.51 70.9801 149.29 71.1601C147.37 72.7901 145.09 73.99 143.48 76.02C142.827 76.7052 142.067 77.2794 141.23 77.7201C138.843 79.3406 136.204 80.5537 133.42 81.31C131.32 81.8 129.19 81.72 127.12 82.19C126.5 82.194 125.887 82.0537 125.33 81.78C125.03 81.69 124.79 81.4301 124.49 81.3501C124.258 81.2363 123.993 81.2049 123.741 81.2613C123.488 81.3176 123.262 81.4583 123.1 81.6601C122.896 81.8724 122.782 82.1555 122.782 82.45C122.782 82.7446 122.896 83.0277 123.1 83.24C123.679 83.7546 124.358 84.1437 125.095 84.383C125.831 84.6222 126.609 84.7063 127.38 84.63L131.45 84.3501C131.78 84.3001 135.83 83.3501 135.83 83.3501C139.248 82.2231 142.399 80.4093 145.09 78.02C146.78 76.52 148.49 75.09 150.16 73.61Z" fill="#373636"/>
<path d="M89.4101 159.33C89.41 159.687 89.5506 160.03 89.8013 160.285C90.0521 160.539 90.3929 160.685 90.7501 160.69C91.4559 160.738 92.1642 160.738 92.8701 160.69C94.4499 160.112 95.987 159.424 97.4701 158.63C97.7301 158.51 97.9801 158.27 98.3001 158.63C101.38 162.13 105.45 164.09 109.61 165.93C111.5 166.77 113.3 167.81 115.2 168.61C116.75 169.27 118.39 169.7 119.98 170.25C121.9 170.89 123.98 170.78 125.84 171.76C125.939 171.81 126.05 171.83 126.16 171.82C127.79 171.66 128.56 172.63 129.4 173.82C130.6 175.62 132.56 176.67 134.27 177.95C136.438 179.466 138.925 180.462 141.54 180.86C143.664 181.167 145.83 180.818 147.75 179.86C148.61 179.48 149.5 179.17 150.38 178.86C152.205 178.172 153.955 177.298 155.6 176.25C156.315 175.82 156.859 175.155 157.14 174.37C157.3 173.93 157.566 173.536 157.915 173.224C158.264 172.911 158.685 172.69 159.14 172.58C159.14 172.58 164.2 171.29 165.03 169.67C165.47 168.77 166.046 167.943 166.74 167.22L169.04 166.22C169.976 166.083 170.899 165.869 171.8 165.58C171.99 165.58 172.24 165.48 172.34 165.58C173.62 166.66 174.89 166.34 176.23 165.65C176.731 165.407 177.274 165.264 177.83 165.23C179.88 165.004 181.895 164.531 183.83 163.82C186.237 163.094 188.542 162.066 190.69 160.76C192.03 159.93 193.27 158.94 194.55 158.02L195.03 157.73C195.08 157.9 196.97 155.85 196.97 156.02L199.35 154.2C200.51 153.32 201.69 152.46 202.83 151.55C203.819 150.856 204.728 150.054 205.54 149.16C208.24 145.76 210.82 142.24 212.18 138.05C212.71 136.44 213.28 134.74 212.44 132.95C212.17 132.177 212.084 131.352 212.19 130.54C212.233 128.782 212.058 127.025 211.67 125.31C211.36 123.67 210.99 122.04 210.61 120.41C210.08 118.21 209.61 115.98 208.93 113.84C208.12 111.43 207.03 109.1 206.07 106.74C204.462 102.904 202.608 99.1766 200.52 95.58C198.346 91.7898 195.076 88.7464 191.14 86.85C189.502 86.0231 187.925 85.0807 186.42 84.03C183.665 82.0561 180.709 80.38 177.6 79.03C176.449 78.5703 175.374 77.9399 174.41 77.16C173.16 76.16 172.05 74.91 172.18 72.95C172.135 71.8864 171.815 70.8527 171.25 69.95C170.65 68.82 169.92 67.8 170.78 66.5C170.846 66.3157 170.846 66.1143 170.78 65.93C170.43 64.1 170.56 62.16 169.66 60.44C169.251 59.8858 168.936 59.2673 168.73 58.61C168.63 57.75 169.79 57.88 170.18 57.31C171.3 55.65 172.72 54.19 173.39 52.23C173.89 50.75 174.6 49.34 175.12 47.88C175.169 47.6774 175.281 47.4952 175.438 47.3589C175.596 47.2227 175.792 47.1391 176 47.12C177.744 46.8821 179.384 46.1539 180.73 45.02L182.48 43.51C183.191 42.9353 183.78 42.2244 184.213 41.4191C184.646 40.6137 184.913 39.7301 185 38.82C185.019 38.5437 185.11 38.2771 185.262 38.0459C185.414 37.8147 185.624 37.6266 185.87 37.5C188.13 36.02 190.49 34.69 192.29 32.58C193.255 31.2609 194.017 29.8047 194.55 28.26C194.91 27.3382 195.02 26.338 194.87 25.36C194.67 23.76 194.01 23.25 192.49 23.7C191.378 24.1175 190.23 24.4322 189.06 24.64C186.937 24.8633 184.805 24.9767 182.67 24.98C180.415 24.9885 178.17 24.6822 176 24.07C173.159 23.3728 170.207 23.2571 167.32 23.73C164.543 24.1037 161.883 25.0872 159.53 26.61C158.84 27.0273 158.07 27.2964 157.27 27.4C155.436 27.5398 153.623 27.875 151.86 28.4C150.665 28.7603 149.499 29.2081 148.37 29.74C148.137 29.8733 147.865 29.925 147.599 29.887C147.333 29.849 147.087 29.7234 146.9 29.53C144.4 27.6228 141.668 26.0402 138.77 24.82C137.896 24.453 136.938 24.332 136 24.47C135.698 24.5452 135.39 24.592 135.08 24.61C132.54 24.37 130.39 36.15 130.62 36.33C130.85 36.51 131.94 37.95 131.56 38.13L129.88 38.91L128.57 39.13L129.01 39.3C128.55 39.51 128.08 39.72 127.6 39.92C125.404 40.8937 122.981 41.2398 120.6 40.92C117.883 40.4544 115.242 39.6201 112.75 38.44C111.65 37.94 110.69 37.09 109.44 36.99C108.65 36.9403 107.879 36.7222 107.18 36.35C106.002 35.7439 104.695 35.4276 103.37 35.4276C102.045 35.4276 100.739 35.7439 99.5601 36.35C98.3372 37.0182 97.2353 37.8869 96.3001 38.92C95.5615 39.6052 94.9578 40.4226 94.5201 41.33C93.7909 42.731 93.394 44.281 93.3601 45.86C93.3314 47.0517 93.3782 48.2441 93.5001 49.43C94.0801 52.9 95.4201 55.92 98.7801 57.63C99.3698 57.9835 99.9928 58.2782 100.64 58.51C101.521 58.7578 102.325 59.2256 102.976 59.8693C103.626 60.513 104.103 61.3116 104.36 62.19C104.816 63.5054 105.526 64.7183 106.45 65.76C106.816 66.1854 107.073 66.6933 107.2 67.24C107.646 68.766 108.411 70.1796 109.446 71.3867C110.48 72.5937 111.76 73.5663 113.2 74.24C113.685 74.4458 114.121 74.7518 114.479 75.1378C114.838 75.5238 115.111 75.9812 115.28 76.48C116.15 78.97 115.95 79.72 113.82 81.19C111.22 82.96 108.63 84.76 106.01 86.51C104.833 87.131 103.809 88.0054 103.01 89.07C102.813 89.3194 102.568 89.5267 102.29 89.68C98.5526 92.0837 95.4868 95.3973 93.3801 99.31C92.6743 100.598 91.8257 101.802 90.8501 102.9C90.2858 103.534 89.8297 104.257 89.5001 105.04C88.8854 106.369 88.5161 107.799 88.4101 109.26C88.3328 111.124 88.1391 112.981 87.8301 114.82C87.6087 116.356 87.5217 117.909 87.5701 119.46C87.687 121.963 88.1136 124.442 88.8401 126.84C89.6442 130.145 90.8675 133.335 92.4801 136.33C92.6055 136.525 92.6859 136.746 92.7153 136.976C92.7447 137.206 92.7224 137.44 92.6501 137.66C91.9401 140.11 91.5701 142.66 91.1101 145.15C90.7195 146.381 90.6303 147.688 90.8501 148.96C90.8838 149.149 90.8838 149.342 90.8501 149.53C90.5901 151.53 90.3001 153.53 90.0501 155.53L89.4101 159.33ZM147.07 34.51C148.45 34.69 149.34 33.82 150.26 33.01C150.557 32.7592 150.895 32.5628 151.26 32.43C151.498 32.3899 151.742 32.3899 151.98 32.43C151.928 32.631 151.84 32.8207 151.72 32.99C150.8 33.9 149.86 34.78 148.95 35.71L142.77 36.71C144.17 35.98 145.62 35.26 147.07 34.51ZM111.57 88.09C112.46 87.51 113.4 86.99 114.28 86.39C115.16 85.79 116.14 85.07 117.04 84.39C117.94 83.71 117.84 83.76 118.53 84.56C119.855 86.2578 121.386 87.7831 123.09 89.1C125.54 90.78 128.02 92.1 131.14 91.46C132.389 91.3261 133.644 91.2627 134.9 91.27C138.202 91.1846 141.363 89.9098 143.8 87.68C144.32 87.18 144.56 86.78 144.13 86.05C143.81 85.3804 143.581 84.6707 143.45 83.94C143.3 83.38 143.03 82.99 142.45 83.02C141.87 83.05 141.58 83.47 141.54 84.02C141.546 84.0832 141.546 84.1468 141.54 84.21C141.46 84.64 141.54 85.21 141.26 85.44C140.866 85.691 140.407 85.8229 139.94 85.82C139.625 85.8961 139.292 85.8455 139.013 85.6791C138.735 85.5127 138.533 85.2438 138.45 84.93C138.436 84.6829 138.371 84.4413 138.26 84.22C137.98 83.82 137.73 83.29 137.1 83.38C136.47 83.47 136.62 84.17 136.55 84.61C136.475 85.177 136.435 85.7481 136.43 86.32C136.451 86.5063 136.406 86.6941 136.301 86.8498C136.197 87.0055 136.041 87.119 135.86 87.17C135.28 87.38 134.98 87.27 134.53 86.52C134.324 86.2384 134.146 85.9369 134 85.62C133.88 85.11 133.72 84.94 132.85 84.99C131.98 85.04 132.18 85.67 132.18 85.67C132.28 86.16 132.37 86.67 132.43 87.15C132.43 87.27 132.16 87.54 131.98 87.56C130.98 87.69 130.57 87.32 130.34 86.33C130.21 85.8 129.84 85.56 129.08 85.66C128.32 85.76 128.34 86.29 128.34 86.29C128.361 86.4159 128.361 86.5442 128.34 86.67C128.25 86.88 127.94 87.67 127.81 87.67C126.953 87.4458 126.129 87.1095 125.36 86.67L122.86 84.36C121.27 83.14 121.17 82.07 120.47 80.23C120.178 79.2851 119.81 78.3655 119.37 77.48C118.795 76.3631 118.416 75.1555 118.25 73.91C118.175 73.2517 117.9 72.6323 117.462 72.1352C117.024 71.6381 116.444 71.2873 115.8 71.13C114.718 70.7783 113.737 70.1711 112.94 69.36C112.715 69.1612 112.523 68.9284 112.37 68.67C111.991 68.027 111.657 67.3587 111.37 66.67L110.41 65.26C110.028 64.4845 109.694 63.6864 109.41 62.87C108.83 61.55 108.3 60.2 107.72 58.87C107.343 57.8702 106.871 56.9091 106.31 56C105.864 55.4825 105.271 55.1128 104.61 54.94C103.927 54.7927 103.228 54.7356 102.53 54.77C102.055 54.7605 101.588 54.6504 101.159 54.447C100.729 54.2436 100.348 53.9515 100.04 53.59C98.6057 51.9877 97.6283 50.0294 97.2101 47.92C96.8111 46.4257 97.0046 44.8351 97.7501 43.48C98.4781 42.2786 99.5664 41.3374 100.86 40.79C102.023 40.3376 103.216 39.9666 104.43 39.68C104.611 39.6238 104.802 39.6047 104.991 39.6236C105.18 39.6425 105.363 39.6991 105.53 39.79C106.68 40.79 108.24 41.09 109.26 42.29C110.003 43.1231 110.456 44.1736 110.554 45.2854C110.651 46.3972 110.387 47.5106 109.8 48.46C109.21 49.36 108.8 50.58 107.41 50.6C106.634 51.4175 105.922 52.2934 105.28 53.22C105.1 53.52 105.48 54.22 105.74 54.71C106 55.2 106.47 55.07 106.93 54.89C108.152 54.3355 109.222 53.4952 110.05 52.44C111.512 50.9578 112.548 49.11 113.05 47.09C113.18 46.41 113.29 45.73 113.37 45.09C113.48 44.16 113.71 43.96 114.56 44.24C116.04 44.74 117.5 45.24 118.97 45.8C119.358 46.0032 119.793 46.0965 120.23 46.07C122.33 45.44 124.53 45.41 126.66 44.86C129.37 44.18 131.6 42.73 134 41.52L135.07 41C138.13 41.65 141.73 42 144.53 41.19C146.323 40.6871 148.056 39.9931 149.7 39.12C149.975 39.0038 150.234 38.8526 150.47 38.67L150.59 38.57C150.873 38.3941 151.135 38.1861 151.37 37.95C153.51 36.26 155.64 34.56 157.71 32.79C159.433 31.2019 161.451 29.9685 163.65 29.16C164.544 28.8855 165.461 28.6913 166.39 28.58C168.999 28.1285 171.678 28.3137 174.2 29.12C176.211 29.6677 178.306 29.8439 180.38 29.64C180.819 29.5951 181.259 29.575 181.7 29.58C184.208 29.7925 186.735 29.5966 189.18 29C189.39 29 189.65 29.09 189.88 29.14L189.55 29.58C187.94 31.6383 185.921 33.3408 183.62 34.58C182.868 34.8855 182.214 35.3924 181.73 36.0451C181.247 36.6978 180.953 37.4711 180.88 38.28C180.686 38.9997 180.295 39.6509 179.75 40.16C178.96 41.06 178.05 41.85 177.23 42.73C176.623 43.2954 175.82 43.6037 174.99 43.59C174.14 43.5845 173.316 43.8843 172.668 44.4349C172.02 44.9854 171.592 45.7501 171.46 46.59C171.13 47.91 170.46 49.15 170.14 50.48C169.729 51.9437 168.868 53.2414 167.68 54.19C166.89 54.93 166.01 55.58 165.22 56.32C164.937 56.5437 164.703 56.8247 164.536 57.1445C164.368 57.4644 164.27 57.816 164.247 58.1764C164.224 58.5368 164.278 58.898 164.404 59.2363C164.531 59.5747 164.727 59.8826 164.98 60.14C165.863 61.2925 166.484 62.6233 166.8 64.04C167.149 65.1249 167.099 66.2985 166.66 67.35C166.31 68.21 165.79 69.21 166.51 70.17C166.788 70.5212 167.126 70.8194 167.51 71.05C167.716 71.1894 167.882 71.3796 167.992 71.6021C168.103 71.8246 168.154 72.0719 168.14 72.32C168.3 73.87 168.55 75.41 168.8 76.95C168.98 78.09 168.89 78.39 167.89 78.95C164.14 81.13 160.38 83.29 156.64 85.47C155.77 85.97 154.93 86.47 154.07 87.05L149.78 90.74C146.387 93.7696 142.54 96.2496 138.38 98.09C137.096 98.6134 135.753 98.9761 134.38 99.17C132.96 99.39 131.5 99.36 130.06 99.44C127.72 99.44 126.11 98.22 124.74 96.58C123.287 95.0684 122.358 93.1297 122.09 91.05C122.055 90.7476 122.055 90.4424 122.09 90.14C122.32 88.85 121.74 87.99 120.66 88.35C120.279 88.4777 119.873 88.5116 119.476 88.4489C119.079 88.3862 118.703 88.2288 118.38 87.99C118.074 87.8254 117.727 87.7525 117.38 87.78C115.53 88.02 113.68 88.3 111.82 88.57C111.717 88.584 111.613 88.584 111.51 88.57C111.41 88.41 111.41 88.17 111.57 88.09ZM121.48 97.98C120.1 98.14 119.7 96.93 118.98 96.19C118.98 96.19 118.98 95.96 119.04 95.89C119.165 95.7163 119.33 95.576 119.522 95.4815C119.713 95.387 119.925 95.3412 120.139 95.3481C120.352 95.355 120.561 95.4144 120.746 95.5212C120.931 95.6279 121.087 95.7786 121.2 95.96C121.44 96.32 121.64 96.72 121.87 97.09C122.1 97.46 122.22 97.62 122.39 97.88L121.48 97.98ZM123.2 104.86C124.26 106.47 124.38 108.4 125 110.17C125.106 110.539 125.074 110.933 124.91 111.28C124.83 111.47 124.37 111.46 124.12 111.6C123.12 112.2 122.12 112.81 121.05 113.42C120.84 113.55 120.64 113.7 120.43 113.84L120.25 113.02H120.44C120.69 110.74 120.92 108.46 121.18 106.18C121.289 105.76 121.419 105.346 121.57 104.94C121.7 104.33 121.79 103.71 121.89 103.1C122.33 103.68 122.8 104.26 123.2 104.86ZM118.9 104.8C118.9 105.12 118.9 105.43 118.82 105.74C118.789 105.861 118.738 105.976 118.67 106.08C118.611 105.979 118.564 105.872 118.53 105.76C118.38 105.16 118.28 104.55 118.11 103.96C118.02 103.66 118.01 103.45 118.38 103.53C118.59 103.53 118.9 103.71 118.94 103.87C118.976 104.18 118.963 104.494 118.9 104.8ZM96.8101 101.8C97.0587 101.598 97.2286 101.315 97.2901 101C97.6401 99 99.2301 98 100.62 96.82C101.308 96.2672 102.033 95.7626 102.79 95.31C105.403 93.6879 108.208 92.398 111.14 91.47C112.893 91.0171 114.669 90.6566 116.46 90.39C117.57 90.17 118.77 91.47 118.65 92.67C118.6 93.2 118.23 93.41 117.77 93.52L114.13 94.37C113.59 94.5 113.04 94.62 112.51 94.77C112.169 94.8395 111.859 95.0171 111.627 95.2765C111.394 95.5359 111.252 95.8632 111.22 96.21C111.17 96.71 112.34 97.65 112.99 97.72C113.99 97.82 114.99 97.9 115.99 97.95C116.401 97.9779 116.802 98.0877 117.169 98.2732C117.537 98.4587 117.864 98.7161 118.13 99.03C118.32 99.2029 118.449 99.4328 118.498 99.6851C118.547 99.9375 118.512 100.199 118.4 100.43C118.25 100.7 117.71 100.75 117.4 100.87C116.447 100.584 115.509 100.25 114.59 99.87C114.266 99.7509 113.915 99.7234 113.577 99.7905C113.238 99.8575 112.924 100.016 112.67 100.25C112.512 100.368 112.385 100.523 112.301 100.702C112.216 100.88 112.177 101.077 112.185 101.274C112.194 101.471 112.251 101.663 112.351 101.833C112.452 102.003 112.592 102.147 112.76 102.25C113.63 102.97 114.6 103.58 115.41 104.35C116.22 105.12 116.32 105.95 115.57 106.97C115.01 107.73 114.73 107.79 113.7 107.39C112.637 107.018 111.629 106.507 110.7 105.87C109.974 105.474 109.134 105.339 108.32 105.49C105.32 105.9 102.44 106.76 100.57 109.49C100.35 109.81 100.26 109.75 100.02 109.59C98.7981 108.786 97.8332 107.647 97.2401 106.31C96.9037 105.436 96.6133 104.545 96.3701 103.64C96.2201 102.93 95.9901 102.26 96.8101 101.79V101.8ZM101.68 136.15C100.93 136.33 101.03 135.41 100.77 134.99C100.35 134.3 100.1 133.5 99.6701 132.81C98.6701 131.22 99.6701 129.81 100.11 128.42C100.11 128.36 100.54 128.34 100.56 128.42C101.34 130.42 102.56 132.22 102.22 134.52C102.224 134.577 102.224 134.633 102.22 134.69C102.11 135.18 102.32 135.99 101.68 136.14V136.15ZM101.38 140.54C101.38 140.83 101.38 140.96 101.38 141.08L101.17 141.97C100.967 141.744 100.786 141.5 100.63 141.24C99.7901 139.56 98.9501 137.88 98.1701 136.17C97.9901 135.77 97.5201 135.35 97.9201 134.8C98.1147 134.509 98.2885 134.205 98.4401 133.89C98.7136 134.116 98.9587 134.375 99.1701 134.66C99.7001 135.58 100.23 136.5 100.68 137.47C101.13 138.44 101.74 139.48 101.41 140.53L101.38 140.54ZM100.94 126.35C100.9 126.23 100.9 126.1 100.94 125.98C101.03 125.63 101.15 125.28 101.25 124.93C101.497 125.162 101.718 125.42 101.91 125.7C102.37 126.6 102.81 127.51 103.18 128.44C103.299 128.826 103.369 129.226 103.39 129.63C103.28 129.91 103.21 130.08 103.14 130.24C102.99 130.13 102.78 130.04 102.71 129.89C102.1 128.71 101.52 127.53 100.94 126.34V126.35ZM103.58 126.11C103.19 125.26 102.79 124.4 102.33 123.59C101.7 122.48 102.21 121.59 102.77 120.66C102.834 120.63 102.904 120.615 102.975 120.615C103.046 120.615 103.116 120.63 103.18 120.66C103.75 121.66 104.29 122.75 104.83 123.8C104.871 123.943 104.888 124.092 104.88 124.24C104.6 124.86 104.31 125.55 103.98 126.24C103.76 126.63 103.7 126.34 103.58 126.1V126.11ZM104.03 118.65C103.922 118.282 103.858 117.903 103.84 117.52C103.838 117.275 103.858 117.031 103.9 116.79C103.966 116.643 104.047 116.502 104.14 116.37C104.24 116.46 104.38 116.52 104.42 116.62C105.02 118.01 105.61 119.4 106.18 120.8C106.259 121.037 106.259 121.293 106.18 121.53C106.04 121.812 105.872 122.08 105.68 122.33C105.514 122.101 105.37 121.856 105.25 121.6C104.8 120.61 104.41 119.64 104.03 118.64V118.65ZM104.86 114.44C104.78 114.33 104.86 114.07 104.93 113.9C105 113.73 105.12 113.77 105.22 113.71C105.32 113.65 105.48 113.78 105.53 113.86C106.22 115.24 106.92 116.62 107.58 118.03C107.65 118.19 107.46 118.48 107.39 118.71C107.14 118.57 106.75 118.49 106.68 118.29C106.226 116.937 105.615 115.641 104.86 114.43V114.44ZM106.59 112.65C106.4 112.08 106.93 111.25 107.14 110.54C107.27 110.61 107.5 110.64 107.53 110.74C107.77 111.37 107.98 112.02 108.18 112.68C108.45 113.57 108.71 114.46 108.94 115.36C108.97 115.599 108.97 115.841 108.94 116.08C108.88 116.22 108.83 116.34 108.77 116.45C108.67 116.45 108.52 116.38 108.47 116.3C107.739 115.137 107.11 113.912 106.59 112.64V112.65ZM108.33 109.19C108.33 109.04 108.64 108.61 108.81 108.61C109.249 108.565 109.691 108.662 110.071 108.887C110.451 109.112 110.749 109.453 110.92 109.86C111.109 110.323 111.333 110.771 111.59 111.2C111.647 111.267 111.72 111.319 111.802 111.351C111.884 111.382 111.973 111.392 112.06 111.38C112.19 111.38 112.32 111.14 112.36 110.98C112.405 110.743 112.421 110.501 112.41 110.26C112.41 109.57 112.72 109.84 113.1 110C114.1 110.42 114.04 110.35 113.39 111.15C112.44 112.31 111.15 113.15 110.49 114.58C110.49 114.66 110.29 114.69 110.19 114.75C110.09 114.81 109.92 114.65 109.89 114.57C109.41 112.75 108.81 110.97 108.33 109.18V109.19ZM94.3301 132.19C94.267 132.351 94.1935 132.508 94.1101 132.66C93.9701 132.54 93.7801 132.45 93.6901 132.3C92.8066 130.937 92.2552 129.385 92.0801 127.77C91.7201 124.22 91.0201 120.67 91.5601 117.07C91.9201 114.19 92.2701 111.31 92.6401 108.43C92.6401 108.23 92.8701 108.04 92.9901 107.85C93.1471 108.004 93.291 108.172 93.4201 108.35C94.2693 109.901 95.3984 111.28 96.7501 112.42C97.8132 113.186 99.0158 113.736 100.29 114.04C100.99 114.24 101.1 114.52 100.84 115.1C99.5501 117.87 98.8401 120.84 97.3101 123.55C95.7801 126.26 95.2301 129.26 94.3501 132.17L94.3301 132.19ZM96.9401 151.3L96.3501 150.73C95.9801 150.38 95.8201 149.5 95.1301 149.9C94.4401 150.3 95.1301 150.82 95.2601 151.26C95.4949 151.705 95.6793 152.174 95.8101 152.66C95.8372 153.143 95.7112 153.623 95.4501 154.03C95.333 154.181 95.1802 154.3 95.0057 154.376C94.8311 154.453 94.6402 154.485 94.4501 154.47C94.2401 154.42 93.9901 153.88 93.9901 153.56C93.9918 152.925 94.0286 152.291 94.1001 151.66C94.0401 151.66 94.0401 150.66 93.9801 150.66C94.2501 149.38 94.5201 148.09 94.8001 146.81C94.8569 146.657 94.9343 146.512 95.0301 146.38C95.1901 146.483 95.3321 146.611 95.4501 146.76C96.0101 147.67 96.5701 148.57 97.0701 149.51C97.1988 149.795 97.2438 150.11 97.2001 150.42C97.151 150.708 97.0705 150.99 96.9601 151.26L96.9401 151.3ZM98.2001 148.35C97.8917 148.161 97.6121 147.929 97.3701 147.66C96.7401 146.74 96.1701 145.77 95.5901 144.81C95.4834 144.662 95.4305 144.482 95.4401 144.3C95.5801 143.57 95.7501 142.85 95.9301 142.12C95.9301 142.02 96.0501 141.94 96.1201 141.85C96.2317 141.906 96.3332 141.98 96.4201 142.07C96.6361 142.39 96.8298 142.724 97.0001 143.07C97.5501 144.19 98.0801 145.31 98.6201 146.44C98.7001 146.61 98.8401 146.82 98.8001 146.96C98.6501 147.39 98.4101 147.86 98.2201 148.33L98.2001 148.35ZM99.7301 145.35C99.5388 145.202 99.3703 145.027 99.2301 144.83C98.4501 143.26 97.7401 141.65 96.9001 140.11C96.7123 139.717 96.6258 139.283 96.6485 138.849C96.6712 138.414 96.8024 137.991 97.0301 137.62C97.2201 137.17 97.3001 137.45 97.4101 137.7C98.3401 139.84 99.2901 141.96 100.23 144.09C100.288 144.306 100.325 144.527 100.34 144.75L99.7301 145.35ZM124.73 125.11C124.597 126.165 124.41 127.214 124.17 128.25C123.98 129.25 123.8 132.77 123.73 133.44C123.55 135.06 122.73 140.44 122.79 141.6C122.788 142.745 122.701 143.888 122.53 145.02C122.22 147.87 121.78 150.71 121.53 153.56C121.3 156.77 121.29 160 121.17 163.22C121.17 163.98 121.06 164.74 121.03 165.5C120.991 165.81 121.025 166.125 121.13 166.42C121.23 166.66 121.99 166.91 121.05 166.93C119.722 166.954 118.413 166.608 117.27 165.93C114.87 164.55 112.52 163.1 110.11 161.75C108.116 160.557 106.056 159.479 103.94 158.52C102.56 157.93 101.61 156.83 100.36 156.12C100.144 155.977 99.9889 155.758 99.9243 155.507C99.8597 155.256 99.8902 154.99 100.01 154.76C101.01 151.47 101.88 148.14 103.09 144.94C103.58 143.64 103.89 142.15 105.03 141.11C105.353 140.72 105.555 140.244 105.61 139.74C105.89 138.39 105.99 136.99 106.36 135.67C107.01 133.38 106.95 131.03 107.23 128.67C107.316 127.922 107.511 127.191 107.81 126.5C109.31 123.25 110.72 119.94 113.01 117.14C114.01 115.87 115.08 114.61 116.18 113.4C116.6 113.025 117.071 112.711 117.58 112.47C117.64 112.47 117.92 112.59 117.92 112.65C117.931 113.474 117.844 114.297 117.66 115.1C117.271 116.165 117.161 117.311 117.34 118.43C117.343 118.72 117.292 119.008 117.19 119.28C117.086 119.642 117.123 120.03 117.294 120.366C117.465 120.702 117.756 120.961 118.11 121.09C118.459 121.147 118.816 121.07 119.11 120.873C119.403 120.676 119.611 120.374 119.69 120.03C120.207 118.193 121.314 116.576 122.84 115.43C123.538 114.931 124.274 114.486 125.04 114.1C125.82 114.86 125.25 115.78 125.35 116.62C125.353 116.871 125.336 117.122 125.3 117.37C125.26 119.82 124.92 122.44 124.71 125.07L124.73 125.11ZM123.78 100.96C123.558 100.735 123.369 100.479 123.22 100.2C123.041 99.6482 122.891 99.0875 122.77 98.52L124.02 99.62C124.68 100.21 125.31 100.82 126.02 101.36C127.453 102.309 129.199 102.668 130.89 102.36C131.27 102.36 131.63 102.23 132 102.18C135.866 101.832 139.615 100.67 143 98.77C145.365 97.4328 147.589 95.8615 149.64 94.08L154.41 90.26C155.48 89.48 156.48 88.59 157.61 87.91C161.43 85.61 165.29 83.4 169.12 81.12C169.444 80.869 169.817 80.6872 170.214 80.5857C170.611 80.4842 171.025 80.4653 171.43 80.53C171.607 80.5678 171.775 80.6426 171.921 80.7494C172.068 80.8562 172.19 80.9928 172.28 81.15C172.322 81.3252 172.32 81.5081 172.275 81.6824C172.229 81.8568 172.142 82.0174 172.02 82.15C169.82 83.92 168.54 86.45 166.6 88.44C164.66 90.43 163.16 92.28 161.44 94.19C161.187 94.4782 160.89 94.7245 160.56 94.92C159.04 95.79 157.51 96.66 155.97 97.5L152.05 99C151.864 99.1498 151.663 99.2804 151.45 99.39C150.705 99.7256 149.928 99.9836 149.13 100.16C147.04 100.44 145.19 101.41 143.23 102.04C140.415 103.038 137.953 104.839 136.15 107.22C134.95 108.67 133.84 110.22 132.57 111.58C131.06 113.21 130.02 115.16 128.64 116.87C128.48 117.07 128.34 117.28 128.2 117.48C128.139 117.194 128.102 116.903 128.09 116.61C128.074 114.04 127.827 111.476 127.35 108.95C126.805 106.027 125.575 103.275 123.76 100.92L123.78 100.96ZM152.96 103.13C152.87 103.23 151.96 103.98 151.87 104.06C149.737 105.648 147.756 107.429 145.95 109.38C145.343 110.028 144.673 110.614 143.95 111.13C141.812 112.711 140.027 114.72 138.71 117.03C138.6 117.24 138.36 117.38 138.18 117.57C138.098 117.452 138.031 117.324 137.98 117.19C137.58 115.75 137.15 114.31 136.83 112.85C136.795 112.419 136.931 111.991 137.21 111.66C138.956 109.407 141.248 107.638 143.87 106.52C145.87 105.7 147.99 105.05 150.06 104.31C150.58 104.13 151.06 103.87 151.6 103.7C152.028 103.457 152.476 103.253 152.94 103.09L152.96 103.13ZM130.71 141.88C130.51 142.268 130.394 142.694 130.37 143.13C130.26 144.13 130.21 145.13 130.15 146.13C130.069 146.435 130.069 146.755 130.15 147.06C131.3 149.15 130.39 151.25 130.15 153.33C129.97 154.88 129.52 156.39 129.22 157.92C128.77 160.26 128.41 162.62 127.89 164.92C127.667 165.567 127.281 166.145 126.77 166.6C126.618 166.737 126.432 166.83 126.231 166.871C126.031 166.912 125.823 166.899 125.629 166.833C125.436 166.766 125.263 166.65 125.13 166.494C124.996 166.339 124.907 166.151 124.87 165.95C124.65 164.462 124.51 162.963 124.45 161.46C124.45 159.97 124.56 158.46 124.63 157.01C124.689 155.942 124.645 154.87 124.5 153.81C124.364 152.959 124.415 152.089 124.65 151.26C125.09 148.81 125.17 146.26 125.75 143.87C126.25 141.75 126.2 139.6 126.55 137.49C126.94 135.08 127.46 132.68 127.95 130.29C128.21 129.07 128.62 127.88 128.82 126.65C129.459 122.994 130.919 119.53 133.09 116.52C133.51 115.91 133.98 115.32 134.42 114.72C134.65 115.46 134.91 116.18 135.1 116.93C135.45 118.32 135.76 119.72 136.1 121.12C136.1 121.24 136.1 121.38 136.1 121.5C136.145 121.848 136.305 122.172 136.555 122.418C136.805 122.665 137.131 122.82 137.48 122.86C137.823 122.884 138.166 122.8 138.459 122.621C138.753 122.442 138.984 122.176 139.12 121.86C139.28 121.53 139.42 121.18 139.57 120.86C140.696 118.11 142.45 115.662 144.69 113.71C146.04 112.55 147.4 111.4 148.69 110.2C149.62 109.35 150.47 108.41 151.4 107.56C151.788 107.238 152.211 106.96 152.66 106.73C152.814 106.67 152.976 106.633 153.14 106.62C153.137 106.794 153.107 106.966 153.05 107.13C151.483 110.534 150.088 114.015 148.87 117.56C148.15 119.42 147.62 121.35 147.07 123.27C146.46 125.43 145.9 127.61 145.35 129.79C144.99 131.24 144.65 132.71 144.35 134.18C144.24 134.73 144.03 134.87 143.48 134.9C142.24 134.97 141.01 135.26 139.77 135.26C138.586 135.39 137.435 135.728 136.37 136.26C135.6 136.53 134.91 137 134.16 137.33C133.568 137.542 133.066 137.952 132.74 138.49C132.16 139.65 131.41 140.71 130.69 141.84L130.71 141.88ZM146.62 145.21C146.24 144.63 146.83 144.45 146.8 144.04C146.77 143.63 146.8 143.15 146.19 143.04C143.72 142.78 141.28 142.77 139.05 144.04C138.107 144.441 137.357 145.195 136.96 146.14C136.96 146.31 136.48 146.48 136.25 146.45C135.82 146.38 135.96 146.08 136.06 145.74C136.205 145.162 136.504 144.634 136.925 144.211C137.346 143.789 137.873 143.488 138.45 143.34C140.79 142.62 143.12 141.9 145.63 142.22C146.45 142.32 147.28 142.34 148.1 142.4C148.6 142.4 149.1 142.25 149.1 141.79C149.1 141.5 148.6 141.02 148.26 140.96C147.318 140.83 146.37 140.749 145.42 140.72C142.6 140.26 139.96 141.01 137.34 141.95C136.728 142.117 136.169 142.439 135.719 142.886C135.268 143.333 134.941 143.889 134.77 144.5C134.77 144.62 134.52 144.72 134.37 144.76C134.22 144.8 134.15 144.64 134.11 144.54C133.92 144.03 133.57 143.54 134.21 143.03C135.12 142.26 135.9 141.33 136.78 140.52C137.049 140.263 137.408 140.123 137.78 140.13C138.123 140.187 138.475 140.153 138.802 140.032C139.128 139.911 139.417 139.707 139.64 139.44C140.044 139.079 140.521 138.809 141.039 138.649C141.557 138.488 142.103 138.441 142.64 138.51C144.481 138.488 146.286 139.021 147.82 140.04C148.37 140.331 148.971 140.515 149.59 140.58C150.598 140.705 151.52 141.209 152.17 141.99C152.326 142.167 152.445 142.374 152.521 142.597C152.596 142.821 152.626 143.057 152.61 143.293C152.593 143.528 152.53 143.758 152.423 143.969C152.317 144.179 152.17 144.367 151.99 144.52C150.575 145.99 148.754 147.006 146.76 147.44C145.18 147.73 143.42 148.28 141.76 147.31C141.6 147.22 141.42 147.16 141.26 147.08L141.74 146.84C143.16 146.355 144.65 146.105 146.15 146.1C147.01 146.06 147.13 146.01 146.6 145.17L146.62 145.21ZM163.86 166.44C162.5 167.44 160.22 169.24 157.7 168.26C157.61 168.26 157.58 168.11 157.52 168.02L156.65 167.59H156.17C155.59 167.59 155.1 167.52 154.76 168.22C154.621 168.465 154.565 168.747 154.599 169.026C154.633 169.306 154.756 169.566 154.95 169.77C155.53 170.56 155.49 170.56 154.62 170.99C153.33 171.63 152.06 172.33 150.76 172.99C148.404 174.021 145.923 174.737 143.38 175.12C141.533 175.482 139.65 175.62 137.77 175.53C136.69 175.513 135.648 175.124 134.82 174.43C133.511 173.239 132.272 171.974 131.11 170.64C130.836 170.232 130.722 169.737 130.79 169.25C130.916 167.564 131.184 165.891 131.59 164.25C131.926 162.713 132.14 161.151 132.23 159.58C132.6 156.58 133.23 153.58 133.31 150.58C133.31 149.94 133.59 149.86 134.15 150.35C135.458 151.327 136.986 151.969 138.6 152.22C139.763 152.579 140.973 152.768 142.19 152.78C145.4 152.56 148.73 152.69 151.62 150.78C151.945 150.472 152.364 150.281 152.81 150.24C153.256 150.198 153.704 150.307 154.08 150.55C154.58 150.89 154.73 150.46 154.76 150.05C154.76 149.46 154.76 148.86 154.84 148.27C154.84 148.11 155.03 147.97 155.14 147.82C155.19 147.931 155.224 148.049 155.24 148.17C155 152.71 156.05 157.17 156.53 161.6C156.605 162.425 156.565 163.256 156.41 164.07C156.285 164.758 156.312 165.464 156.49 166.14C156.825 166.607 157.283 166.971 157.812 167.194C158.342 167.416 158.922 167.487 159.49 167.4C159.87 167.16 160.66 166.96 160.91 166.54C161.59 165.39 162.46 165.45 163.47 165.54C163.83 165.54 164.19 165.67 164.55 165.74C164.339 165.986 164.101 166.208 163.84 166.4L163.86 166.44ZM158.09 142.44C159.101 142.127 160.152 141.958 161.21 141.94C161.389 141.958 161.56 142.021 161.709 142.122C161.857 142.224 161.978 142.36 162.06 142.52C162.297 143.673 162.474 144.838 162.59 146.01C162.59 146.15 162.25 146.41 162.04 146.46C161.83 146.51 161.67 146.23 161.58 146.05C161.485 145.691 161.371 145.337 161.24 144.99C161.115 144.708 160.892 144.48 160.614 144.348C160.335 144.216 160.018 144.188 159.72 144.27C158.47 144.49 157.326 145.111 156.46 146.04C156.323 146.169 156.168 146.277 156 146.36C155.94 146.15 155.87 145.94 155.83 145.72C155.818 145.57 155.818 145.42 155.83 145.27C155.67 143.64 156.83 142.88 158.07 142.4L158.09 142.44ZM173.76 158.44C171.07 160.2 168.36 161.95 165.11 162.44C163.74 162.67 162.36 162.78 160.98 162.89C160.43 162.89 159.81 161.08 160.2 160.64C160.523 160.249 160.96 159.969 161.45 159.84C162.56 159.64 163.7 159.62 164.82 159.49C165.33 159.418 165.835 159.311 166.33 159.17C167.19 158.98 167.89 158.94 167.7 157.99C167.51 157.04 167.21 156.99 166.19 156.99C164.71 156.91 164.85 157.13 163.36 157.13H160.98C160.58 157.205 160.169 157.197 159.772 157.108C159.375 157.018 159 156.849 158.67 156.61C158.475 156.445 158.335 156.225 158.267 155.979C158.199 155.732 158.207 155.472 158.29 155.23C158.59 154.66 160.08 154.58 161.2 154.74C162.72 154.963 164.271 154.745 165.67 154.11C166.84 153.63 167.57 153.42 167.34 152.68C167.05 151.76 166.24 151.84 165.11 151.77C163.024 151.562 160.921 151.623 158.85 151.95C157.41 152.21 157.15 149.54 158.66 149.19C159.38 149.054 160.108 148.964 160.84 148.92C162.57 148.77 164.43 149.37 165.74 149.16C167.05 148.95 175.47 146.94 175.1 151.16C175.02 152.04 175.71 153.84 175.76 154.71C175.811 155.447 175.648 156.183 175.289 156.829C174.931 157.475 174.393 158.004 173.74 158.35L173.76 158.44ZM168.87 145.69C168.863 145.626 168.871 145.562 168.892 145.502C168.912 145.441 168.946 145.386 168.99 145.34C169.52 144.77 169.28 143.68 170.26 143.41C170.92 144.17 171.59 144.92 172.26 145.69C172.26 145.69 172.09 146.09 171.99 146.1C171.12 146.17 170.25 146.2 169.16 146.24C169.036 146.037 168.933 145.823 168.85 145.6L168.87 145.69ZM207.13 139.03C206.846 140.116 206.471 141.176 206.01 142.2C204.209 145.488 201.635 148.289 198.51 150.36C197.85 150.84 197.16 151.29 196.51 151.75C194.598 152.932 192.618 154 190.58 154.95C188.385 155.907 186.324 157.148 184.45 158.64C182.703 160.066 180.681 161.118 178.51 161.73C178.39 161.73 178.27 161.88 178.16 161.87C177.54 161.81 176.7 161.95 176.36 161.61C175.8 161.05 176.54 160.4 176.89 160.01C177.327 159.471 177.576 158.804 177.6 158.11C178.008 154.979 177.815 151.799 177.03 148.74C176.633 146.587 175.843 144.526 174.7 142.66C174.228 142.071 173.692 141.538 173.1 141.07C172.35 140.39 172.34 140.3 173.05 139.64C174.63 138.17 176.21 136.71 177.77 135.23C178.68 134.36 179.51 133.39 180.46 132.57C181.553 131.609 182.72 130.737 183.95 129.96C186.069 128.575 187.958 126.868 189.55 124.9C190.95 123.3 191.55 121.29 192.24 119.36C192.556 118.407 192.757 117.42 192.84 116.42C192.895 116.044 192.813 115.66 192.609 115.339C192.406 115.018 192.094 114.781 191.73 114.67C191.303 114.516 190.832 114.534 190.418 114.721C190.003 114.907 189.678 115.248 189.51 115.67C188.94 117.12 188.51 118.61 188 120.1C187.576 121.418 186.846 122.618 185.87 123.6C183.34 126.18 180.25 128.05 177.44 130.27C176.648 130.989 175.91 131.764 175.23 132.59C174.884 133.041 174.481 133.444 174.03 133.79C170.29 135.99 167.96 139.38 166.03 143.12L165.74 143.67C165.704 143.488 165.677 143.305 165.66 143.12C165.666 142.168 165.4 141.234 164.893 140.428C164.387 139.622 163.661 138.977 162.8 138.57C162.008 138.155 161.104 138.004 160.22 138.14C158.808 138.385 157.424 138.774 156.09 139.3C155.762 139.469 155.387 139.524 155.024 139.455C154.662 139.386 154.333 139.198 154.09 138.92C152.718 137.532 150.987 136.552 149.09 136.09C148.54 135.94 148.6 135.7 148.84 135.28C149.769 133.571 150.366 131.701 150.6 129.77C150.85 128.24 151.39 126.77 151.6 125.2C151.806 123.769 152.141 122.36 152.6 120.99C153.23 119.1 153.91 117.22 154.6 115.34C155.015 113.708 155.547 112.107 156.19 110.55C157.04 108.95 157.52 107.07 158.63 105.7C160.08 103.92 160.84 101.78 162.16 99.97C163 98.8705 163.912 97.8282 164.89 96.85C166.42 95.25 168.04 93.74 169.52 92.1C170.69 90.8 171.74 89.38 172.82 87.99C173.9 86.6 174.77 85.53 175.64 84.23C176.1 83.55 176.43 83.7 177.03 83.98C178.71 84.76 179.94 86.16 181.44 87.19C183.44 88.53 185.35 89.93 187.3 91.31C189.61 92.93 192 94.46 194.21 96.22C195.768 97.5286 197.023 99.1593 197.89 101C199.26 103.69 200.75 106.3 202.35 108.87C203.79 111.309 204.881 113.938 205.59 116.68C206.16 118.73 206.91 120.74 207.43 122.8C207.904 124.677 208.265 126.58 208.51 128.5C208.71 129.99 208.67 131.5 208.74 133.02C208.56 135.03 207.72 136.96 207.11 138.94L207.13 139.03Z" fill="#373636"/>
<path d="M95.4101 156.76C84.0201 156.84 91.2701 156.91 79.8801 157H80.0601C72.6201 156.78 65.1801 156.59 57.7401 156.7C49.2801 156.82 40.8201 157.22 32.3701 157.64C30.6401 157.72 27.6801 157.64 27.9901 159.8C28.3001 161.96 31.1001 160.86 32.8501 160.8C44.2401 160.72 55.6301 160.59 67.0301 160.5H66.8401C74.2801 160.72 87.4301 161.01 95.8401 160.59C97.5701 160.51 100.54 159.95 100.23 157.75C99.9201 155.55 97.1901 156.75 95.4101 156.76Z" fill="#373636"/>
<path d="M191.94 160.08C196.78 160.24 201.61 160.35 206.45 160.5H206.38C209.528 160.915 212.696 161.172 215.87 161.27C219.46 161.32 231.55 161.11 235.13 160.87C235.87 160.87 237.13 160.99 236.95 158.79C236.77 156.59 228.48 157.28 227.74 157.26C222.91 157.09 216.68 157.38 211.84 157.26H211.92C208.769 156.84 205.598 156.583 202.42 156.49C198.83 156.43 195.25 156.65 191.67 156.89C190.93 156.89 189.67 156.76 189.85 158.96C190.03 161.16 191.2 160.05 191.94 160.08Z" fill="#373636"/>
<path d="M255.58 160.92C256.31 160.92 257.58 161.04 257.39 158.84C257.2 156.64 255.58 157.37 254.84 157.29C252.672 156.855 250.456 156.71 248.25 156.86C247.52 156.86 246.25 156.73 246.44 158.93C246.63 161.13 252 161.16 255.58 160.92Z" fill="#373636"/>
<path d="M152.694 51.7063C153.989 47.4013 152.196 43.0563 148.69 42.0017C145.184 40.947 141.291 43.582 139.996 47.8871C138.702 52.1922 140.494 56.5371 144.001 57.5918C147.507 58.6464 151.4 56.0114 152.694 51.7063Z" fill="white"/>
<path d="M150.87 49.55C150.595 49.6551 150.29 49.6479 150.021 49.53C149.752 49.4122 149.539 49.193 149.43 48.92C149.21 48.55 148.97 48.2 148.72 47.86C148.599 47.6178 148.427 47.4049 148.215 47.2365C148.004 47.0681 147.757 46.9483 147.494 46.8853C147.231 46.8224 146.957 46.818 146.692 46.8723C146.427 46.9267 146.177 47.0386 145.96 47.2C145.576 47.4088 145.151 47.5288 144.715 47.5513C144.279 47.5738 143.843 47.4982 143.44 47.33C143.316 47.3071 143.187 47.3204 143.07 47.3682C142.953 47.4161 142.853 47.4966 142.78 47.6001C142.642 47.9141 142.6 48.2622 142.66 48.6001C142.874 49.0132 143.132 49.4021 143.43 49.76L143.97 49.92C144.74 49.79 145.5 49.64 146.26 49.53C146.54 49.53 146.87 49.42 147.07 49.59C148.07 50.4566 149.321 50.982 150.64 51.09C150.806 51.0254 150.95 50.9131 151.053 50.7673C151.157 50.6215 151.214 50.4485 151.22 50.27C151.28 49.6 150.87 49.55 150.87 49.55Z" fill="#373636"/>
<path d="M154.2 98.68L153.81 96.91C153.43 95.21 153.56 95.81 153.24 94.1C153.24 94.1 152.92 88.8 152.83 88.3C152.795 87.5512 152.835 86.8008 152.95 86.06C153.04 85.26 153.32 84.48 153.43 83.67C153.709 81.4291 154.113 79.2056 154.64 77.01C155.12 75.01 155.44 73.08 155.88 71.12C156.27 69.35 156.71 67.59 157.18 65.84C157.94 63.03 158.58 60.23 158.08 57.29C157.94 56.49 157.92 55.67 157.84 54.86C157.804 54.2315 157.615 53.6214 157.289 53.0828C156.963 52.5442 156.51 52.0935 155.97 51.77C155.355 51.4402 154.874 50.9062 154.61 50.26C154.625 49.6487 154.568 49.0378 154.44 48.44C154.473 47.5665 154.416 46.6919 154.27 45.83C153.733 44.5996 153.004 43.4622 152.11 42.46C151.84 42.21 151.63 41.81 151.17 42.08C151.068 42.1219 150.977 42.1867 150.905 42.2693C150.832 42.3518 150.779 42.45 150.75 42.5562C150.721 42.6625 150.717 42.774 150.737 42.8821C150.758 42.9902 150.804 43.0921 150.87 43.18C151.309 44.0173 151.668 44.8946 151.94 45.8C152.296 47.0598 152.563 48.3429 152.74 49.64C152.746 50.146 152.56 50.6355 152.22 51.01C150.92 52.53 149.83 54.29 147.93 55.17C147.153 55.5785 146.316 55.862 145.45 56.01C144.642 56.1755 143.802 56.0701 143.06 55.71C142.741 55.4534 142.476 55.1353 142.282 54.7746C142.088 54.4138 141.968 54.0178 141.93 53.61C141.83 51.67 141.22 49.77 141.45 47.8C141.511 47.0476 141.833 46.3403 142.36 45.8C143.386 44.7616 144.732 44.0992 146.18 43.92C147.112 43.8034 148.051 43.7466 148.99 43.75C149.65 43.75 150.15 43.6 150.27 42.91C150.311 42.6207 150.247 42.3263 150.089 42.0804C149.931 41.8344 149.69 41.6533 149.41 41.57C148.487 41.3842 147.602 41.0462 146.79 40.57C146.67 40.49 146.43 40.57 146.26 40.57C144.773 40.8856 143.364 41.4948 142.116 42.362C140.867 43.2291 139.805 44.3368 138.99 45.62C138.381 46.5696 137.954 47.6241 137.73 48.73C137.29 50.6 136.63 52.44 137.12 54.47C137.293 55.498 137.793 56.4426 138.547 57.1633C139.3 57.884 140.265 58.3423 141.3 58.47C142.572 58.7327 143.872 58.8402 145.17 58.79C146.355 58.671 147.511 58.3532 148.59 57.85C150.112 57.2062 151.437 56.1712 152.43 54.85C152.605 54.664 152.792 54.4903 152.99 54.33C153.42 53.98 153.75 53.4 154.44 53.63C154.745 53.7469 155.005 53.9564 155.185 54.2291C155.364 54.5018 155.453 54.8239 155.44 55.15C155.602 56.8749 155.659 58.6082 155.61 60.34C155.291 63.2117 154.692 66.0452 153.82 68.8C153.3 70.66 153 72.59 152.56 74.49C152.01 76.88 151.71 79.32 151.2 81.71C150.717 84.3891 150.426 87.0993 150.33 89.82C150.218 91.656 150.373 93.4986 150.79 95.29C151.1 96.51 151.79 101.5 151.94 101.83L152.94 107.45L154.88 103.53L154.2 98.68Z" fill="#8C712E"/>
<path d="M141.8 38.03C144.893 36.6907 147.784 34.9271 150.39 32.7901L161.01 24.84C162.043 24.1735 162.926 23.298 163.6 22.27C164.155 21.0916 164.435 19.8025 164.42 18.5C164.57 16.07 164.67 13.5 163.57 11.33C162.25 8.74003 159.4 7.19004 156.57 6.71004C153.672 6.38026 150.741 6.50168 147.88 7.07002C145.486 7.26574 143.149 7.90673 140.99 8.96004C137.33 11.04 135.44 15.23 134.21 19.25C132.98 23.27 132.12 27.56 129.63 30.94C128.76 32.12 127.63 33.23 127.34 34.65C125.83 40.81 139.04 39.07 141.8 38.03Z" fill="#575756"/>
<path d="M146.88 22.39C146.63 23.39 147.34 23.77 147.45 23.76C148.52 24.34 148.2 21.88 148.13 21.49C148.23 19.34 147.19 16.88 147.29 14.73C147.245 14.3781 147.245 14.0219 147.29 13.67C147.55 12.82 148.21 12.15 149.06 12.37C149.381 12.4739 149.672 12.655 149.908 12.8973C150.143 13.1395 150.315 13.4357 150.41 13.76C150.64 15.89 150.2 19.88 150.55 22.05C150.64 23.41 153.18 22.5 152.77 20.73C152.56 19.73 151.41 14.73 151.56 13.73C151.84 11.94 152.66 10.73 154.2 11.37C154.893 11.921 155.469 12.6062 155.891 13.3845C156.314 14.1628 156.575 15.0184 156.66 15.9C156.78 17.12 154.74 20.27 156.52 20.14C158.66 20.44 160.9 14 158.32 11.68C157.46 11.19 156.32 10.49 155.32 9.88999C154.03 8.58999 151.19 10.24 149.65 10.31C147.589 10.4903 145.542 10.8009 143.52 11.24C142.753 11.3308 142.035 11.6639 141.47 12.1908C140.905 12.7178 140.523 13.4111 140.38 14.17C140.14 15.17 139.91 16.25 139.71 17.3C139.16 20.16 138.8 20.51 138.24 23.37C137.98 24.69 139.66 24.37 139.71 22.62C139.76 20.87 140.23 19.62 142.09 19.14C142.312 19.0547 142.511 18.9205 142.674 18.7474C142.837 18.5742 142.958 18.3666 143.03 18.14C143.167 17.2533 143.234 16.3572 143.23 15.46C143.23 14.92 143.23 14.38 143.32 13.85C143.44 13.02 143.69 12.19 144.69 12.09C145.69 11.99 145.45 12.91 145.53 13.82C145.72 15.88 146.66 17.82 146.76 19.92C146.74 20.33 146.92 21.98 146.88 22.39ZM131.53 40.89L125.99 39.19C122.9 38.7 120.86 37.58 119.69 35.64C118.84 35.94 117.13 32.2 116.23 31.27C115.787 30.8211 115.446 30.2822 115.23 29.69C115.15 29.4535 115.124 29.202 115.155 28.9543C115.187 28.7066 115.274 28.4692 115.41 28.26C115.834 27.7656 116.385 27.3963 117.004 27.1919C117.622 26.9875 118.285 26.9557 118.92 27.1C120.37 27.32 124.65 29.54 126.87 29.78C126.87 29.78 127.47 27.5 128.4 23.16C128.55 22.45 128.66 21.73 128.74 21.01C129.13 17.72 128.91 14.34 130.38 11.22C130.475 10.8731 130.475 10.5069 130.38 10.16C130.12 8.23001 131.06 6.90999 132.47 5.75999C135.716 3.30588 139.444 1.56461 143.41 0.650003C146.01 -0.136597 148.775 -0.20227 151.41 0.460001C154.78 1.37 158.16 2.24001 161.48 3.34001C163.59 4.03001 165.86 4.49996 167.54 6.16996C169.38 8.01996 171.18 9.89997 173.08 11.68C173.741 12.2858 174.151 13.117 174.23 14.01C174.692 17.8838 174.226 21.812 172.87 25.47C172.87 25.47 174.92 29.18 172.58 28.76C164.58 27.33 152.83 34.61 148.98 36.67C145.13 38.73 137.07 42.58 131.53 40.89Z" fill="#373636"/>
<path d="M168.91 103.14C169.211 102.91 169.564 102.76 169.939 102.704C170.313 102.648 170.695 102.688 171.05 102.82C171.4 103.065 171.663 103.415 171.8 103.82C172.442 105.21 172.708 106.745 172.57 108.27C173.922 107.14 175.39 106.158 176.95 105.34C177.14 105.25 177.38 105.15 177.56 105.27C177.625 105.337 177.674 105.417 177.703 105.506C177.732 105.594 177.742 105.688 177.73 105.78C177.762 107.94 177.678 110.099 177.48 112.25C177.456 112.526 177.376 112.794 177.243 113.036C177.11 113.279 176.929 113.492 176.71 113.661C176.491 113.831 176.239 113.952 175.971 114.019C175.702 114.086 175.423 114.097 175.15 114.05L168.84 113.12C166.76 112.81 161.89 112.38 162.02 109.81C162.13 107.43 167.12 104.15 168.91 103.14Z" fill="#EE7249"/>
</g>
<defs>
<clipPath id="clip0_24_2">
<rect width="284.64" height="166.86" fill="white" transform="translate(0 208)"/>
</clipPath>
<clipPath id="clip1_24_2">
<rect width="229.41" height="181.08" fill="white" transform="translate(28)"/>
</clipPath>
</defs>
</svg>
