<svg width="147" height="31" viewBox="0 0 147 31" fill="none" xmlns="http://www.w3.org/2000/svg">
<path d="M0.253211 30H8.94721C19.7832 30 25.0332 24.918 25.0332 15.384C25.0332 5.808 19.7832 0.599998 8.94721 0.599998H0.253211C0.631211 0.977998 1.47121 2.28 1.47121 4.38V26.22C1.47121 28.32 0.631211 29.622 0.253211 30ZM10.2072 21.726V8.874H11.5932C14.7012 8.874 15.9612 11.058 15.9612 15.3C15.9612 19.584 14.7012 21.726 11.5932 21.726H10.2072ZM48.2874 22.146C47.7414 21.558 47.1954 20.718 46.6074 19.878C46.2294 19.248 45.7674 18.534 45.3054 17.862C49.2114 14.082 50.3454 10.89 50.3454 7.53C50.3454 1.692 45.2214 0.599998 39.3414 0.599998H27.0774C27.4554 0.977998 28.2954 2.28 28.2954 4.38V26.22C28.2954 28.32 27.4554 29.622 27.0774 30H38.2494C37.8714 29.622 37.0314 28.32 37.0314 26.22V25.002L39.4674 22.944C39.5094 23.07 39.5934 23.196 39.6354 23.322C40.6014 25.464 41.6934 27.144 43.0374 28.278C44.5914 29.622 46.5654 30.126 48.4974 30.126C48.9594 30.126 49.5474 30.084 50.0514 30.042L51.4794 23.238C50.3454 23.784 49.7154 23.532 48.2874 22.146ZM37.0314 7.824H38.7114C39.8034 7.824 41.7774 7.95 41.7774 10.218C41.7774 11.52 41.1894 13.242 38.5434 15.51L37.0314 16.812V7.824ZM53.1224 30H64.2944C63.8744 29.622 63.0764 28.32 63.0764 26.22V4.38C63.0764 2.28 63.8744 0.977998 64.2944 0.599998H53.1224C53.5004 0.977998 54.3404 2.28 54.3404 4.38V26.22C54.3404 28.32 53.5004 29.622 53.1224 30ZM92.4718 26.22V4.38C92.4718 2.28 93.2698 0.977998 93.6898 0.599998H82.5178C82.9378 0.977998 83.7358 2.28 83.7358 4.38V14.082C83.1898 12.696 82.1398 11.646 81.0478 10.722C79.3678 9.378 77.6458 8.16 77.2678 6.186V4.38C77.2678 2.28 78.0658 0.977998 78.4858 0.599998H67.3138C67.6918 0.977998 68.5318 2.28 68.5318 4.38V26.22C68.5318 28.32 67.6918 29.622 67.3138 30H78.4858C78.0658 29.622 77.2678 28.32 77.2678 26.22V14.754C77.8558 15.888 78.7798 16.728 79.8298 17.568C81.7198 19.122 83.7358 20.76 83.7358 24.876V26.22C83.7358 28.32 82.9378 29.622 82.5178 30H93.6898C93.2698 29.622 92.4718 28.32 92.4718 26.22ZM117.638 19.5C116.63 17.82 115.538 16.056 113.816 15.216L119.15 3.75C120.326 1.188 122.72 0.599998 122.72 0.599998H111.884L106.676 13.032V4.38C106.676 2.28 107.474 0.977998 107.894 0.599998H96.722C97.1 0.977998 97.94 2.28 97.94 4.38V26.22C97.94 28.32 97.1 29.622 96.722 30H107.894C107.474 29.622 106.676 28.32 106.676 26.22V22.608L108.566 20.928C108.986 21.894 109.364 23.07 109.826 24.288C111.338 28.446 114.698 30.63 118.394 30.63C119.654 30.63 120.872 30.42 122.006 30L122.804 22.986C120.158 23.616 119.066 21.642 117.638 19.5ZM135.868 30.462C142.168 30.462 146.326 27.48 146.326 21.894C146.326 16.896 141.454 14.082 138.22 12.402C135.91 11.184 133.936 10.26 133.894 8.58C133.894 7.404 134.818 6.69 136.204 6.69C138.178 6.69 139.942 7.992 140.11 10.134L145.696 4.422C143.974 1.65 139.522 0.264 134.986 0.264C130.156 0.264 124.822 2.616 124.906 8.16C124.948 12.444 127.09 14.25 130.282 16.434C133.054 18.324 136.75 19.374 136.834 21.516C136.834 22.86 135.91 23.658 134.398 23.658C132.508 23.658 130.828 21.894 130.744 19.752L123.73 22.65C125.788 28.572 130.198 30.462 135.868 30.462Z" fill="#C49D66"/>
</svg>
