<svg width="110" height="31" viewBox="0 0 110 31" fill="none" xmlns="http://www.w3.org/2000/svg">
<path d="M10.0207 12.948V7.782H16.8667C19.1767 7.782 21.3607 8.328 22.3687 8.706L20.5627 0.599998H0.0666876C0.444688 0.977998 1.28469 2.28 1.28469 4.38V26.22C1.28469 28.32 0.444688 29.622 0.0666876 30H11.2387C10.8187 29.622 10.0207 28.32 10.0207 26.22V18.156H13.7167C15.8587 18.156 17.6227 18.366 18.3367 18.534V12.486C17.8327 12.696 16.2787 12.948 13.7167 12.948H10.0207ZM36.8974 30.42C45.1714 30.42 51.3034 24.246 51.3034 15.3C51.3034 6.396 45.1714 0.305999 36.8974 0.305999C28.6654 0.305999 22.5334 6.396 22.5334 15.3C22.5334 24.246 28.6654 30.42 36.8974 30.42ZM36.8974 21.516C33.1174 21.516 31.1014 18.618 31.1014 15.258C31.1014 11.898 33.1174 9.084 36.8974 9.084C40.4674 9.084 42.6934 11.73 42.6934 15.258C42.6934 18.828 40.4674 21.516 36.8974 21.516ZM68.1513 30.42C76.4253 30.42 82.5573 24.246 82.5573 15.3C82.5573 6.396 76.4253 0.305999 68.1513 0.305999C59.9193 0.305999 53.7873 6.396 53.7873 15.3C53.7873 24.246 59.9193 30.42 68.1513 30.42ZM68.1513 21.516C64.3713 21.516 62.3553 18.618 62.3553 15.258C62.3553 11.898 64.3713 9.084 68.1513 9.084C71.7213 9.084 73.9473 11.73 73.9473 15.258C73.9473 18.828 71.7213 21.516 68.1513 21.516ZM84.5589 30H93.2529C104.089 30 109.339 24.918 109.339 15.384C109.339 5.808 104.089 0.599998 93.2529 0.599998H84.5589C84.9369 0.977998 85.7769 2.28 85.7769 4.38V26.22C85.7769 28.32 84.9369 29.622 84.5589 30ZM94.5129 21.726V8.874H95.8989C99.0069 8.874 100.267 11.058 100.267 15.3C100.267 19.584 99.0069 21.726 95.8989 21.726H94.5129Z" fill="#C49D66"/>
</svg>
