<svg width="91" height="31" viewBox="0 0 91 31" fill="none" xmlns="http://www.w3.org/2000/svg">
<path d="M21.0188 19.5C20.0108 17.82 18.9188 16.056 17.1968 15.216L22.5308 3.75C23.7068 1.188 26.1008 0.599998 26.1008 0.599998H15.2648L10.0568 13.032V4.38C10.0568 2.28 10.8548 0.977998 11.2748 0.599998H0.10282C0.48082 0.977998 1.32082 2.28 1.32082 4.38V26.22C1.32082 28.32 0.48082 29.622 0.10282 30H11.2748C10.8548 29.622 10.0568 28.32 10.0568 26.22V22.608L11.9468 20.928C12.3668 21.894 12.7448 23.07 13.2068 24.288C14.7188 28.446 18.0788 30.63 21.7748 30.63C23.0348 30.63 24.2528 30.42 25.3868 30L26.1848 22.986C23.5388 23.616 22.4468 21.642 21.0188 19.5ZM27.8704 30H39.0424C38.6224 29.622 37.8244 28.32 37.8244 26.22V4.38C37.8244 2.28 38.6224 0.977998 39.0424 0.599998H27.8704C28.2484 0.977998 29.0884 2.28 29.0884 4.38V26.22C29.0884 28.32 28.2484 29.622 27.8704 30ZM42.0618 30H50.7558C61.5918 30 66.8418 24.918 66.8418 15.384C66.8418 5.808 61.5918 0.599998 50.7558 0.599998H42.0618C42.4398 0.977998 43.2798 2.28 43.2798 4.38V26.22C43.2798 28.32 42.4398 29.622 42.0618 30ZM52.0158 21.726V8.874H53.4018C56.5098 8.874 57.7698 11.058 57.7698 15.3C57.7698 19.584 56.5098 21.726 53.4018 21.726H52.0158ZM80.018 30.462C86.318 30.462 90.476 27.48 90.476 21.894C90.476 16.896 85.604 14.082 82.37 12.402C80.06 11.184 78.086 10.26 78.044 8.58C78.044 7.404 78.968 6.69 80.354 6.69C82.328 6.69 84.092 7.992 84.26 10.134L89.846 4.422C88.124 1.65 83.672 0.264 79.136 0.264C74.306 0.264 68.972 2.616 69.056 8.16C69.098 12.444 71.24 14.25 74.432 16.434C77.204 18.324 80.9 19.374 80.984 21.516C80.984 22.86 80.06 23.658 78.548 23.658C76.658 23.658 74.978 21.894 74.894 19.752L67.88 22.65C69.938 28.572 74.348 30.462 80.018 30.462Z" fill="#C49D66"/>
</svg>
