<svg width="80" height="13" viewBox="0 0 80 13" fill="none" xmlns="http://www.w3.org/2000/svg">
<path d="M6.39071 12.2177C6.32197 12.2177 6.25416 12.2017 6.19268 12.171C6.13119 12.1402 6.0777 12.0956 6.03646 12.0406L0.885632 5.05209V11.7785C0.885632 11.8959 0.838977 12.0085 0.755933 12.0916C0.672889 12.1746 0.560258 12.2213 0.442816 12.2213C0.325374 12.2213 0.212743 12.1746 0.129699 12.0916C0.0466547 12.0085 0 11.8959 0 11.7785V3.70504C0.000193949 3.61192 0.0297392 3.52124 0.0844334 3.44587C0.139128 3.37051 0.216182 3.31431 0.304652 3.28525C0.393018 3.25643 0.488217 3.25615 0.576752 3.28444C0.665288 3.31274 0.742678 3.36817 0.797955 3.4429L6.74585 11.5137C6.78046 11.5605 6.8055 11.6137 6.81951 11.6702C6.83353 11.7268 6.83626 11.7855 6.82754 11.8431C6.81882 11.9007 6.79882 11.956 6.76869 12.0058C6.73857 12.0557 6.69891 12.0991 6.65198 12.1336C6.57623 12.1891 6.48459 12.2186 6.39071 12.2177Z" fill="#183F3C"/>
<path d="M6.51648 9.60866C6.39903 9.60866 6.2864 9.56201 6.20336 9.47896C6.12031 9.39592 6.07366 9.28329 6.07366 9.16585V3.76349C6.07366 3.64605 6.12031 3.53342 6.20336 3.45038C6.2864 3.36733 6.39903 3.32068 6.51648 3.32068C6.63392 3.32068 6.74655 3.36733 6.82959 3.45038C6.91264 3.53342 6.95929 3.64605 6.95929 3.76349V9.16585C6.95929 9.28329 6.91264 9.39592 6.82959 9.47896C6.74655 9.56201 6.63392 9.60866 6.51648 9.60866Z" fill="#183F3C"/>
<path d="M31.1627 12.2177C31.094 12.2177 31.0262 12.2017 30.9647 12.171C30.9032 12.1402 30.8497 12.0956 30.8085 12.0406L25.6603 5.05209V11.7785C25.6603 11.8959 25.6136 12.0085 25.5306 12.0916C25.4475 12.1746 25.3349 12.2213 25.2175 12.2213C25.1 12.2213 24.9874 12.1746 24.9044 12.0916C24.8213 12.0085 24.7747 11.8959 24.7747 11.7785V3.70504C24.7748 3.61203 24.8042 3.52143 24.8587 3.44608C24.9133 3.37073 24.9901 3.31446 25.0784 3.28525C25.1669 3.25623 25.2623 3.25584 25.351 3.28414C25.4397 3.31244 25.5173 3.36799 25.5726 3.4429L31.5187 11.5137C31.5534 11.5605 31.5784 11.6137 31.5924 11.6702C31.6064 11.7268 31.6091 11.7855 31.6004 11.8431C31.5917 11.9007 31.5717 11.956 31.5416 12.0058C31.5115 12.0557 31.4718 12.0991 31.4249 12.1336C31.3488 12.1891 31.2569 12.2186 31.1627 12.2177Z" fill="#183F3C"/>
<path d="M31.2832 9.60866C31.1657 9.60866 31.0531 9.56201 30.97 9.47896C30.887 9.39592 30.8404 9.28329 30.8404 9.16585V3.76349C30.8404 3.64605 30.887 3.53342 30.97 3.45038C31.0531 3.36733 31.1657 3.32068 31.2832 3.32068C31.4006 3.32068 31.5132 3.36733 31.5963 3.45038C31.6793 3.53342 31.726 3.64605 31.726 3.76349V9.16585C31.726 9.28329 31.6793 9.39592 31.5963 9.47896C31.5132 9.56201 31.4006 9.60866 31.2832 9.60866Z" fill="#183F3C"/>
<path d="M9.73132 6.66483C9.61388 6.66483 9.50125 6.61817 9.41821 6.53513C9.33516 6.45209 9.28851 6.33945 9.28851 6.22201V3.61382C9.28851 3.49638 9.33516 3.38375 9.41821 3.30071C9.50125 3.21766 9.61388 3.17101 9.73132 3.17101H13.0082C13.1256 3.17101 13.2382 3.21766 13.3213 3.30071C13.4043 3.38375 13.451 3.49638 13.451 3.61382C13.451 3.73127 13.4043 3.8439 13.3213 3.92694C13.2382 4.00999 13.1256 4.05664 13.0082 4.05664H10.1741V6.22378C10.1737 6.34092 10.1268 6.45309 10.0438 6.53576C9.96082 6.61842 9.84846 6.66483 9.73132 6.66483Z" fill="#183F3C"/>
<path d="M13.0082 12.309H9.73132C9.61388 12.309 9.50125 12.2623 9.41821 12.1793C9.33516 12.0962 9.28851 11.9836 9.28851 11.8661V7.74087C9.28851 7.62343 9.33516 7.5108 9.41821 7.42775C9.50125 7.34471 9.61388 7.29805 9.73132 7.29805H13.0082C13.1256 7.29805 13.2382 7.34471 13.3213 7.42775C13.4043 7.5108 13.451 7.62343 13.451 7.74087C13.451 7.85831 13.4043 7.97094 13.3213 8.05398C13.2382 8.13703 13.1256 8.18368 13.0082 8.18368H10.1741V11.4278H13.0082C13.1256 11.4278 13.2382 11.4744 13.3213 11.5574C13.4043 11.6405 13.451 11.7531 13.451 11.8706C13.4498 11.9872 13.4026 12.0987 13.3197 12.1808C13.2368 12.2629 13.1248 12.309 13.0082 12.309Z" fill="#183F3C"/>
<path d="M19.7124 12.2859C19.6163 12.2858 19.5229 12.2545 19.4463 12.1967C19.3696 12.1388 19.3138 12.0576 19.2873 11.9653C19.2553 11.8525 19.2695 11.7316 19.3266 11.6291C19.3837 11.5267 19.4791 11.4511 19.5919 11.4189C20.9204 11.0425 21.8813 9.51745 21.8813 7.79312C21.8813 5.74554 20.5679 4.07878 18.9534 4.07878C17.3389 4.07878 16.0308 5.74554 16.0308 7.79312C16.0308 9.51745 16.9935 11.0425 18.3193 11.4242C18.4317 11.4566 18.5268 11.5321 18.5837 11.6343C18.6406 11.7366 18.6548 11.8571 18.6231 11.9698C18.5907 12.0822 18.5152 12.1773 18.4129 12.2342C18.3107 12.2911 18.1901 12.3052 18.0775 12.2735C16.3523 11.7829 15.1469 9.94255 15.1469 7.79755C15.1469 5.26199 16.8562 3.19935 18.9552 3.19935C21.0541 3.19935 22.7634 5.26199 22.7634 7.79755C22.7634 9.94255 21.558 11.7829 19.8311 12.2735C19.7923 12.2831 19.7523 12.2873 19.7124 12.2859Z" fill="#183F3C"/>
<path d="M79.435 12.2177C79.3662 12.2177 79.2984 12.2017 79.2369 12.171C79.1754 12.1402 79.122 12.0956 79.0807 12.0406L73.9308 5.05209V11.7785C73.9308 11.8959 73.8841 12.0085 73.8011 12.0916C73.718 12.1746 73.6054 12.2213 73.488 12.2213C73.3705 12.2213 73.2579 12.1746 73.1748 12.0916C73.0918 12.0085 73.0451 11.8959 73.0451 11.7785V3.70504C73.0453 3.61203 73.0747 3.52143 73.1292 3.44608C73.1837 3.37073 73.2606 3.31446 73.3489 3.28525C73.4374 3.25623 73.5328 3.25584 73.6215 3.28414C73.7102 3.31244 73.7878 3.36799 73.8431 3.4429L79.7901 11.5137C79.8248 11.5605 79.8498 11.6136 79.8639 11.6701C79.878 11.7266 79.8808 11.7853 79.8722 11.8429C79.8635 11.9005 79.8436 11.9558 79.8136 12.0057C79.7836 12.0556 79.744 12.099 79.6971 12.1336C79.6209 12.1888 79.5291 12.2183 79.435 12.2177Z" fill="#183F3C"/>
<path d="M79.5572 9.54047C79.4397 9.54047 79.3271 9.49381 79.2441 9.41077C79.161 9.32773 79.1144 9.2151 79.1144 9.09765V3.6953C79.1144 3.57786 79.161 3.46523 79.2441 3.38218C79.3271 3.29914 79.4397 3.25249 79.5572 3.25249C79.6746 3.25249 79.7873 3.29914 79.8703 3.38218C79.9533 3.46523 80 3.57786 80 3.6953V9.09765C80 9.2151 79.9533 9.32773 79.8703 9.41077C79.7873 9.49381 79.6746 9.54047 79.5572 9.54047Z" fill="#183F3C"/>
<path d="M67.2017 12.2177C67.161 12.2178 67.1204 12.2121 67.0813 12.2009C65.3561 11.7103 64.1507 9.86993 64.1507 7.72581C64.1507 5.19025 65.86 3.12673 67.9589 3.12673C70.0579 3.12673 71.7672 5.19025 71.7672 7.72581C71.7672 9.86993 70.5618 11.7112 68.8366 12.2009C68.724 12.2326 68.6034 12.2185 68.5012 12.1615C68.399 12.1046 68.3234 12.0096 68.2911 11.8971C68.2594 11.7845 68.2735 11.6639 68.3304 11.5617C68.3873 11.4595 68.4824 11.3839 68.5948 11.3516C69.9233 10.9734 70.8833 9.44925 70.8833 7.72581C70.8833 5.67735 69.5699 4.01059 67.9554 4.01059C66.3409 4.01059 65.0328 5.67735 65.0328 7.72581C65.0328 9.44925 65.9946 10.9743 67.3213 11.3516C67.4337 11.3839 67.5288 11.4595 67.5857 11.5617C67.6426 11.6639 67.6568 11.7845 67.6251 11.8971C67.5986 11.9892 67.5431 12.0701 67.4668 12.1279C67.3905 12.1857 67.2975 12.2172 67.2017 12.2177Z" fill="#183F3C"/>
<path d="M43.2312 4.01059H40.879C40.7615 4.01059 40.6489 3.96393 40.5659 3.88089C40.4828 3.79784 40.4362 3.68521 40.4362 3.56777C40.4362 3.45033 40.4828 3.3377 40.5659 3.25465C40.6489 3.17161 40.7615 3.12495 40.879 3.12495H43.2348C43.3522 3.12495 43.4648 3.17161 43.5479 3.25465C43.6309 3.3377 43.6776 3.45033 43.6776 3.56777C43.6776 3.62622 43.666 3.68409 43.6435 3.73805C43.6211 3.79201 43.5881 3.84098 43.5466 3.88215C43.5051 3.92331 43.4559 3.95586 43.4018 3.9779C43.3476 3.99994 43.2897 4.01105 43.2312 4.01059Z" fill="#183F3C"/>
<path d="M41.1987 12.2177C40.1528 12.2177 39.7737 11.7537 39.3344 11.2152L39.2627 11.1266C39.1892 11.0361 39.1544 10.9202 39.1658 10.8041C39.1773 10.688 39.234 10.5812 39.3238 10.5067C39.4144 10.4332 39.5303 10.3984 39.6464 10.4098C39.7624 10.4212 39.8693 10.478 39.9438 10.5678L40.0173 10.6564C40.4202 11.1497 40.5708 11.3348 41.1969 11.3348C42.5803 11.3348 42.7911 10.2906 42.7911 9.66889V5.24073C42.7911 5.12329 42.8377 5.01065 42.9208 4.92761C43.0038 4.84457 43.1164 4.79791 43.2339 4.79791C43.3513 4.79791 43.464 4.84457 43.547 4.92761C43.63 5.01065 43.6767 5.12329 43.6767 5.24073V9.66889C43.6723 11.2409 42.7246 12.2177 41.1987 12.2177Z" fill="#183F3C"/>
<path d="M52.7509 12.2177C52.6631 12.2176 52.5774 12.1915 52.5046 12.1426C52.4317 12.0937 52.375 12.0243 52.3417 11.9432L49.4696 4.93253L48.0526 8.41129C48.0081 8.51968 47.9224 8.60598 47.8143 8.6513C47.7062 8.69662 47.5846 8.69726 47.4761 8.65307C47.3677 8.60851 47.2814 8.52282 47.236 8.41475C47.1907 8.30668 47.1901 8.18506 47.2343 8.07652L49.064 3.59788C49.0972 3.51657 49.1538 3.44697 49.2267 3.39793C49.2995 3.34888 49.3853 3.32261 49.4731 3.32245C49.5609 3.32254 49.6466 3.34868 49.7194 3.39756C49.7923 3.44644 49.849 3.51585 49.8823 3.597L53.1591 11.6093C53.203 11.7177 53.2023 11.8391 53.157 11.947C53.1117 12.0549 53.0255 12.1404 52.9174 12.185C52.8645 12.2065 52.808 12.2176 52.7509 12.2177Z" fill="#183F3C"/>
<path d="M46.1981 12.2177C46.1407 12.2178 46.0839 12.2066 46.0307 12.185C45.9225 12.1404 45.8364 12.0549 45.7911 11.947C45.7458 11.8391 45.745 11.7177 45.7889 11.6093L46.6303 9.55376C46.6636 9.47275 46.7201 9.40343 46.7928 9.35456C46.8655 9.30569 46.951 9.27947 47.0386 9.27921H50.1959C50.3133 9.27921 50.4259 9.32586 50.509 9.40891C50.592 9.49195 50.6387 9.60458 50.6387 9.72203C50.6387 9.83947 50.592 9.9521 50.509 10.0351C50.4259 10.1182 50.3133 10.1648 50.1959 10.1648H47.3353L46.6073 11.945C46.5737 12.0258 46.5168 12.0948 46.444 12.1434C46.3712 12.1919 46.2856 12.2178 46.1981 12.2177Z" fill="#183F3C"/>
<path d="M62.1749 12.2177C62.0575 12.2177 61.9448 12.1711 61.8618 12.088C61.7787 12.005 61.7321 11.8924 61.7321 11.7749V5.73137L59.1345 11.4056C59.0992 11.4824 59.0427 11.5474 58.9716 11.5931C58.9005 11.6387 58.8178 11.6631 58.7333 11.6633C58.6487 11.6633 58.5658 11.639 58.4946 11.5933C58.4233 11.5476 58.3666 11.4825 58.3313 11.4056L55.7346 5.73137V11.7758C55.7346 11.8932 55.6879 12.0059 55.6049 12.0889C55.5218 12.172 55.4092 12.2186 55.2918 12.2186C55.1743 12.2186 55.0617 12.172 54.9786 12.0889C54.8956 12.0059 54.8489 11.8932 54.8489 11.7758V3.70504C54.849 3.60425 54.8834 3.50648 54.9465 3.4279C55.0097 3.34932 55.0977 3.29463 55.1961 3.27285C55.2947 3.25155 55.3975 3.26452 55.4877 3.30961C55.5779 3.3547 55.65 3.42921 55.6921 3.52083L58.7316 10.1631L61.7702 3.52083C61.8123 3.42921 61.8844 3.3547 61.9745 3.30961C62.0647 3.26452 62.1676 3.25155 62.2661 3.27285C62.3647 3.29445 62.453 3.34907 62.5163 3.42767C62.5795 3.50627 62.6141 3.60413 62.6142 3.70504V11.7758C62.614 11.8925 62.5677 12.0044 62.4854 12.0871C62.4032 12.1699 62.2916 12.2168 62.1749 12.2177Z" fill="#183F3C"/>
<path d="M67.1389 1.51222C67.0494 1.51206 66.9621 1.48482 66.8884 1.43407C66.8147 1.38333 66.7582 1.31146 66.7262 1.22793C66.6846 1.11845 66.6881 0.996989 66.7359 0.890104C66.7837 0.783219 66.8719 0.699615 66.9812 0.657582L68.625 0.0287857C68.7344 -0.0127402 68.8559 -0.00921906 68.9628 0.0385804C69.0697 0.0863798 69.1533 0.174564 69.1953 0.283845C69.2368 0.39332 69.2333 0.514786 69.1855 0.621671C69.1377 0.728556 69.0495 0.812159 68.9402 0.854193L67.2965 1.48299C67.2461 1.50207 67.1927 1.51198 67.1389 1.51222Z" fill="#183F3C"/>
</svg>
