<?xml version="1.0" encoding="UTF-8" standalone="no"?>
<!-- Created with Inkscape (http://www.inkscape.org/) -->

<svg
   width="68.769005mm"
   height="54.472813mm"
   viewBox="0 0 68.769005 54.472813"
   version="1.1"
   id="svg5"
   xmlns="http://www.w3.org/2000/svg"
   xmlns:svg="http://www.w3.org/2000/svg">
  <defs
     id="defs2" />
  <g
     id="layer1"
     transform="translate(-42.94093,-45.440217)">
    <g
       id="g113"
       transform="translate(-18.356869,-47.85856)"
       style="fill:#f7c4ca;fill-opacity:1">
      <path
         style="fill:#f7c4ca;fill-opacity:1;stroke-width:0.410432"
         d="m 91.044836,104.58607 c 0,-0.0852 0.323215,-0.40845 0.718256,-0.71826 0.650968,-0.51052 0.665485,-0.49601 0.154961,0.15496 -0.536176,0.68368 -0.873217,0.9011 -0.873217,0.5633 z"
         id="path135" />
      <path
         style="fill:#f7c4ca;fill-opacity:1;stroke-width:0.410432"
         d="m 107.2569,136.75472 c 0.40858,-0.45147 0.83522,-0.82086 0.94809,-0.82086 0.11287,0 -0.12908,0.36939 -0.53766,0.82086 -0.40858,0.45148 -0.83522,0.82087 -0.94809,0.82087 -0.11287,0 0.12908,-0.36939 0.53766,-0.82087 z"
         id="path133" />
      <path
         style="fill:#f7c4ca;fill-opacity:1;stroke-width:0.410432"
         d="m 86.067299,139.73036 c -0.510524,-0.65097 -0.496007,-0.66549 0.154961,-0.15497 0.395041,0.30982 0.718256,0.63303 0.718256,0.71826 0,0.3378 -0.337041,0.12038 -0.873217,-0.56329 z m -8.091482,-21.44508 c 0,-0.56434 0.09316,-0.79521 0.207016,-0.51304 0.113859,0.28218 0.113859,0.74391 0,1.02608 -0.113859,0.28218 -0.207016,0.0513 -0.207016,-0.51304 z"
         id="path131" />
      <path
         style="fill:#f7c4ca;fill-opacity:1;stroke-width:0.410432"
         d="m 105.30735,147.56457 c 0.28217,-0.11386 0.74391,-0.11386 1.02608,0 0.28217,0.11386 0.0513,0.20702 -0.51304,0.20702 -0.56435,0 -0.79521,-0.0932 -0.51304,-0.20702 z"
         id="path129" />
      <path
         style="fill:#f7c4ca;fill-opacity:1;stroke-width:0.410432"
         d="m 116.55642,113.77053 c 0,-0.56434 0.0932,-0.79521 0.20702,-0.51304 0.11386,0.28217 0.11386,0.74391 0,1.02608 -0.11386,0.28217 -0.20702,0.0513 -0.20702,-0.51304 z"
         id="path127" />
      <path
         style="fill:#f7c4ca;fill-opacity:1;stroke-width:0.410432"
         d="m 85.19618,145.10198 c 0.282172,-0.11386 0.743908,-0.11386 1.02608,0 0.282172,0.11385 0.0513,0.20701 -0.51304,0.20701 -0.564344,0 -0.795212,-0.0932 -0.51304,-0.20701 z m -15.738021,-9.27073 -0.781868,-0.92347 0.923472,0.78187 c 0.867836,0.73476 1.110318,1.06507 0.781868,1.06507 -0.07788,0 -0.493444,-0.41556 -0.923472,-0.92347 z m 22.573761,-2.87302 -0.781868,-0.92347 0.923472,0.78186 c 0.867836,0.73477 1.110318,1.06508 0.781868,1.06508 -0.07788,0 -0.493444,-0.41556 -0.923472,-0.92347 z m 40.90939,-16.55409 c 0.0197,-0.47813 0.11694,-0.57539 0.24796,-0.24797 0.11856,0.29628 0.10398,0.65028 -0.0324,0.78666 -0.13639,0.13638 -0.23339,-0.10603 -0.21557,-0.53869 z M 110.69322,98.276723 c -0.51053,-0.650968 -0.49601,-0.665485 0.15496,-0.154961 0.68368,0.536176 0.9011,0.873217 0.56329,0.873217 -0.0852,0 -0.40844,-0.323216 -0.71825,-0.718256 z"
         id="path125" />
      <path
         style="fill:#f7c4ca;fill-opacity:1;stroke-width:0.410432"
         d="m 85.504004,98.994979 c 0.408579,-0.451476 0.835219,-0.820864 0.948088,-0.820864 0.112869,0 -0.129077,0.369388 -0.537656,0.820864 -0.408579,0.451475 -0.835219,0.820864 -0.948088,0.820864 -0.112868,0 0.129077,-0.369389 0.537656,-0.820864 z"
         id="path123" />
      <path
         style="fill:#f7c4ca;fill-opacity:1;stroke-width:0.410432"
         d="m 115.67076,134.13717 c 0,-0.0852 0.32321,-0.40844 0.71825,-0.71826 0.65097,-0.51052 0.66549,-0.496 0.15497,0.15497 -0.53618,0.68367 -0.87322,0.90109 -0.87322,0.56329 z M 97.534792,93.378991 c 0.296281,-0.118562 0.650279,-0.103981 0.786662,0.0324 0.136383,0.136384 -0.106029,0.233389 -0.538692,0.215567 -0.47813,-0.01969 -0.575385,-0.116949 -0.24797,-0.247969 z"
         id="path121" />
      <path
         style="fill:#f7c4ca;fill-opacity:1;stroke-width:0.410432"
         d="m 102.1265,134.5476 c 0,-0.0852 0.32322,-0.40844 0.71826,-0.71825 0.65097,-0.51053 0.66548,-0.49601 0.15496,0.15496 -0.53618,0.68368 -0.87322,0.90109 -0.87322,0.56329 z"
         id="path119" />
      <path
         style="fill:#f7c4ca;fill-opacity:1;stroke-width:0.410432"
         d="m 123.05853,140.29365 c 0,-0.0852 0.32322,-0.40844 0.71826,-0.71826 0.65097,-0.51052 0.66549,-0.496 0.15496,0.15497 -0.53617,0.68367 -0.87322,0.90109 -0.87322,0.56329 z"
         id="path117" />
      <path
         style="fill:#f7c4ca;fill-opacity:1;stroke-width:0.410432"
         d="m 100.69796,146.98773 c -1.12431,-0.18791 -3.155949,-0.75499 -4.514757,-1.26017 -2.17509,-0.80866 -3.305022,-0.9242 -9.447903,-0.96607 -6.106842,-0.0416 -7.280488,-0.16026 -9.40714,-0.95084 -5.094913,-1.89402 -8.982139,-5.13124 -11.029307,-9.18504 -0.977365,-1.93537 -2.088505,-6.05993 -1.729294,-6.41914 0.07427,-0.0743 0.698959,1.04653 1.388189,2.49068 3.370763,7.0628 9.269154,10.57233 17.768708,10.57233 h 4.100582 l -1.982381,-2.22682 c -2.632414,-2.957 -4.496676,-6.10795 -5.675818,-9.5932 -4.66563,-13.79042 0.09496,-28.73205 10.854711,-34.068689 2.97067,-1.473397 3.185586,-1.516192 7.614278,-1.516192 4.442402,0 4.636192,0.03897 7.684712,1.545639 7.04257,3.480629 10.54041,10.458622 10.02637,20.002042 -0.43713,8.11535 -3.21116,14.76092 -8.71857,20.88648 l -1.97614,2.19794 1.82743,-0.29196 c 2.36921,-0.37851 5.78457,-1.92278 7.82285,-3.53713 3.53546,-2.80013 7.42771,-9.76351 10.56591,-18.90281 1.66708,-4.85497 3.02674,-7.90582 3.71215,-8.32943 2.5287,-1.56282 4.22452,7.99977 2.73103,15.4 -1.43948,7.13259 -4.51167,12.86157 -9.36724,17.4679 -6.19662,5.87853 -13.65802,8.1203 -22.24837,6.68448 z m 0.31617,-11.29924 c 3.24685,-2.5296 6.04507,-6.64616 7.9239,-11.65716 1.0509,-2.80281 1.15586,-3.57401 1.17303,-8.61907 0.0178,-5.23318 -0.0451,-5.67757 -1.13303,-8.00342 -1.45212,-3.10444 -2.81851,-4.56645 -5.41502,-5.79395 -4.186006,-1.978943 -8.985044,-0.88715 -12.386408,2.81793 -3.222624,3.51038 -4.646518,7.54953 -4.646518,13.18075 0,6.40891 2.278527,12.46164 6.00121,15.94173 1.247559,1.16627 5.379288,3.5897 6.141786,3.60242 0.245127,0.004 1.298599,-0.65707 2.34105,-1.46923 z"
         id="path115" />
    </g>
  </g>
</svg>
