<svg width="100" height="9" viewBox="0 0 100 9" fill="none" xmlns="http://www.w3.org/2000/svg">
<path d="M2.36971 1.60422H0V0.104403H6.45294V1.60422H4.07949V8.40587H2.36971V1.60422Z" fill="#183F3C"/>
<path d="M8.32396 0.10065H10.0337V3.62146H13.5883V0.10065H15.3018V8.40587H13.5883V5.14377H10.0337V8.40587H8.32396V0.10065Z" fill="#183F3C"/>
<path d="M17.649 0.10065H20.7274C22.4259 0.10065 23.8208 0.895569 23.8208 2.83783C23.8484 3.36473 23.7049 3.88643 23.4116 4.32503C23.1183 4.76363 22.691 5.09558 22.1935 5.27127L24.087 8.40962H22.1335L20.4462 5.52623H19.3588V8.40587H17.649V0.10065ZM20.6787 4.0864C21.5223 4.0864 22.0585 3.75646 22.0585 2.83783C22.0585 1.91919 21.4961 1.60422 20.6787 1.60422H19.3588V4.0864H20.6787Z" fill="#183F3C"/>
<path d="M26.8017 0.10065H32.2947V1.60046H28.5039V3.50523H31.841V4.97131H28.5039V6.90606H32.4634V8.40587H26.7941L26.8017 0.10065Z" fill="#183F3C"/>
<path d="M35.2943 0.10065H40.7949V1.60046H37.0079V3.50523H40.3412V4.97131H37.0079V6.90606H40.9674V8.40587H35.2943V0.10065Z" fill="#183F3C"/>
<path d="M47.6903 0.10065H50.6112C52.3097 0.10065 53.7008 0.944314 53.7008 2.88657C53.7008 4.82883 52.2947 5.68746 50.6112 5.68746H49.4001V8.40587H47.6903V0.10065ZM50.5624 4.18389C51.4061 4.18389 51.9423 3.80896 51.9423 2.88657C51.9423 1.96419 51.3798 1.60422 50.5624 1.60422H49.4001V4.18389H50.5624Z" fill="#183F3C"/>
<path d="M56.2917 0.10065H58.0052V8.40587H56.2917V0.10065Z" fill="#183F3C"/>
<path d="M60.7049 4.25514C60.6812 3.69137 60.7745 3.1288 60.9791 2.60293C61.1836 2.07705 61.495 1.59928 61.8934 1.19976C62.2919 0.800241 62.7688 0.487647 63.2942 0.281694C63.8195 0.0757409 64.3818 -0.0190826 64.9456 0.00317982C66.303 0.00317982 67.2816 0.378132 67.9453 1.15054L66.7867 2.30162C66.5515 2.0426 66.2605 1.84049 65.9357 1.71056C65.6109 1.58064 65.2608 1.52632 64.9119 1.55172C63.4121 1.55172 62.4297 2.71034 62.4297 4.26264C62.4082 4.62899 62.4648 4.9957 62.5958 5.33853C62.7267 5.68135 62.9289 5.99246 63.1891 6.25124C63.4493 6.51002 63.7615 6.71057 64.1051 6.83962C64.4486 6.96867 64.8156 7.02326 65.1819 6.99979C65.738 7.00906 66.2902 6.90576 66.8054 6.69608V5.34999H64.8032V3.85018H68.369V7.56598C67.4351 8.21624 66.3196 8.55482 65.1819 8.53336C62.5009 8.52211 60.7049 6.71108 60.7049 4.25514Z" fill="#183F3C"/>
<path d="M70.9599 4.25514C70.9361 3.69137 71.0295 3.1288 71.234 2.60293C71.4386 2.07705 71.7499 1.59928 72.1484 1.19976C72.5469 0.800241 73.0238 0.487647 73.5491 0.281694C74.0745 0.0757409 74.6368 -0.0190826 75.2006 0.00317982C76.5579 0.00317982 77.5328 0.378132 78.2002 1.15054L77.0379 2.30162C76.8051 2.04475 76.5172 1.84388 76.1958 1.71402C75.8744 1.58415 75.5278 1.52866 75.1819 1.55172C73.682 1.55172 72.6997 2.71034 72.6997 4.26264C72.6782 4.62899 72.7348 4.9957 72.8657 5.33853C72.9967 5.68135 73.1989 5.99246 73.4591 6.25124C73.7193 6.51002 74.0315 6.71057 74.375 6.83962C74.7186 6.96867 75.0856 7.02326 75.4518 6.99979C76.008 7.00906 76.5602 6.90576 77.0754 6.69608V5.34999H75.0731V3.85018H78.6389V7.56598C77.705 8.21624 76.5896 8.55482 75.4518 8.53336C72.7559 8.52211 70.9599 6.71108 70.9599 4.25514Z" fill="#183F3C"/>
<path d="M81.5336 0.10065H83.2433V8.40587H81.5336V0.10065Z" fill="#183F3C"/>
<path d="M86.2242 0.10065H91.7248V1.60046H87.934V3.50523H91.2711V4.97131H87.934V6.90606H91.9123V8.40587H86.243L86.2242 0.10065Z" fill="#183F3C"/>
<path d="M94.0457 6.77483L95.4406 5.96492C95.5962 6.27905 95.8368 6.54325 96.1351 6.7275C96.4333 6.91176 96.7773 7.00869 97.1279 7.0073C97.8365 7.0073 98.2865 6.65109 98.2865 6.16366C98.2865 5.57498 97.8215 5.36876 97.0416 5.0388L96.6142 4.8588C95.3806 4.33012 94.5594 3.6702 94.5594 2.27912C94.5594 0.996784 95.5381 0.0294046 97.0641 0.0294046C97.5592 -0.00626166 98.0539 0.104467 98.4866 0.347808C98.9193 0.591149 99.2709 0.956366 99.4976 1.39799L98.1665 2.2529C98.0784 2.03372 97.9258 1.84643 97.729 1.71587C97.5322 1.58531 97.3003 1.51761 97.0641 1.52173C96.9617 1.51245 96.8584 1.52435 96.7608 1.55668C96.6631 1.58901 96.5732 1.64107 96.4965 1.70965C96.4198 1.77822 96.3581 1.86184 96.3151 1.9553C96.2722 2.04875 96.2489 2.15006 96.2467 2.2529C96.2467 2.76658 96.5654 2.97279 97.2966 3.2915L97.724 3.47523C99.1788 4.09765 100 4.73508 100 6.16366C100 7.70471 98.7889 8.54835 97.1616 8.54835C95.5343 8.54835 94.5369 7.76471 94.0457 6.77483Z" fill="#183F3C"/>
</svg>
