<?xml version="1.0" encoding="UTF-8" standalone="no"?>
<!-- Created with Inkscape (http://www.inkscape.org/) -->

<svg
   width="158.01137mm"
   height="29.15929mm"
   viewBox="0 0 158.01137 29.15929"
   version="1.1"
   id="svg1505"
   xmlns="http://www.w3.org/2000/svg"
   xmlns:svg="http://www.w3.org/2000/svg">
  <defs
     id="defs1502" />
  <g
     id="layer1"
     transform="translate(-42.912697,-136.74359)">
    <path
       style="fill:#073532;fill-opacity:1;fill-rule:nonzero;stroke:none;stroke-width:0.352778"
       d="m 89.014981,162.20559 c 0.463021,0 0.826805,0.17227 1.091388,0.35832 l 0.457518,-0.6918 c -0.38862,-0.27146 -0.877817,-0.4754 -1.543403,-0.4754 -1.364262,0 -2.333025,0.88882 -2.333025,2.25446 0,1.36289 0.968763,2.25171 2.333025,2.25171 0.665586,0 1.154783,-0.20394 1.543403,-0.47544 l -0.457518,-0.69176 c -0.264583,0.18606 -0.628367,0.35828 -1.091388,0.35828 -0.840634,0 -1.463499,-0.56084 -1.463499,-1.44279 0,-0.88332 0.622865,-1.44558 1.463499,-1.44558"
       id="path34" />
    <path
       style="fill:#073532;fill-opacity:1;fill-rule:nonzero;stroke:none;stroke-width:0.352778"
       d="m 95.588218,165.09396 c -0.808919,0 -1.394601,-0.58564 -1.394601,-1.44279 0,-0.85989 0.585682,-1.44558 1.394601,-1.44558 0.814423,0 1.394566,0.58569 1.394566,1.44558 0,0.85715 -0.580143,1.44279 -1.394566,1.44279 m 0,-3.69725 c -1.284358,0 -2.258624,0.91362 -2.258624,2.25446 0,1.33809 0.974266,2.25171 2.258624,2.25171 1.284323,0 2.265469,-0.91362 2.265469,-2.25171 0,-1.34084 -0.981146,-2.25446 -2.265469,-2.25446"
       id="path36" />
    <path
       style="fill:#073532;fill-opacity:1;fill-rule:nonzero;stroke:none;stroke-width:0.352778"
       d="m 102.33647,163.48304 h -0.62978 v -1.26503 h 0.62978 c 0.4258,0 0.69864,0.20394 0.69864,0.62287 0,0.42721 -0.27284,0.64216 -0.69864,0.64216 m 0.0868,-1.99263 h -1.50622 v 4.32015 h 0.78962 v -1.59854 h 0.7166 c 0.96876,0 1.45658,-0.58702 1.45658,-1.37665 0,-0.76482 -0.48782,-1.34496 -1.45658,-1.34496"
       id="path38" />
    <path
       style="fill:#073532;fill-opacity:1;fill-rule:nonzero;stroke:none;stroke-width:0.352778"
       d="m 107.62122,163.82343 h 1.61646 v -0.72898 h -1.61646 v -0.86406 h 1.7708 v -0.73998 h -2.56176 v 4.32015 h 2.59207 v -0.7414 h -1.80111 z m 0,0"
       id="path40" />
    <path
       style="fill:#073532;fill-opacity:1;fill-rule:nonzero;stroke:none;stroke-width:0.352778"
       d="m 115.38512,164.45872 h -0.007 l -2.09737,-2.96831 h -0.73448 v 4.32015 h 0.78962 v -2.9628 h 0.007 l 2.09737,2.9628 h 0.73448 v -4.32015 h -0.78958 z m 0,0"
       id="path42" />
    <path
       style="fill:#073532;fill-opacity:1;fill-rule:nonzero;stroke:none;stroke-width:0.352778"
       d="m 122.3056,163.16198 h -2.04915 v -1.67157 h -0.79096 v 4.32015 h 0.79096 v -1.8948 h 2.04915 v 1.8948 h 0.78962 v -4.32015 h -0.78962 z m 0,0"
       id="path44" />
    <path
       style="fill:#073532;fill-opacity:1;fill-rule:nonzero;stroke:none;stroke-width:0.352778"
       d="m 127.49669,164.11282 0.62974,-1.69087 0.62978,1.69087 z m 0.23565,-2.62241 -1.73496,4.32015 h 0.87644 l 0.36379,-0.98118 h 1.77768 l 0.36516,0.98118 h 0.87506 l -1.73358,-4.32015 z m 0,0"
       id="path46" />
    <path
       style="fill:#073532;fill-opacity:1;fill-rule:nonzero;stroke:none;stroke-width:0.352778"
       d="m 135.27572,163.36592 v 0.72898 h 1.24022 c -0.0496,0.46852 -0.43271,0.99906 -1.26502,0.99906 -0.89436,0 -1.45662,-0.60356 -1.45662,-1.44279 0,-0.82268 0.54296,-1.44558 1.4249,-1.44558 0.48782,0 0.88332,0.18468 1.18512,0.43823 l 0.52504,-0.67247 c -0.41342,-0.33348 -0.96326,-0.57326 -1.67844,-0.57326 -1.41252,0 -2.32065,0.91912 -2.32065,2.25308 0,1.38081 0.96326,2.25171 2.28343,2.25171 1.45658,0 2.14697,-1.06108 2.14697,-2.2903 0,-0.0799 0,-0.15985 -0.006,-0.24666 z m 0,0"
       id="path48" />
    <path
       style="fill:#073532;fill-opacity:1;fill-rule:nonzero;stroke:none;stroke-width:0.352778"
       d="m 141.15853,163.82343 h 1.61647 v -0.72898 h -1.61647 v -0.86406 h 1.77218 v -0.73998 h -2.56176 v 4.32015 h 2.59207 v -0.7414 h -1.80249 z m 0,0"
       id="path50" />
    <path
       style="fill:#073532;fill-opacity:1;fill-rule:nonzero;stroke:none;stroke-width:0.352778"
       d="m 148.92381,164.45872 h -0.007 l -2.09737,-2.96831 h -0.73449 v 4.32015 h 0.78963 v -2.9628 h 0.007 l 2.09737,2.9628 h 0.73448 v -4.32015 h -0.78959 z m 0,0"
       id="path52" />
    <path
       style="fill:#073532;fill-opacity:1;fill-rule:nonzero;stroke:none;stroke-width:0.352778"
       d="m 57.857521,144.08302 h -6.887436 v -1.44005 h 5.77536 c 1.310513,0 1.632973,0.11851 1.701878,0.15572 0.08819,0.11851 0.130912,0.27837 0.130912,0.48645 0,0.66421 -0.275608,0.79788 -0.720714,0.79788 m -1.112076,-2.21588 h -6.552572 v 2.99172 h 7.664648 c 0.950845,0 1.49655,-0.57327 1.49655,-1.57372 0,-0.39825 -0.107488,-0.73174 -0.31557,-0.99081 -0.206707,-0.25631 -0.675238,-0.42719 -2.293056,-0.42719"
       id="path54" />
    <path
       style="fill:#073532;fill-opacity:1;fill-rule:nonzero;stroke:none;stroke-width:0.352778"
       d="m 58.137263,151.1372 c -0.04823,0.008 -0.292142,0.0345 -1.391818,0.0345 h -5.77536 v -1.4869 h 6.880546 c 0.436838,0.0166 0.727604,0.16812 0.727604,0.84198 0,0.35691 -0.133671,0.53054 -0.440972,0.61047 M 57.8713,148.90893 h -7.678427 v 3.03858 h 6.552572 c 1.249881,0 1.452453,-0.0331 1.551672,-0.051 0.682128,-0.17501 1.056954,-0.66146 1.056954,-1.36977 0,-1.0101 -0.526411,-1.58475 -1.482771,-1.61782"
       id="path56" />
    <path
       style="fill:#073532;fill-opacity:1;fill-rule:nonzero;stroke:none;stroke-width:0.352778"
       d="m 65.665502,144.78031 c 0,0.8971 -0.412045,1.43592 -1.293989,1.69637 l -1.022509,0.30179 0.977036,0.42581 c 0.901241,0.39274 1.339462,0.97703 1.339462,1.78731 v 2.87184 c 0,1.27193 -0.270122,2.21588 -0.800665,2.80568 -0.533294,0.58981 -1.453822,0.9853 -2.727131,1.17823 -0.774456,0.0992 -1.905825,0.15021 -3.362413,0.15021 h -15.08538 v -18.18322 h 15.08538 c 1.296737,0 2.428106,0.0634 3.355524,0.18603 1.303626,0.18879 2.229654,0.57878 2.751941,1.16031 0.519536,0.57189 0.782744,1.50895 0.782744,2.78502 z m -3.427198,-7.54752 c -0.966004,-0.12953 -2.131825,-0.19567 -3.463011,-0.19567 H 42.912697 v 19.73764 h 15.862596 c 1.489661,0 2.654103,-0.0537 3.469901,-0.15847 1.463478,-0.22049 2.539739,-0.70143 3.195659,-1.42627 0.662834,-0.73726 1.000478,-1.85623 1.000478,-3.32659 v -2.87184 c 0,-0.88332 -0.366572,-1.5875 -1.091424,-2.1015 0.716597,-0.44511 1.091424,-1.16169 1.091424,-2.10978 v -2.83462 c 0,-1.47588 -0.33073,-2.58796 -0.982557,-3.30454 -0.646289,-0.71934 -1.728054,-1.19338 -3.22047,-1.40836"
       id="path58" />
    <path
       style="fill:#073532;fill-opacity:1;fill-rule:nonzero;stroke:none;stroke-width:0.352778"
       d="m 85.823435,150.29384 v -12.47951 h 6.423025 v 14.05048 c 0,1.25263 -0.252165,2.18694 -0.749652,2.77537 -0.501615,0.58704 -1.375269,0.98254 -2.593481,1.17133 -0.879158,0.12402 -2.058776,0.18604 -3.50573,0.18604 h -9.615946 c -1.475881,0 -2.669258,-0.062 -3.541536,-0.18466 -1.223715,-0.19017 -2.09737,-0.58429 -2.597608,-1.17271 -0.497488,-0.58705 -0.749653,-1.52136 -0.749653,-2.77537 v -14.05048 h 6.461619 v 12.47951 c 0,0.91088 0.485069,1.30362 0.909496,1.47726 0.327977,0.11989 0.847513,0.17777 1.586124,0.17777 h 5.479098 c 0.741362,0 1.260898,-0.0579 1.60401,-0.18466 0.405165,-0.16812 0.890234,-0.56086 0.890234,-1.47037 m -0.775828,0 c 0,0.51676 -0.220486,0.67524 -0.396875,0.74827 -0.162631,0.0593 -0.52504,0.12954 -1.321541,0.12954 h -5.479098 c -0.795126,0 -1.157534,-0.0703 -1.306371,-0.12402 -0.192934,-0.0786 -0.413421,-0.23703 -0.413421,-0.75379 v -13.25672 h -8.014652 v 14.82769 c 0,1.4428 0.314184,2.54524 0.935673,3.27697 0.622864,0.7345 1.656397,1.21819 3.075798,1.43867 0.913624,0.12816 2.142843,0.19431 3.654531,0.19431 h 9.615946 c 1.482796,0 2.699597,-0.0662 3.620135,-0.19568 1.412487,-0.21911 2.444644,-0.7028 3.070261,-1.4373 0.620112,-0.73173 0.934296,-1.83555 0.934296,-3.27697 v -14.82769 h -7.974682 z m 0,0"
       id="path60" />
    <path
       style="fill:#073532;fill-opacity:1;fill-rule:nonzero;stroke:none;stroke-width:0.352778"
       d="M 111.93725,155.99755 H 95.628153 V 137.7344 h 6.502967 v 14.21447 h 9.80613 z m 0.77582,-4.8259 h -9.80609 v -14.21308 h -8.054656 v 19.81619 h 17.860746 z m 0,0"
       id="path62" />
    <path
       style="fill:#073532;fill-opacity:1;fill-rule:nonzero;stroke:none;stroke-width:0.352778"
       d="m 131.10437,151.94749 v 4.05006 H 114.79531 V 137.7344 h 6.50434 v 14.21309 z m -9.02889,-14.98892 h -8.056 v 19.81619 h 17.86075 v -5.60311 h -9.80475 z m 0,0"
       id="path64" />
    <path
       style="fill:#073532;fill-opacity:1;fill-rule:nonzero;stroke:none;stroke-width:0.352778"
       d="M 140.39237,155.99892 H 133.928 v -18.18597 h 6.46437 z m 0.77583,-18.9618 h -8.01606 v 19.73764 h 8.01606 z m 0,0"
       id="path66" />
    <path
       style="fill:#073532;fill-opacity:1;fill-rule:nonzero;stroke:none;stroke-width:0.352778"
       d="m 143.00649,137.7344 h 20.2117 v 4.09002 h -7.16167 v 14.1745 h -6.46162 v -14.1745 h -6.58841 z m -0.77583,4.86723 h 6.58841 v 14.17313 h 8.01327 v -14.17313 h 7.16168 v -5.64306 h -21.76336 z m 0,0"
       id="path68" />
    <path
       style="fill:#073532;fill-opacity:1;fill-rule:nonzero;stroke:none;stroke-width:0.352778"
       d="m 165.87503,137.7344 h 20.21307 v 4.09002 h -7.16305 v 14.1745 h -6.46162 v -14.1745 h -6.5884 z m -0.77583,4.86723 h 6.5884 v 14.17313 h 8.01332 v -14.17313 h 7.16301 v -5.64306 H 165.0992 Z m 0,0"
       id="path70" />
    <path
       style="fill:#073532;fill-opacity:1;fill-rule:nonzero;stroke:none;stroke-width:0.352778"
       d="m 196.68385,141.59291 c 0,0.79237 -0.67388,1.20716 -1.33946,1.20716 h -1.86863 v -2.39503 h 1.67019 c 0.70143,0 1.5379,0.20533 1.5379,1.18787 m 0.85577,0 c 0,-1.35599 -1.10243,-1.96233 -2.19523,-1.96233 h -2.42122 c -0.16122,0 -0.28801,0.13367 -0.28801,0.30455 v 5.68992 c 0,0.17087 0.12679,0.30317 0.28801,0.30317 h 0.26458 c 0.10749,0 0.28801,-0.0386 0.28801,-0.30317 v -2.03537 h 1.64952 l 1.08588,2.1084 c 0.0634,0.12541 0.19156,0.2136 0.31143,0.2136 h 0.38174 c 0.0965,0 0.17502,-0.0413 0.21774,-0.11438 0.0455,-0.0772 0.0413,-0.17639 -0.007,-0.26458 l -1.10518,-2.02021 c 0.73036,-0.18465 1.52964,-0.78134 1.52964,-1.9196"
       id="path72" />
    <path
       style="fill:#073532;fill-opacity:1;fill-rule:nonzero;stroke:none;stroke-width:0.352778"
       d="m 194.8469,148.04213 c -2.88696,0 -5.23653,-2.34956 -5.23653,-5.23793 0,-2.87872 2.34957,-5.22 5.23653,-5.22 2.88837,0 5.23794,2.34128 5.23794,5.22 0,2.88837 -2.34957,5.23793 -5.23794,5.23793 m 0,-11.29854 c -3.34172,0 -6.06058,2.71887 -6.06058,6.06061 0,3.34175 2.71886,6.06062 6.06058,6.06062 3.35139,0 6.07716,-2.71887 6.07716,-6.06062 0,-3.34174 -2.72577,-6.06061 -6.07716,-6.06061"
       id="path74" />
  </g>
</svg>
