<svg width="350" height="36" viewBox="0 0 350 36" fill="none" xmlns="http://www.w3.org/2000/svg">
<g clip-path="url(#clip0_0_13)">
<path d="M139.427 12.8099C139.427 10.8396 138.828 9.03785 137.724 7.57319H137.73L135.074 4.04524L134.795 5.09142C133.196 4.23123 131.232 3.73138 128.959 3.73138H120.503L120.282 3.95224V31.153L118.021 31.6528L120.282 34.6344V34.6693L120.392 34.7797L120.479 34.8902V34.8669L120.508 34.8902H125.228L125.449 34.6693V21.8943H128.744L138.317 34.6693L138.538 34.8902H144.635L144.855 34.6693L134.44 20.5575C137.515 19.2207 139.427 16.3727 139.427 12.8099ZM128.965 16.7273H125.449V8.93904H128.965C131.86 8.93904 133.551 10.3223 133.551 12.8099C133.551 15.2975 131.86 16.7273 128.965 16.7273Z" fill="#74674C"/>
<path d="M193.904 3.73138H183.442L183.221 3.95224V31.1472L180.914 31.6586L183.372 34.896L183.39 34.8378L183.448 34.896H193.91C203.482 34.896 210.381 27.9505 210.381 19.3137C210.381 10.6769 203.482 3.73138 193.91 3.73138H193.904ZM193.904 29.6883H188.382V8.93904H193.904C200.181 8.93904 204.587 13.3446 204.587 19.3137C204.587 25.2827 200.181 29.6883 193.904 29.6883Z" fill="#74674C"/>
<path d="M295.872 3.06299C286.747 3.06299 279.4 10.2758 279.4 19.3137C279.4 28.3515 286.747 35.5644 295.872 35.5644C304.997 35.5644 312.343 28.3515 312.343 19.3137C312.343 10.2758 304.95 3.06299 295.872 3.06299ZM295.872 30.13C289.996 30.13 285.276 25.3641 285.276 19.3137C285.276 13.2633 289.996 8.49732 295.872 8.49732C301.748 8.49732 306.467 13.2633 306.467 19.3137C306.467 25.3641 301.748 30.13 295.872 30.13Z" fill="#74674C"/>
<path d="M349.919 3.87083L347.53 0.685791L346.472 3.73134H345.013L344.792 3.9522V26.2998L327.652 3.9522L327.205 3.73134H322.265L322.044 3.9522V31.1587L319.806 31.6528L322.044 34.5995V34.6693L322.265 34.8901H326.984L327.205 34.6693V12.3217L344.345 34.6693L344.792 34.8901H349.779L350 34.6693V3.9522L349.919 3.87083Z" fill="#74674C"/>
<path d="M23.7076 3.73136H2.51665L2.28997 3.95222V5.18439L0 5.69004L2.28997 8.71234L2.3016 8.72397L2.45853 8.92739L2.46434 8.89252L2.51665 8.93901H12.1764V31.1587L9.93872 31.6528L12.1764 34.5995V34.6693L12.3972 34.8901H17.1167L17.3375 34.6693V8.93901H26.9973L27.224 8.71234V3.95222L24.7654 0.679993L23.7076 3.73136Z" fill="#74674C"/>
<path d="M59.9288 0.685791L58.8709 3.73134H57.4005L57.1738 3.9522V15.5241H41.3707V3.97545L41.4055 3.95801L38.947 0.685791L37.895 3.73134H36.4304L36.2095 3.9522V31.1529L33.9486 31.6528L36.2095 34.6286V34.6693L36.3315 34.7913L36.4071 34.8901L36.4129 34.8727L36.4304 34.8901H41.1498L41.3707 34.6693V20.7376H57.1738V31.1529L54.9013 31.6528L57.1738 34.6576V34.6693L57.2203 34.7158L57.354 34.8901L57.3656 34.8552L57.4005 34.8901H62.1606L62.3815 34.6693V3.9522L62.364 3.92895L59.9288 0.685791Z" fill="#74674C"/>
<path d="M91.7966 26.6253L90.733 29.6825H78.4055V20.7376H89.309L89.5299 20.5109V15.7799L89.5357 15.7741H89.5299V15.7508L89.4659 15.6811L87.083 12.5018L86.031 15.5241H78.4055V8.939H93.0927L93.3194 8.71233V3.98708L93.3601 3.95801L90.9074 0.685791L89.8496 3.73134H73.4594L73.2385 3.9522V31.1471L70.9369 31.6528L73.3954 34.8901L73.4071 34.8378L73.4594 34.8901H94.0285L94.2493 34.6693V29.9033V29.8975L91.7966 26.6253Z" fill="#74674C"/>
<path d="M171.51 26.6253L170.452 29.6825H158.119V20.7376H169.028L169.249 20.5109V15.7508L169.208 15.7101L169.214 15.7043L166.761 12.4321L165.686 15.5241H158.119V8.939H172.806L173.033 8.71233V3.96383L173.038 3.95801L173.033 3.9522L173.027 3.94639L170.58 0.685791L169.528 3.73134H153.178L152.952 3.9522V31.1471L150.656 31.6528L153.114 34.8901L153.126 34.8436L153.178 34.8901H173.742L173.968 34.6693V29.9033L173.963 29.8975H173.968L171.51 26.6253Z" fill="#74674C"/>
<path d="M267.247 0.685791L266.189 3.73134H264.759L264.539 3.9522V31.1529L262.266 31.6528L264.539 34.646V34.6693L264.603 34.739L264.719 34.8901L264.73 34.8611L264.759 34.8901H269.479L269.7 34.6693V3.9522L269.682 3.92895L267.247 0.685791Z" fill="#74674C"/>
<path d="M253.095 26.6253L252.031 29.6825H241.97V3.98708L242.017 3.95801L239.564 0.685791L238.506 3.73134H236.989L236.809 3.90571V31.1471L234.507 31.6528L236.809 34.6925V34.7158L236.885 34.7913L236.96 34.8901L236.966 34.8727L236.989 34.8901H255.373L255.553 34.7158V29.9033L255.547 29.8975H255.553L253.095 26.6253Z" fill="#74674C"/>
<path d="M24.7073 0.668396L24.9282 0.889257V5.65519L24.7073 5.87605H15.0476V31.6063L14.8267 31.8272H10.1073L9.88641 31.6063V5.87605H0.220861L0 5.65519V0.889257L0.220861 0.668396H24.7073Z" fill="#EDE0D1"/>
<path d="M38.8598 0.668396L39.0807 0.889257V12.467H54.8838V0.889257L55.1047 0.668396H59.8706L60.0915 0.889257V31.6063L59.8706 31.8272H55.1047L54.8838 31.6063V17.6747H39.0807V31.6063L38.8598 31.8272H34.1404L33.9195 31.6063V0.889257L34.1404 0.668396H38.8598Z" fill="#EDE0D1"/>
<path d="M90.8027 0.668396L91.0236 0.889257V5.65519L90.8027 5.87605H76.1155V12.467H87.0249L87.2457 12.6879V17.4538L87.0249 17.6747H76.1155V26.6253H91.7385L91.9593 26.8462V31.6121L91.7385 31.833H71.1694L70.9485 31.6121V0.889257L71.1694 0.668396H90.8027Z" fill="#EDE0D1"/>
<path d="M126.675 0.668396C133.127 0.668396 137.137 4.63226 137.137 9.75274C137.137 13.3156 135.225 16.1635 132.15 17.5003L142.565 31.6121L142.345 31.833H136.248L136.027 31.6121L126.454 18.8371H123.159V31.6121L122.938 31.833H118.218L117.998 31.6121V0.889257L118.218 0.668396H126.675ZM123.159 13.6701H126.675C129.57 13.6701 131.261 12.2461 131.261 9.75274C131.261 7.25934 129.57 5.88187 126.675 5.88187H123.159V13.6701Z" fill="#EDE0D1"/>
<path d="M170.516 0.668396L170.737 0.889257V5.65519L170.516 5.87605H155.823V12.467H166.732L166.953 12.6879V17.4538L166.732 17.6747H155.823V26.6253H171.452L171.673 26.8462V31.6121L171.452 31.833H150.883L150.662 31.6121V0.889257L150.883 0.668396H170.516Z" fill="#EDE0D1"/>
<path d="M191.614 0.668396C201.186 0.668396 208.085 7.61388 208.085 16.2507C208.085 24.8875 201.186 31.833 191.614 31.833H181.152L180.931 31.6121V0.889257L181.152 0.668396H191.614ZM186.092 26.6253H191.614C197.891 26.6253 202.297 22.2197 202.297 16.2507C202.297 10.2816 197.891 5.87605 191.614 5.87605H186.092V26.6195V26.6253Z" fill="#EDE0D1"/>
<path d="M239.506 0.668396L239.686 0.848572V26.6195H253.089L253.263 26.8404V31.647L253.089 31.8272H234.705L234.525 31.647V0.848572L234.705 0.668396H239.512H239.506Z" fill="#EDE0D1"/>
<path d="M267.189 0.668396L267.41 0.889257V31.6063L267.189 31.8272H262.469L262.249 31.6063V0.889257L262.469 0.668396H267.189Z" fill="#EDE0D1"/>
<path d="M310.053 16.2507C310.053 25.2885 302.666 32.5014 293.582 32.5014C284.497 32.5014 277.11 25.2885 277.11 16.2507C277.11 7.21284 284.457 0 293.582 0C302.707 0 310.053 7.21284 310.053 16.2507ZM282.986 16.2507C282.986 22.3069 287.706 27.067 293.582 27.067C299.458 27.067 304.177 22.3011 304.177 16.2507C304.177 10.2003 299.458 5.43433 293.582 5.43433C287.706 5.43433 282.986 10.2003 282.986 16.2507Z" fill="#EDE0D1"/>
<path d="M324.915 0.668396L325.357 0.889257L342.497 23.2369V0.889257L342.717 0.668396H347.483L347.704 0.889257V31.6063L347.483 31.8272H342.497L342.049 31.6063L324.909 9.25871V31.6063L324.688 31.8272H319.969L319.748 31.6063V0.889257L319.969 0.668396H324.909H324.915Z" fill="#EDE0D1"/>
</g>
<defs>
<clipPath id="clip0_0_13">
<rect width="350" height="35.5585" fill="white"/>
</clipPath>
</defs>
</svg>
