<?xml version="1.0" encoding="UTF-8" standalone="no"?>
<!-- Created with Inkscape (http://www.inkscape.org/) -->

<svg
   width="97.755264mm"
   height="35.501019mm"
   viewBox="0 0 97.755264 35.501019"
   version="1.1"
   id="svg1197"
   xmlns="http://www.w3.org/2000/svg"
   xmlns:svg="http://www.w3.org/2000/svg">
  <defs
     id="defs1194" />
  <g
     id="layer1"
     transform="translate(-56.258244,-130.57249)">
    <path
       style="fill:#073532;fill-opacity:1;fill-rule:nonzero;stroke:none;stroke-width:0.352778"
       d="m 66.35099,134.17468 c 0,0.60083 -0.03858,1.3367 -0.755163,1.3367 -0.600827,0 -0.853006,-0.56086 -1.471747,-1.29674 -0.562239,-0.6587 -1.318782,-1.45382 -2.499762,-1.45382 -0.910883,0 -1.841059,0.52365 -1.841059,1.60816 0,2.96417 7.207141,1.64676 7.207141,6.60632 0,2.63481 -2.440506,4.51445 -5.753308,4.51445 -1.956816,0 -3.932922,-0.58153 -4.553038,-1.55029 -0.329354,-0.52366 -0.38723,-1.16306 -0.38723,-1.72393 0,-0.25217 -0.03858,-0.50436 -0.03858,-0.73587 0,-0.60082 0.367933,-0.89159 0.73587,-0.89159 0.658703,0 0.79375,0.71658 1.802476,1.78181 0.657323,0.69728 1.529623,1.49241 2.904902,1.49241 0.56224,0 1.20165,-0.13643 1.627463,-0.50436 0.348647,-0.31006 0.658703,-0.77446 0.658703,-1.39457 0,-3.04134 -7.187847,-1.95682 -7.187847,-6.4699 0,-2.36471 2.170412,-4.28156 5.327495,-4.28156 1.473126,0 3.004125,0.38723 3.739998,1.08452 0.367937,0.36793 0.48369,1.21956 0.48369,1.87826"
       id="path4" />
    <path
       style="fill:#073532;fill-opacity:1;fill-rule:nonzero;stroke:none;stroke-width:0.352778"
       d="m 80.265043,144.77179 c 0,0.33073 -0.329354,0.50437 -0.755167,0.50437 h -4.185101 c -0.425814,0 -0.755164,-0.17364 -0.755164,-0.50437 0,-0.28938 0.232887,-0.42581 0.48369,-0.58015 0.387231,-0.23289 0.600823,-0.50436 0.71658,-0.81442 0.09784,-0.27147 0.194303,-0.69728 0.194303,-2.05327 v -2.38263 c 0,-1.02664 -0.48369,-1.80248 -1.569586,-1.80248 -0.40652,0 -0.890213,0.13643 -1.278819,0.52366 -0.658703,0.63941 -0.87092,1.68534 -0.87092,3.66145 0,1.35599 0.09646,1.7818 0.192927,2.05327 0.09784,0.31006 0.32935,0.60082 0.717956,0.81442 0.250803,0.15434 0.483693,0.29077 0.483693,0.58015 0,0.33073 -0.329353,0.50437 -0.755166,0.50437 h -4.146515 c -0.425817,0 -0.735873,-0.17364 -0.735873,-0.50437 0,-0.28938 0.213596,-0.42581 0.464396,-0.58015 0.38723,-0.2136 0.62012,-0.50436 0.717959,-0.81442 0.09646,-0.27147 0.192928,-0.69728 0.192928,-2.05327 v -6.62561 c 0,-0.56224 -0.0193,-0.96876 -0.135051,-1.27882 -0.117133,-0.31006 -0.330729,-0.48369 -0.698666,-0.6587 -0.212217,-0.0965 -0.618737,-0.17364 -0.618737,-0.50299 0,-0.27147 0.212217,-0.44648 0.658704,-0.54295 0.89021,-0.21359 1.956812,-0.52227 2.654098,-0.79375 0.115757,-0.04 0.31006,-0.11713 0.502984,-0.11713 0.252183,0 0.504363,0.13643 0.504363,0.6587 v 5.0767 c 0,0.0965 0.03859,0.13504 0.07717,0.13504 0.03859,0 0.07717,-0.0386 0.115757,-0.0965 0.795126,-1.12448 1.937519,-1.62746 3.139168,-1.62746 1.02664,0 2.091863,0.4451 2.711979,1.41386 0.445107,0.65871 0.581533,1.53101 0.581533,2.57694 v 2.38263 c 0,1.35599 0.115757,1.7818 0.192927,2.05327 0.09784,0.31006 0.348644,0.60082 0.717956,0.81442 0.270097,0.15434 0.483694,0.29077 0.483694,0.58015"
       id="path6" />
    <path
       style="fill:#073532;fill-opacity:1;fill-rule:nonzero;stroke:none;stroke-width:0.352778"
       d="m 84.204854,134.27252 c -0.600826,0 -1.858976,-1.27882 -1.858976,-1.86035 0,-0.58153 1.25815,-1.83968 1.858976,-1.83968 0.58153,0 1.841059,1.25815 1.841059,1.83968 0,0.60083 -1.259529,1.86035 -1.841059,1.86035 m 2.829112,10.50065 c 0,0.32798 -0.329353,0.50299 -0.756542,0.50299 h -4.164433 c -0.425813,0 -0.755166,-0.17501 -0.755166,-0.50299 0,-0.29076 0.21222,-0.4079 0.483693,-0.56224 0.367937,-0.21359 0.600823,-0.50436 0.71658,-0.83371 0.09784,-0.2701 0.194303,-0.678 0.194303,-2.03398 v -2.51768 c 0,-0.56224 -0.0193,-0.96876 -0.136426,-1.27882 -0.115757,-0.31006 -0.32935,-0.48507 -0.71658,-0.63941 -0.212217,-0.0978 -0.600826,-0.1943 -0.600826,-0.54295 0,-0.27147 0.194306,-0.40652 0.639409,-0.52365 0.891593,-0.21222 1.9954,-0.52228 2.69269,-0.77446 0.117132,-0.0386 0.310056,-0.11575 0.504359,-0.11575 0.252183,0 0.504363,0.13504 0.504363,0.6587 v 5.73402 c 0,1.3367 0.09646,1.76388 0.192927,2.03398 0.115753,0.32935 0.348643,0.62012 0.71658,0.83371 0.252179,0.15434 0.485069,0.25218 0.485069,0.56224"
       id="path8" />
    <path
       style="fill:#073532;fill-opacity:1;fill-rule:nonzero;stroke:none;stroke-width:0.352778"
       d="m 97.037146,132.74152 c 0,0.73588 -0.09646,1.37529 -0.813044,1.37529 -0.79375,0 -1.084516,-1.78181 -2.344042,-1.78181 -1.3367,0 -1.41387,1.97611 -1.41387,3.04133 0,0.11576 0.07717,0.15572 0.192927,0.15572 0.25218,0 0.813043,0 1.201649,-0.04 0.40652,-0.0386 0.755163,-0.0965 1.1231,-0.0965 0.290767,0 0.63941,0.0386 0.63941,0.38723 0,0.17501 -0.03858,0.31006 -0.07717,0.50436 -0.115754,0.54157 -0.271473,0.77446 -0.795126,0.77446 -0.367937,0 -0.658703,-0.0386 -1.084517,-0.0579 -0.483693,-0.0193 -0.774456,-0.0193 -0.949469,-0.0193 -0.15434,0 -0.231511,0.0772 -0.231511,0.25218 v 4.12585 c 0,1.33669 0.09646,1.76388 0.192927,2.03398 0.09646,0.31006 0.32935,0.60082 0.697287,0.81442 0.271473,0.15434 0.485069,0.27147 0.485069,0.56086 0,0.33073 -0.329349,0.50436 -0.735873,0.50436 h -4.204395 c -0.427189,0 -0.73587,-0.17363 -0.73587,-0.50436 0,-0.28939 0.212217,-0.42581 0.464397,-0.56086 0.38723,-0.2136 0.620116,-0.50436 0.71658,-0.81442 0.07717,-0.2701 0.194303,-0.69729 0.194303,-2.03398 0,-1.3367 -0.0193,-3.46715 -0.0193,-4.24298 0,-0.0965 -0.03859,-0.13505 -0.15572,-0.13505 h -1.18098 c -0.194303,0 -0.310056,-0.0579 -0.310056,-0.27148 v -0.89021 c 0,-0.17501 0.09646,-0.29076 0.310056,-0.29076 h 1.200274 c 0.117133,0 0.175009,-0.04 0.194303,-0.15572 0.271473,-2.67339 2.189702,-4.57233 5.094605,-4.57233 0.775835,0 1.394576,0.17501 1.743219,0.42719 0.48507,0.34864 0.600827,0.98668 0.600827,1.51033"
       id="path10" />
    <path
       style="fill:#073532;fill-opacity:1;fill-rule:nonzero;stroke:none;stroke-width:0.352778"
       d="m 104.44548,143.37722 c 0,0.1943 -0.0965,0.44648 -0.25218,0.6587 -0.60083,0.89159 -1.74322,1.45383 -2.9242,1.45383 -1.43454,0 -2.364716,-0.67799 -2.809819,-1.51171 -0.329353,-0.62011 -0.445107,-1.39457 -0.445107,-2.4405 0,-1.27882 0.154341,-2.57693 0.192924,-4.33944 0,-0.15572 -0.05788,-0.2136 -0.212217,-0.2136 h -1.182356 c -0.173634,0 -0.290767,-0.11575 -0.290767,-0.31006 v -0.83233 c 0,-0.17501 0.09646,-0.29077 0.32935,-0.33073 0.988053,-0.15434 1.531003,-0.52228 1.841059,-0.96876 0.329354,-0.4644 0.38723,-1.00597 0.4644,-1.39458 0.03858,-0.21221 0.135047,-0.31005 0.32935,-0.31005 h 1.259523 c 0.17364,0 0.29077,0.11713 0.29077,0.29076 v 1.82177 c 0,0.52227 0.0386,0.58153 0.50298,0.58153 0.32936,0 0.56224,-0.0207 0.8916,-0.0593 0.34864,-0.0386 0.73587,-0.0965 1.1038,-0.0965 0.23289,0 0.678,0.0193 0.678,0.38723 0,0.15572 -0.0772,0.38861 -0.11576,0.58153 -0.11575,0.50436 -0.27147,0.71658 -0.89159,0.71658 -0.28938,0 -0.63941,-0.0386 -0.98805,-0.0579 -0.31006,-0.0193 -0.71658,-0.0193 -1.00735,-0.0193 -0.13504,0 -0.21221,0.0772 -0.21221,0.21359 -0.0193,0.4644 -0.0193,1.02664 -0.0193,1.6068 0,1.43454 0.0579,2.98345 0.29077,3.70141 0.27009,0.83233 0.87092,1.06522 1.29673,1.06522 0.77584,0 1.0859,-0.60083 1.49242,-0.60083 0.21359,0 0.38723,0.17502 0.38723,0.40653"
       id="path12" />
    <path
       style="fill:#073532;fill-opacity:1;fill-rule:nonzero;stroke:none;stroke-width:0.352778"
       d="m 67.203996,159.07998 c 0,0.19427 -0.07855,0.48507 -0.15572,0.75653 -0.310056,0.98668 -0.17363,2.65271 -1.452449,2.65271 -0.523656,0 -1.375283,-0.15434 -3.254929,-0.15434 H 57.30417 c -0.348643,0 -0.600826,-0.0965 -0.600826,-0.36791 0,-0.42584 0.677996,-0.31006 1.007346,-1.08455 0.15434,-0.34861 0.213596,-0.98802 0.213596,-1.87963 v -7.78867 c 0,-1.18097 -0.0193,-1.52962 -0.542946,-1.83968 -0.25218,-0.15572 -0.581533,-0.21359 -0.581533,-0.52365 0,-0.19293 0.194303,-0.34865 0.523656,-0.34865 h 5.036729 c 1.821765,0 2.848405,-0.13504 3.410644,-0.13504 0.367937,0 0.755164,0.0772 0.774457,0.54157 0.03859,0.58153 0.09646,2.09324 0.09646,2.6541 0,0.35002 -0.154341,0.56224 -0.56224,0.56224 -0.212217,0 -0.38723,-0.11576 -0.56086,-0.56224 -0.23289,-0.56086 -0.38723,-1.16169 -1.066603,-1.60679 -0.657323,-0.4272 -1.839683,-0.46578 -3.409265,-0.46578 h -0.755167 c -0.32935,0 -0.425813,0.13505 -0.425813,0.4079 v 4.22231 c 0,0.34864 0.09646,0.42581 0.445107,0.42581 0.464396,0 1.123099,0 1.898935,-0.0386 0.71658,-0.0386 1.529623,-0.15434 2.033986,-0.15434 0.387227,0 0.697287,0.0386 0.697287,0.38723 0,0.15571 -0.03859,0.25217 -0.05788,0.40652 -0.05788,0.50435 -0.271477,0.60084 -0.94947,0.60084 -0.485069,0 -1.124479,-0.0579 -1.841059,-0.0772 -0.599447,-0.0194 -1.452453,-0.0194 -1.976105,-0.0194 -0.173634,0 -0.250804,0.0965 -0.250804,0.25221 v 3.37065 c 0,1.1231 0.0193,1.56823 0.31006,1.8011 0.2508,0.19431 0.755163,0.2522 1.413866,0.2522 1.317403,0 2.266872,-0.15434 2.886989,-0.52366 1.25815,-0.73589 1.413866,-2.24621 2.188326,-2.2655 0.290766,0 0.542946,0.21223 0.542946,0.54158"
       id="path14" />
    <path
       style="fill:#073532;fill-opacity:1;fill-rule:nonzero;stroke:none;stroke-width:0.352778"
       d="m 78.342679,152.57011 c 0,0.2136 -0.15434,0.31144 -0.367937,0.44649 -0.851626,0.50298 -1.317406,1.54891 -1.704632,2.4405 l -2.964163,6.85848 c -0.05788,0.11579 -0.15434,0.15434 -0.290763,0.15434 h -1.007346 c -0.15434,0 -0.23151,-0.0579 -0.290766,-0.21219 l -2.634809,-7.16856 c -0.289388,-0.81305 -0.541571,-1.43316 -0.909507,-1.7818 -0.369313,-0.32936 -0.853006,-0.38723 -0.853006,-0.71658 0,-0.25219 0.173633,-0.36794 0.620119,-0.36794 h 3.177755 c 0.348644,0 0.522277,0.13505 0.522277,0.36794 0,0.46439 -0.910882,0.32935 -0.910882,1.16168 0,0.25218 0.07855,0.62012 0.290766,1.20165 l 1.956813,5.2889 c 0.03859,0.0965 0.05788,0.0965 0.07717,0.0965 0.0193,0 0.03859,-0.0194 0.05926,-0.0772 l 1.471743,-3.66144 c 0.504363,-1.25952 0.77446,-2.07394 0.77446,-2.6348 0,-1.06523 -0.94809,-0.8723 -0.94809,-1.37528 0,-0.27148 0.23151,-0.36794 0.56086,-0.36794 h 2.751942 c 0.406523,0 0.61874,0.0965 0.61874,0.34726"
       id="path16" />
    <path
       style="fill:#073532;fill-opacity:1;fill-rule:nonzero;stroke:none;stroke-width:0.352778"
       d="m 80.001835,155.92286 c 0,0.0965 0.03859,0.11578 0.15434,0.11578 h 3.158466 c 1.123099,0 1.627462,-0.2329 1.627462,-1.12311 0,-0.89158 -0.774456,-1.95681 -2.151119,-1.95681 -1.548913,0 -2.536966,1.3174 -2.769855,2.75057 -0.0193,0.15434 -0.0193,0.19431 -0.0193,0.21357 m 6.702777,4.32016 c 0,0.54158 -1.471743,2.30547 -4.048675,2.30547 -2.964159,0 -4.707378,-2.32474 -4.707378,-4.97886 0,-2.8291 2.014692,-5.56038 5.017438,-5.56038 2.789149,0 3.952212,2.26687 3.952212,3.62285 0,1.181 -0.581533,1.35601 -1.530999,1.37531 h -5.250325 c -0.13505,0 -0.21222,0.0579 -0.21222,0.19427 v 0.0965 c 0,2.03397 1.161686,3.85575 3.214962,3.85575 1.898939,0 2.673396,-1.31879 3.139172,-1.31879 0.23289,0 0.425813,0.13642 0.425813,0.40789"
       id="path18" />
    <path
       style="fill:#073532;fill-opacity:1;fill-rule:nonzero;stroke:none;stroke-width:0.352778"
       d="m 95.112023,153.30737 c 0,0.46439 -0.15434,0.89158 -0.658699,0.89158 -0.464401,0 -0.71658,-0.42719 -1.296734,-0.42719 -0.369316,0 -0.775836,0.17364 -1.105189,0.678 -0.464397,0.69729 -0.79375,1.60818 -0.79375,4.49517 0,0.94947 0.03859,1.58888 0.23289,1.97609 0.347264,0.6973 0.986673,0.62011 0.986673,1.04595 0,0.27146 -0.23151,0.36791 -0.541567,0.36791 h -3.197048 c -0.31006,0 -0.542946,-0.0965 -0.542946,-0.36791 0,-0.40654 0.698662,-0.38724 1.008722,-1.08455 0.15434,-0.36791 0.212217,-0.98802 0.212217,-1.93749 v -3.46854 c 0,-0.83233 -0.07717,-1.2981 -0.25218,-1.55029 -0.348643,-0.50298 -1.10381,-0.42581 -1.10381,-0.85162 0,-0.2136 0.115757,-0.34865 0.523657,-0.42582 0.639409,-0.13642 1.026636,-0.27147 1.588875,-0.52365 0.173634,-0.0772 0.327974,-0.11576 0.464401,-0.11576 0.290766,0 0.445106,0.19293 0.445106,0.54295 v 1.52962 c 0,0.0386 0,0.0772 0.03858,0.0772 0.03859,0 0.05788,-0.0579 0.07855,-0.0965 0.40652,-0.83233 1.452453,-2.05328 2.692686,-2.05328 0.755167,0 1.219563,0.52228 1.219563,1.29812"
       id="path20" />
    <path
       style="fill:#073532;fill-opacity:1;fill-rule:nonzero;stroke:none;stroke-width:0.352778"
       d="m 106.67376,152.57011 c 0,0.4272 -0.56086,0.4079 -1.06522,0.98944 -0.38723,0.4451 -0.69729,1.12309 -1.00735,1.83967 -0.48369,1.12312 -1.99539,4.86309 -2.67339,6.47126 -0.63941,1.51035 -1.39457,3.02204 -2.692687,3.77723 -0.504359,0.29076 -1.007342,0.4258 -1.453829,0.4258 -0.851626,0 -1.529623,-0.46439 -1.529623,-1.47175 0,-0.48507 0.192927,-0.94947 0.658703,-0.94947 0.560861,0 0.697287,0.81443 1.627463,0.81443 0.909507,0 1.471743,-1.02803 1.858973,-1.78319 0.04,-0.0771 0.0593,-0.13504 0.0593,-0.19431 0,-0.0579 -0.0193,-0.11574 -0.04,-0.17364 l -2.848402,-7.265 c -0.327974,-0.87229 -0.599447,-1.531 -0.986673,-1.84106 -0.329354,-0.2508 -0.756543,-0.2508 -0.756543,-0.61873 0,-0.23289 0.17501,-0.36794 0.600823,-0.36794 h 3.158465 c 0.310057,0 0.50298,0.13505 0.50298,0.34726 0,0.46578 -0.909503,0.36932 -0.909503,1.14378 0,0.25218 0.07717,0.63941 0.30868,1.20164 l 1.996783,4.94028 c 0.0386,0.0965 0.0386,0.11574 0.0772,0.11574 0.0386,0 0.0579,-0.0194 0.0965,-0.11574 l 1.37528,-3.48781 c 0.46578,-1.20166 0.71658,-1.89895 0.71658,-2.40193 0,-1.04593 -0.94809,-0.85301 -0.94809,-1.37528 0,-0.25219 0.23151,-0.36794 0.58015,-0.36794 h 2.69269 c 0.38861,0 0.60082,0.0965 0.60082,0.34726"
       id="path22" />
    <path
       style="fill:#073532;fill-opacity:1;fill-rule:nonzero;stroke:none;stroke-width:0.352778"
       d="m 114.64847,160.63026 c 0,0.29076 -0.29076,0.73586 -0.69866,1.08451 -0.52228,0.46577 -1.29812,0.83372 -2.20762,0.83372 -0.94947,0 -1.64676,-0.38862 -2.11253,-1.02666 -0.38723,-0.52362 -0.54157,-1.31737 -0.54157,-2.30543 0,-1.70463 0.13504,-3.44925 0.13504,-5.36747 0,-0.13504 -0.0579,-0.19292 -0.1943,-0.19292 h -1.21956 c -0.13643,0 -0.2136,-0.0772 -0.2136,-0.23289 V 152.803 c 0,-0.11575 0.0579,-0.19292 0.1943,-0.23151 0.85163,-0.23289 1.27882,-0.50436 1.51033,-0.89159 0.23289,-0.38723 0.31006,-0.91088 0.44649,-1.55029 0.0386,-0.15434 0.0965,-0.23151 0.2508,-0.23151 h 0.79513 c 0.15434,0 0.23151,0.0772 0.23151,0.21222 v 2.01469 c 0,0.34864 0.0785,0.44648 0.42719,0.44648 0.29077,0 0.54157,0 0.98806,-0.04 0.40652,-0.0386 0.94947,-0.0965 1.35599,-0.0965 0.42581,0 0.62011,0.0965 0.62011,0.34864 0,0.0978 -0.0386,0.23289 -0.0579,0.36794 -0.0785,0.46577 -0.32935,0.60082 -0.83372,0.60082 -0.34864,0 -0.77445,-0.0579 -1.24023,-0.0772 -0.38723,-0.0193 -0.69729,-0.0193 -1.04593,-0.0193 -0.15434,0 -0.23151,0.0772 -0.23151,0.23151 0,0.25218 -0.0593,2.384 -0.0593,2.96556 0,0.71656 0,1.35597 0.0772,2.2462 0.13643,1.53099 0.77584,1.95679 1.531,1.95679 1.00735,0 1.37528,-0.75515 1.7446,-0.75515 0.19292,0 0.34864,0.13504 0.34864,0.32935"
       id="path24" />
    <path
       style="fill:#073532;fill-opacity:1;fill-rule:nonzero;stroke:none;stroke-width:0.352778"
       d="m 125.12845,158.92564 c 0,1.00732 0.0579,1.74321 0.29077,2.11113 0.32935,0.50436 0.94947,0.58155 0.94947,0.9302 0,0.27146 -0.25219,0.36791 -0.54295,0.36791 h -3.25493 c -0.29076,0 -0.54156,-0.0965 -0.54156,-0.36791 0,-0.38724 0.6587,-0.40654 0.96876,-1.00736 0.19292,-0.36794 0.2508,-1.06521 0.2508,-2.03397 v -3.02204 c 0,-1.70465 -0.89021,-2.4226 -2.03399,-2.4226 -0.58153,0 -1.20027,0.21359 -1.66604,0.67799 -0.73588,0.73725 -0.90951,1.78317 -0.90951,4.76665 0,0.98802 0.0579,1.70462 0.2701,2.07257 0.32935,0.56222 0.94946,0.62011 0.94946,0.96876 0,0.27146 -0.23288,0.36791 -0.52227,0.36791 h -3.21634 c -0.29077,0 -0.52366,-0.0965 -0.52366,-0.36791 0,-0.40654 0.69729,-0.42584 0.98805,-1.04595 0.17502,-0.38721 0.23289,-1.04592 0.23289,-1.99538 v -7.94303 c 0,-0.62011 -0.0193,-0.96876 -0.1943,-1.22094 -0.31006,-0.4644 -1.1231,-0.36793 -1.1231,-0.79513 0,-0.21221 0.0965,-0.34864 0.54295,-0.4451 0.71658,-0.15434 1.29673,-0.34865 1.80109,-0.58154 0.13643,-0.0579 0.25218,-0.0965 0.36794,-0.0965 0.25218,0 0.42719,0.17501 0.42719,0.54295 v 5.3082 c 0,0.0579 0.0193,0.0965 0.0579,0.0965 0.0386,0 0.0579,-0.0386 0.0965,-0.0965 0.60083,-0.89159 1.68534,-1.68534 3.13917,-1.68534 1.10381,0 2.01469,0.4644 2.53697,1.20165 0.42582,0.58016 0.6587,1.27744 0.6587,2.63343 z m 0,0"
       id="path26" />
    <path
       style="fill:#073532;fill-opacity:1;fill-rule:nonzero;stroke:none;stroke-width:0.352778"
       d="m 129.58365,150.5568 c -0.44511,0 -1.37528,-0.94947 -1.37528,-1.37666 0,-0.44511 0.93017,-1.39458 1.37528,-1.39458 0.44648,0 1.37666,0.94947 1.37666,1.39458 0,0.42719 -0.93018,1.37666 -1.37666,1.37666 m 1.20165,10.36422 c 0.34864,0.678 0.98805,0.63941 0.98805,1.04595 0,0.27146 -0.25218,0.36791 -0.54294,0.36791 h -3.23426 c -0.29077,0 -0.52366,-0.0965 -0.52366,-0.36791 0,-0.40654 0.678,-0.42584 0.98806,-1.04595 0.1943,-0.38721 0.23289,-1.02662 0.23289,-1.97609 v -3.44924 c 0,-0.83234 0,-1.27744 -0.19431,-1.5875 -0.11575,-0.1943 -0.34864,-0.31006 -0.63941,-0.4079 -0.27147,-0.0965 -0.4644,-0.19292 -0.4644,-0.38723 0,-0.19292 0.0772,-0.34864 0.54295,-0.4451 0.71658,-0.15572 1.25815,-0.31006 1.83968,-0.56224 0.13505,-0.0579 0.25218,-0.0965 0.36794,-0.0965 0.23289,0 0.40652,0.15434 0.40652,0.50299 v 6.43269 c 0,0.96873 0.0386,1.58888 0.23289,1.97609"
       id="path28" />
    <path
       style="fill:#073532;fill-opacity:1;fill-rule:nonzero;stroke:none;stroke-width:0.352778"
       d="m 142.64194,158.92564 c 0,1.00732 0.0579,1.74321 0.29076,2.11113 0.32798,0.50436 0.94809,0.58155 0.94809,0.9302 0,0.27146 -0.2508,0.36791 -0.54156,0.36791 h -3.25493 c -0.29077,0 -0.54295,-0.0965 -0.54295,-0.36791 0,-0.38724 0.65871,-0.40654 0.96876,-1.00736 0.19431,-0.36794 0.25219,-1.06521 0.25219,-2.03397 v -3.02204 c 0,-1.68673 -0.8916,-2.4226 -2.03399,-2.4226 -0.58153,0 -1.20165,0.21359 -1.66605,0.67799 -0.73587,0.73725 -0.91088,1.78317 -0.91088,4.76665 0,0.98802 0.0579,1.70462 0.27147,2.07257 0.32935,0.56222 0.94947,0.62011 0.94947,0.96876 0,0.27146 -0.23289,0.36791 -0.52365,0.36791 h -3.21634 c -0.29077,0 -0.52228,-0.0965 -0.52228,-0.36791 0,-0.40654 0.69728,-0.42584 0.98805,-1.04595 0.17364,-0.38721 0.23289,-1.04592 0.23289,-1.99538 v -3.77859 c 0,-0.62012 -0.0207,-0.96876 -0.1943,-1.22095 -0.31006,-0.46439 -1.12311,-0.36793 -1.12311,-0.79375 0,-0.21221 0.0965,-0.34864 0.54158,-0.4451 0.71658,-0.15572 1.29811,-0.34865 1.80247,-0.58153 0.13505,-0.0579 0.2508,-0.0965 0.36793,-0.0965 0.25219,0 0.42582,0.17364 0.42582,0.54295 v 1.14239 c 0,0.0579 0.0193,0.0965 0.0579,0.0965 0.0386,0 0.0579,-0.0386 0.0965,-0.0965 0.60082,-0.89159 1.68672,-1.68534 3.13917,-1.68534 1.10381,0 2.01469,0.48369 2.53835,1.20165 0.42581,0.58016 0.6587,1.27744 0.6587,2.63343 z m 0,0"
       id="path30" />
    <path
       style="fill:#073532;fill-opacity:1;fill-rule:nonzero;stroke:none;stroke-width:0.352778"
       d="m 147.07784,155.26418 c 0,1.21956 0.56224,3.04134 2.09187,3.04134 1.20165,0 1.82176,-1.08454 1.82176,-2.36336 0,-1.22093 -0.62011,-2.98344 -2.09324,-2.98344 -1.18098,0 -1.82039,1.04593 -1.82039,2.30546 m 5.65685,-1.47312 c -0.0965,0 -0.29077,-0.0193 -0.29077,-0.0193 0.34865,0.56224 0.4644,1.24023 0.4644,1.78318 0,2.07258 -1.49103,3.5636 -3.70003,3.71931 -0.81304,0.0579 -1.66605,0.0194 -1.66605,0.63941 0,0.38725 0.38723,0.56226 1.35599,0.65871 0.81442,0.0772 1.86036,0.0772 2.82911,0.21223 1.37529,0.21361 2.16904,0.98806 2.16904,2.09324 0,2.11117 -2.14974,3.19567 -4.97885,3.19567 -1.70464,0 -3.02204,-0.34865 -3.71933,-0.94809 -0.50436,-0.40791 -0.73587,-0.94946 -0.73587,-1.45383 0,-1.1231 1.00734,-1.66606 1.51033,-1.66606 0.29076,0 0.46577,0.13645 0.46577,0.32935 0,0.23291 -0.32935,0.4837 -0.32935,1.08451 0,1.25956 1.60817,1.70603 3.06063,1.70603 1.80109,0 3.15846,-0.67938 3.15846,-1.68673 0,-0.69727 -0.56224,-0.98803 -1.68534,-1.08451 -0.89159,-0.0772 -2.11253,-0.0772 -3.00275,-0.25217 -1.16306,-0.21223 -1.7253,-0.87093 -1.7253,-1.5875 0,-0.87231 0.81442,-1.41524 1.22094,-1.55031 0.0579,-0.0194 0.0579,-0.0386 0.0579,-0.0579 0,-0.0194 -0.0193,-0.04 -0.0579,-0.0579 -1.16306,-0.56222 -1.9954,-1.6674 -1.9954,-3.15846 0,-2.0147 1.62747,-3.68074 3.85575,-3.68074 1.74322,0 2.51768,0.93018 2.96416,0.93018 0.58016,0 0.40652,-0.94947 1.25815,-0.94947 0.50436,0 0.79513,0.31006 0.79513,0.81304 0,0.6587 -0.46578,0.98805 -1.27882,0.98805"
       id="path32" />
  </g>
</svg>
