<?xml version="1.0" encoding="UTF-8" standalone="no"?>
<!-- Created with Inkscape (http://www.inkscape.org/) -->

<svg
   width="97.204605mm"
   height="41.134987mm"
   viewBox="0 0 97.204605 41.134987"
   version="1.1"
   id="svg4937"
   xmlns="http://www.w3.org/2000/svg"
   xmlns:svg="http://www.w3.org/2000/svg">
  <defs
     id="defs4934" />
  <g
     id="layer1"
     transform="translate(-56.533572,-127.75551)">
    <path
       style="fill:#073330;fill-opacity:1;fill-rule:nonzero;stroke:none;stroke-width:0.352778"
       d="m 78.229405,151.28275 c -0.07028,0 -0.140561,-0.0345 -0.183279,-0.0965 -0.764812,-1.13275 -1.799717,-2.08497 -2.990342,-2.75056 -0.107488,-0.0593 -0.144695,-0.19431 -0.08544,-0.30042 0.05926,-0.10611 0.192927,-0.14469 0.300411,-0.0841 1.251261,0.69867 2.337153,1.69775 3.140551,2.88837 0.0689,0.1006 0.04272,0.2384 -0.05926,0.30593 -0.03721,0.0248 -0.07993,0.0372 -0.122646,0.0372"
       id="path225" />
    <path
       style="fill:#073330;fill-opacity:1;fill-rule:nonzero;stroke:none;stroke-width:0.352778"
       d="m 73.877559,147.87349 c -0.0248,0 -0.05099,-0.004 -0.07579,-0.0138 -0.963249,-0.35415 -1.977485,-0.53329 -3.013769,-0.53329 -0.121268,0 -0.219107,-0.0978 -0.219107,-0.21911 0,-0.12265 0.09784,-0.22049 0.219107,-0.22049 1.088651,0 2.153874,0.18741 3.165355,0.55948 0.114377,0.0413 0.173633,0.16812 0.130912,0.2825 -0.03168,0.0896 -0.115754,0.1447 -0.206707,0.1447"
       id="path227" />
    <path
       style="fill:#073330;fill-opacity:1;fill-rule:nonzero;stroke:none;stroke-width:0.352778"
       d="m 61.815593,156.30019 c -0.121267,0 -0.220486,-0.0992 -0.220486,-0.22048 0,-2.74368 1.212674,-5.32337 3.325206,-7.07761 0.0937,-0.0772 0.23289,-0.0648 0.311436,0.0289 0.07717,0.0937 0.06477,0.23289 -0.02893,0.31006 -2.011934,1.67018 -3.166731,4.12584 -3.166731,6.7386 0,0.12127 -0.09784,0.22049 -0.220486,0.22049"
       id="path229" />
    <path
       style="fill:#073330;fill-opacity:1;fill-rule:nonzero;stroke:none;stroke-width:0.352778"
       d="m 70.789378,165.2726 c -0.738629,0 -1.473122,-0.0882 -2.182813,-0.26045 -0.118512,-0.0289 -0.191547,-0.14745 -0.162609,-0.26597 0.02893,-0.11851 0.14883,-0.19154 0.267339,-0.1626 0.675241,0.16536 1.375283,0.24804 2.078083,0.24804 1.679829,0 3.312802,-0.4768 4.719778,-1.38079 0.101978,-0.0648 0.238404,-0.0358 0.30455,0.0675 0.06615,0.10198 0.03583,0.2384 -0.06615,0.30455 -1.478636,0.94809 -3.194293,1.4497 -4.958182,1.4497"
       id="path231" />
    <path
       style="fill:#073330;fill-opacity:1;fill-rule:nonzero;stroke:#073330;stroke-width:0.635;stroke-miterlimit:10;stroke-dasharray:none;stroke-opacity:1"
       d="m 70.789378,144.76187 c -6.241136,0 -11.317827,5.07808 -11.317827,11.31784 0,6.23975 5.076691,11.31782 11.317827,11.31782 6.239757,0 11.316448,-5.07807 11.316448,-11.31782 0,-6.23976 -5.076691,-11.31784 -11.316448,-11.31784 m 0,23.80975 c -6.888815,0 -12.493293,-5.6031 -12.493293,-12.49191 0,-6.88882 5.604478,-12.4933 12.493293,-12.4933 6.887436,0 12.491914,5.60448 12.491914,12.4933 0,6.88881 -5.604478,12.49191 -12.491914,12.49191"
       id="path2232" />
    <path
       style="fill:#073330;fill-opacity:1;fill-rule:nonzero;stroke:none;stroke-width:0.352778"
       d="m 84.602832,156.52068 c -0.242534,0 -0.439596,-0.19706 -0.439596,-0.44097 0,-7.37389 -5.999977,-13.37387 -13.373858,-13.37387 -7.37526,0 -13.375238,5.99998 -13.375238,13.37387 0,0.24391 -0.197061,0.44097 -0.439596,0.44097 -0.243911,0 -0.440972,-0.19706 -0.440972,-0.44097 0,-7.86033 6.394097,-14.25581 14.255806,-14.25581 7.86033,0 14.254427,6.39548 14.254427,14.25581 0,0.24391 -0.197062,0.44097 -0.440973,0.44097"
       id="path235" />
    <path
       style="fill:#073330;fill-opacity:1;fill-rule:nonzero;stroke:none;stroke-width:0.352778"
       d="m 72.41822,156.07971 c 0,0.89985 -0.728984,1.63021 -1.628842,1.63021 -0.901238,0 -1.630221,-0.73036 -1.630221,-1.63021 0,-0.89987 0.728983,-1.63023 1.630221,-1.63023 0.899858,0 1.628842,0.73036 1.628842,1.63023"
       id="path237" />
    <path
       style="fill:#073330;fill-opacity:1;fill-rule:nonzero;stroke:none;stroke-width:0.352778"
       d="m 67.832109,156.30019 c -0.121267,0 -0.220486,-0.0992 -0.220486,-0.22048 0,-0.86955 0.344508,-1.68121 0.970139,-2.28479 0.08682,-0.0841 0.225996,-0.0827 0.311435,0.006 0.08406,0.0868 0.08268,0.22737 -0.0055,0.31143 -0.538812,0.51953 -0.835088,1.21957 -0.835088,1.96784 0,0.12127 -0.09922,0.22049 -0.220487,0.22049"
       id="path239" />
    <path
       style="fill:#073330;fill-opacity:1;fill-rule:nonzero;stroke:none;stroke-width:0.352778"
       d="m 70.789378,159.25608 c -0.8723,0 -1.685343,-0.34589 -2.2903,-0.97427 -0.08406,-0.0882 -0.08131,-0.22738 0.0055,-0.31144 0.08819,-0.0841 0.227376,-0.0813 0.311436,0.007 0.522277,0.54019 1.222318,0.83785 1.97335,0.83785 0.121268,0 0.220486,0.0992 0.220486,0.22048 0,0.12265 -0.09922,0.22049 -0.220486,0.22049"
       id="path241" />
    <path
       style="fill:#073330;fill-opacity:1;fill-rule:nonzero;stroke:none;stroke-width:0.352778"
       d="m 73.745268,156.30019 c -0.121268,0 -0.220487,-0.0992 -0.220487,-0.22048 0,-1.50896 -1.227828,-2.73679 -2.736782,-2.73679 -0.121268,0 -0.219107,-0.0978 -0.219107,-0.21911 0,-0.12264 0.09784,-0.22048 0.219107,-0.22048 1.752864,0 3.177755,1.42489 3.177755,3.17638 0,0.12126 -0.09922,0.22048 -0.220486,0.22048"
       id="path243" />
    <path
       style="fill:#073330;fill-opacity:1;fill-rule:nonzero;stroke:none;stroke-width:0.352778"
       d="m 89.589953,158.15227 c 0,2.04501 -1.65778,3.70279 -3.702791,3.70279 -2.043631,0 -3.702787,-1.65778 -3.702787,-3.70279 0,-2.04501 1.659156,-3.70279 3.702787,-3.70279 2.045011,0 3.702791,1.65778 3.702791,3.70279"
       id="path245" />
    <path
       style="fill:#073330;fill-opacity:1;fill-rule:nonzero;stroke:none;stroke-width:0.352778"
       d="m 70.787999,156.52068 c -0.0937,0 -0.188789,-0.0303 -0.270094,-0.0937 -0.191548,-0.14883 -0.226,-0.42581 -0.07717,-0.61874 l 10.630185,-13.6605 c 0.148827,-0.19293 0.425814,-0.22738 0.617361,-0.0772 0.192924,0.14882 0.227376,0.42581 0.07855,0.61736 l -10.630189,13.6619 c -0.08682,0.11162 -0.216352,0.17088 -0.348643,0.17088"
       id="path247" />
    <path
       style="fill:#073330;fill-opacity:1;fill-rule:nonzero;stroke:none;stroke-width:0.352778"
       d="m 85.322168,158.3135 -5.629286,-19.81894 1.12999,-0.32109 5.630664,19.81895 z m 0,0"
       id="path249" />
    <path
       style="fill:#073330;fill-opacity:1;fill-rule:nonzero;stroke:none;stroke-width:0.352778"
       d="m 82.914734,129.41604 h -9.035795 c -0.0055,0 -0.0096,10e-4 -0.01517,10e-4 -0.0055,0 -0.0096,-10e-4 -0.01517,-10e-4 -0.385851,0 -0.697287,0.31144 -0.697287,0.69729 0,0.26734 0.151585,0.50023 0.373447,0.61736 1.215433,0.63803 2.422592,0.5774 3.587034,0.5774 1.807986,0 1.427649,-0.94671 5.802919,-0.94671 0.261828,0 0.47267,-0.21084 0.47267,-0.47267 0,-0.26183 -0.210842,-0.47267 -0.47267,-0.47267"
       id="path251" />
    <path
       style="fill:#073330;fill-opacity:1;fill-rule:nonzero;stroke:none;stroke-width:0.352778"
       d="m 103.09748,158.73932 c -0.32522,0 -0.58842,-0.26321 -0.58842,-0.58705 v -27.50702 c 0,-0.28801 0.20808,-0.53192 0.49196,-0.57877 l 2.70509,-0.45062 -1.49379,-0.7469 c -0.29077,-0.14607 -0.4079,-0.49885 -0.26321,-0.78961 0.14469,-0.28939 0.49747,-0.40652 0.78824,-0.26183 l 1.77767,0.88883 c 0.41617,0.20809 0.65043,0.65733 0.58015,1.11897 -0.0689,0.46027 -0.42443,0.82131 -0.88332,0.8971 l -2.52732,0.42031 v 27.00954 c 0,0.32384 -0.26321,0.58705 -0.58705,0.58705"
       id="path253" />
    <path
       style="fill:#073330;fill-opacity:1;fill-rule:nonzero;stroke:none;stroke-width:0.352778"
       d="m 85.888542,158.59325 c -0.02067,0 -0.03996,-0.001 -0.06064,-0.004 l -15.099164,-2.07257 c -0.241155,-0.0331 -0.409275,-0.25632 -0.376202,-0.49747 0.03306,-0.24116 0.254935,-0.40928 0.496094,-0.37621 l 15.099164,2.07257 c 0.241155,0.0331 0.409275,0.25632 0.376202,0.49609 -0.0303,0.22187 -0.219107,0.38172 -0.435458,0.38172"
       id="path255" />
    <path
       style="fill:#073330;fill-opacity:1;fill-rule:nonzero;stroke:none;stroke-width:0.352778"
       d="M 127.06294,159.25471 H 85.887162 c -0.607712,0 -1.101051,-0.49334 -1.101051,-1.10244 0,-0.60909 0.493339,-1.10243 1.101051,-1.10243 h 41.175778 c 2.52319,0 4.80247,-1.59025 5.67339,-3.9591 l 3.81165,-10.37112 c 0.20946,-0.57188 0.84336,-0.86403 1.41387,-0.65457 0.5705,0.20947 0.86403,0.84337 0.65456,1.41387 l -3.81165,10.3725 c -1.18787,3.2315 -4.29948,5.40329 -7.74182,5.40329"
       id="path257" />
    <path
       style="fill:#073330;fill-opacity:1;fill-rule:nonzero;stroke:none;stroke-width:0.352778"
       d="m 93.199035,162.18579 h -3.106098 c -0.243915,0 -0.440973,-0.19706 -0.440973,-0.44097 0,-0.24392 0.197058,-0.44097 0.440973,-0.44097 h 3.106098 c 0.242535,0 0.439593,0.19705 0.439593,0.44097 0,0.24391 -0.197058,0.44097 -0.439593,0.44097"
       id="path259" />
    <path
       style="fill:#073330;fill-opacity:1;fill-rule:nonzero;stroke:none;stroke-width:0.352778"
       d="m 91.645984,162.18579 c -0.07993,0 -0.16123,-0.0221 -0.232886,-0.0661 l -5.758822,-3.59393 c -0.206707,-0.12816 -0.268718,-0.39963 -0.140561,-0.60634 0.128157,-0.2067 0.40101,-0.27009 0.607716,-0.14056 l 5.757443,3.59255 c 0.206707,0.12816 0.270094,0.40101 0.140561,0.60634 -0.08268,0.13505 -0.22738,0.20808 -0.373451,0.20808"
       id="path261" />
    <path
       style="fill:#073330;fill-opacity:1;fill-rule:nonzero;stroke:none;stroke-width:0.352778"
       d="m 85.007977,161.36999 0.0248,0.007 c 0.278363,0.0744 0.566374,0.11024 0.854382,0.11024 1.839683,0 3.33623,-1.49517 3.33623,-3.33485 0,-1.83968 -1.496547,-3.33485 -3.33623,-3.33485 H 71.175225 l -0.0028,0.0138 -0.384475,-0.0138 c -0.695907,0 -1.262281,0.56637 -1.262281,1.26228 0,0.56224 0.378961,1.06247 0.921907,1.21405 l 0.32246,0.0909 -0.0014,0.001 z m 0.879185,0.85301 c -0.216351,0 -0.434082,-0.0179 -0.649054,-0.0524 l -0.0041,0.0248 -0.39412,-0.10886 -14.913126,-4.17408 0.0055,-0.0303 c -0.684886,-0.3266 -1.141014,-1.02664 -1.141014,-1.80247 0,-1.01837 0.766188,-1.86174 1.754241,-1.983 l 0.0014,-0.011 0.155716,-0.001 c 0.03721,-0.001 0.07579,-0.003 0.113002,-0.001 l 0.04547,-10e-4 h 15.026128 c 2.244824,0 4.070727,1.82728 4.070727,4.07072 0,2.24483 -1.825903,4.07073 -4.070727,4.07073"
       id="path263" />
    <path
       style="fill:#073330;fill-opacity:1;fill-rule:nonzero;stroke:none;stroke-width:0.352778"
       d="m 83.756716,142.72789 c -1.659156,0 -3.18189,-1.12999 -3.649045,-2.77261 -0.08819,-0.31281 0.09233,-0.63803 0.405144,-0.72623 0.311436,-0.0882 0.636655,0.0923 0.724849,0.40515 0.351399,1.23609 1.564072,2.05327 2.818088,1.90031 0.323839,-0.0386 0.615981,0.19017 0.655944,0.51263 0.03859,0.32246 -0.190168,0.61461 -0.512628,0.65457 -0.14883,0.0179 -0.296281,0.0262 -0.442352,0.0262"
       id="path265" />
    <path
       style="fill:#073330;fill-opacity:1;fill-rule:nonzero;stroke:none;stroke-width:0.352778"
       d="m 133.44877,161.79718 c -0.20395,0 -0.38723,-0.14194 -0.43132,-0.35002 -0.15848,-0.75516 -0.2384,-1.53513 -0.2384,-2.3151 0,-6.17637 5.0257,-11.20208 11.20207,-11.20208 0.68626,0 1.37252,0.062 2.04087,0.18466 0.23978,0.0441 0.39826,0.27423 0.35416,0.51401 -0.0441,0.23978 -0.27285,0.39825 -0.51401,0.35416 -0.61598,-0.11438 -1.2485,-0.17226 -1.88102,-0.17226 -5.6913,0 -10.32151,4.63021 -10.32151,10.32151 0,0.71933 0.0744,1.43729 0.22049,2.13458 0.051,0.23702 -0.10198,0.47129 -0.34038,0.5209 -0.0303,0.007 -0.0606,0.01 -0.0909,0.01"
       id="path267" />
    <path
       style="fill:#073330;fill-opacity:1;fill-rule:nonzero;stroke:#073330;stroke-width:0.635;stroke-miterlimit:10;stroke-dasharray:none;stroke-opacity:1"
       d="m 143.98112,150.86796 c -4.55717,0 -8.2641,3.70831 -8.2641,8.2641 0,4.55717 3.70693,8.26547 8.2641,8.26547 4.55717,0 8.26409,-3.7083 8.26409,-8.26547 0,-4.55579 -3.70692,-8.2641 -8.26409,-8.2641 m 0,17.70504 c -5.20485,0 -9.43956,-4.23471 -9.43956,-9.44094 0,-5.20485 4.23471,-9.43956 9.43956,-9.43956 5.20485,0 9.43956,4.23471 9.43956,9.43956 0,5.20623 -4.23471,9.44094 -9.43956,9.44094"
       id="path269" />
    <path
       style="fill:#073330;fill-opacity:1;fill-rule:nonzero;stroke:none;stroke-width:0.352778"
       d="m 141.96505,159.35254 c -0.12265,0 -0.22049,-0.0978 -0.22049,-0.22048 0,-1.23334 1.00321,-2.23656 2.23656,-2.23656 0.12264,0 0.22048,0.0992 0.22048,0.22049 0,0.12127 -0.0978,0.22049 -0.22048,0.22049 -0.99081,0 -1.79559,0.80615 -1.79559,1.79558 0,0.12265 -0.0992,0.22048 -0.22048,0.22048"
       id="path271" />
    <path
       style="fill:#073330;fill-opacity:1;fill-rule:nonzero;stroke:none;stroke-width:0.352778"
       d="m 143.98112,161.36999 c -0.12127,0 -0.22049,-0.0992 -0.22049,-0.22048 0,-0.12127 0.0992,-0.22049 0.22049,-0.22049 0.99081,0 1.79696,-0.80615 1.79696,-1.79558 0,-0.12265 0.0978,-0.22049 0.22048,-0.22049 0.12127,0 0.22049,0.0978 0.22049,0.22049 0,1.23334 -1.00459,2.23655 -2.23793,2.23655"
       id="path273" />
    <path
       style="fill:#073330;fill-opacity:1;fill-rule:nonzero;stroke:none;stroke-width:0.352778"
       d="m 148.9958,163.50044 c -0.0496,0 -0.0992,-0.0165 -0.14056,-0.051 -0.0937,-0.0772 -0.10749,-0.21635 -0.0303,-0.31006 0.37345,-0.45062 0.68213,-0.94946 0.91639,-1.48277 0.0482,-0.11162 0.17777,-0.16261 0.28939,-0.11299 0.11162,0.0482 0.16261,0.17914 0.11438,0.29076 -0.25081,0.57051 -0.58016,1.10519 -0.97979,1.58612 -0.0441,0.0524 -0.10611,0.0799 -0.1695,0.0799"
       id="path275" />
    <path
       style="fill:#073330;fill-opacity:1;fill-rule:nonzero;stroke:none;stroke-width:0.352778"
       d="m 150.48822,159.35254 c -0.12127,0 -0.22049,-0.0978 -0.22049,-0.22048 0,-1.25953 -0.37069,-2.47496 -1.07349,-3.514 -0.0675,-0.10059 -0.0413,-0.2384 0.0592,-0.30593 0.1006,-0.0689 0.2384,-0.0413 0.30593,0.0593 0.75241,1.11208 1.14928,2.41295 1.14928,3.76067 0,0.12265 -0.0992,0.22048 -0.22048,0.22048"
       id="path277" />
    <path
       style="fill:#073330;fill-opacity:1;fill-rule:nonzero;stroke:none;stroke-width:0.352778"
       d="m 137.47402,159.35254 c -0.12127,0 -0.22048,-0.0978 -0.22048,-0.22048 0,-3.7083 3.0179,-6.72621 6.72758,-6.72621 0.12264,0 0.22048,0.0979 0.22048,0.22049 0,0.12127 -0.0978,0.22048 -0.22048,0.22048 -3.46577,0 -6.28661,2.81947 -6.28661,6.28524 0,0.12265 -0.0978,0.22048 -0.22049,0.22048"
       id="path279" />
    <path
       style="fill:#073330;fill-opacity:1;fill-rule:nonzero;stroke:none;stroke-width:0.352778"
       d="m 143.98112,165.85964 c -1.46486,0 -2.85805,-0.46302 -4.02801,-1.33808 -0.0978,-0.073 -0.11713,-0.21221 -0.0441,-0.30868 0.073,-0.0978 0.21083,-0.11713 0.3073,-0.0441 1.09416,0.81717 2.39503,1.24988 3.7648,1.24988 0.12264,0 0.22048,0.0992 0.22048,0.22048 0,0.12265 -0.0978,0.22049 -0.22048,0.22049"
       id="path281" />
    <path
       style="fill:#073330;fill-opacity:1;fill-rule:nonzero;stroke:none;stroke-width:0.352778"
       d="m 103.97943,158.15227 h -1.76389 v -21.85982 h 1.76389 z m 0,0"
       id="path283" />
    <path
       style="fill:#073330;fill-opacity:1;fill-rule:nonzero;stroke:#073330;stroke-width:0.635;stroke-miterlimit:4;stroke-dasharray:none;stroke-opacity:1"
       d="m 81.418184,143.00625 c -0.296277,0 -0.551215,-0.22324 -0.584288,-0.52365 -0.03583,-0.32246 0.197062,-0.61322 0.519522,-0.64906 l 21.679302,-2.39916 c 0.32246,-0.0358 0.61322,0.19706 0.64905,0.51952 0.0358,0.32246 -0.19706,0.61185 -0.51952,0.64906 l -21.679296,2.39916 c -0.02205,0.003 -0.0441,0.004 -0.06477,0.004"
       id="path285" />
    <path
       style="fill:#073330;fill-opacity:1;fill-rule:nonzero;stroke:#073330;stroke-width:0.635;stroke-miterlimit:4;stroke-dasharray:none;stroke-opacity:1"
       d="m 85.887162,158.59325 c -0.191547,0 -0.367936,-0.12678 -0.423058,-0.32109 l -7.810718,-27.49737 c -0.06753,-0.23427 0.0689,-0.47818 0.303166,-0.54433 0.234269,-0.0661 0.47818,0.0689 0.544326,0.30317 l 7.810722,27.49875 c 0.06615,0.23427 -0.0689,0.47818 -0.30317,0.54433 -0.03996,0.011 -0.08131,0.0165 -0.121268,0.0165"
       id="path287" />
    <path
       style="fill:#073330;fill-opacity:1;fill-rule:nonzero;stroke:none;stroke-width:0.352778"
       d="m 143.98112,159.72048 c -0.23289,0 -0.45338,-0.13918 -0.5457,-0.36931 l -6.39962,-16.03348 c -0.11988,-0.30179 0.0262,-0.64354 0.32798,-0.76343 0.30179,-0.12127 0.64354,0.0262 0.76343,0.32797 l 6.39961,16.0321 c 0.12127,0.30179 -0.0262,0.64354 -0.32797,0.76481 -0.0703,0.0276 -0.14469,0.0413 -0.21773,0.0413"
       id="path289" />
  </g>
</svg>
