<?xml version="1.0" encoding="UTF-8" standalone="no"?>
<!-- Created with Inkscape (http://www.inkscape.org/) -->

<svg
   width="97.204597mm"
   height="41.133614mm"
   viewBox="0 0 97.204597 41.133614"
   version="1.1"
   id="svg5756"
   xmlns="http://www.w3.org/2000/svg"
   xmlns:svg="http://www.w3.org/2000/svg">
  <defs
     id="defs5753" />
  <g
     id="layer1"
     transform="translate(-91.932864,-102.9767)">
    <path
       style="fill:#6eae00;fill-opacity:1;fill-rule:nonzero;stroke:none;stroke-width:0.352778"
       d="m 166.87196,132.93249 h -27.49324 v -21.41885 h 32.5658 c 1.64952,0 2.77947,1.66467 2.17039,3.19981 z m 0,0"
       id="path473-9" />
    <path
       style="fill:#073330;fill-opacity:1;fill-rule:nonzero;stroke:none;stroke-width:0.352778"
       d="m 113.6287,126.50394 c -0.0703,0 -0.13917,-0.0331 -0.1819,-0.0965 -0.76619,-1.13275 -1.8011,-2.08497 -2.99173,-2.75057 -0.10611,-0.0592 -0.14467,-0.1943 -0.0854,-0.30041 0.0593,-0.10611 0.19431,-0.14469 0.30043,-0.0854 1.25126,0.70143 2.33715,1.69913 3.1419,2.88975 0.0676,0.1006 0.0413,0.23702 -0.0592,0.30593 -0.0386,0.0248 -0.0813,0.0372 -0.12403,0.0372"
       id="path495-6" />
    <path
       style="fill:#073330;fill-opacity:1;fill-rule:nonzero;stroke:none;stroke-width:0.352778"
       d="m 109.27687,123.09468 c -0.0247,0 -0.0496,-0.004 -0.0758,-0.0138 -0.96322,-0.35416 -1.97608,-0.53192 -3.01237,-0.53192 -0.12266,0 -0.22048,-0.0992 -0.22048,-0.22049 0,-0.12264 0.0978,-0.22048 0.22048,-0.22048 1.08726,0 2.15248,0.18741 3.16396,0.55948 0.11437,0.0413 0.17364,0.16812 0.13092,0.2825 -0.0318,0.0882 -0.11575,0.14469 -0.20669,0.14469"
       id="path497-2" />
    <path
       style="fill:#073330;fill-opacity:1;fill-rule:nonzero;stroke:none;stroke-width:0.352778"
       d="m 97.214899,131.52138 c -0.121285,0 -0.220486,-0.0992 -0.220486,-0.22049 0,-2.74367 1.212674,-5.32336 3.325217,-7.0776 0.0937,-0.0772 0.23286,-0.0648 0.31143,0.0289 0.0771,0.0937 0.0648,0.23289 -0.0289,0.31006 -2.011927,1.67018 -3.166709,4.12584 -3.166709,6.7386 0,0.12127 -0.09786,0.22049 -0.220486,0.22049"
       id="path499-9" />
    <path
       style="fill:#073330;fill-opacity:1;fill-rule:nonzero;stroke:none;stroke-width:0.352778"
       d="m 106.18868,140.49379 c -0.73864,0 -1.47313,-0.0882 -2.18281,-0.26045 -0.11853,-0.0289 -0.19018,-0.14745 -0.16125,-0.26596 0.0289,-0.11852 0.14746,-0.19155 0.26596,-0.16261 0.67525,0.16536 1.3753,0.24805 2.0781,0.24805 1.67983,0 3.3128,-0.47681 4.71978,-1.3808 0.10196,-0.0648 0.23979,-0.0358 0.30456,0.0661 0.0661,0.10336 0.0358,0.23978 -0.0661,0.30455 -1.47863,0.94947 -3.1943,1.45108 -4.95819,1.45108"
       id="path501-1" />
    <path
       style="fill:#073330;fill-opacity:1;fill-rule:nonzero;stroke:#073330;stroke-width:0.635;stroke-miterlimit:4;stroke-dasharray:none;stroke-opacity:1"
       d="m 106.18868,119.98307 c -6.241129,0 -11.317848,5.07669 -11.317848,11.31782 0,6.23976 5.076719,11.31645 11.317848,11.31645 6.23976,0 11.31644,-5.07669 11.31644,-11.31645 0,-6.24113 -5.07668,-11.31782 -11.31644,-11.31782 m 0,23.80974 c -6.888829,0 -12.493303,-5.6031 -12.493303,-12.49192 0,-6.88881 5.604474,-12.49329 12.493303,-12.49329 6.8888,0 12.4919,5.60448 12.4919,12.49329 0,6.88882 -5.6031,12.49192 -12.4919,12.49192"
       id="path503-2" />
    <path
       style="fill:#073330;fill-opacity:1;fill-rule:nonzero;stroke:none;stroke-width:0.352778"
       d="m 120.0035,131.74187 c -0.24391,0 -0.44098,-0.19844 -0.44098,-0.44098 0,-7.37388 -5.99997,-13.37386 -13.37384,-13.37386 -7.375274,0 -13.373872,5.99998 -13.373872,13.37386 0,0.24254 -0.198437,0.44098 -0.440972,0.44098 -0.243911,0 -0.440972,-0.19844 -0.440972,-0.44098 0,-7.86033 6.395473,-14.2558 14.255816,-14.2558 7.86032,0 14.25579,6.39547 14.25579,14.2558 0,0.24254 -0.19844,0.44098 -0.44097,0.44098"
       id="path505-7" />
    <path
       style="fill:#073330;fill-opacity:1;fill-rule:nonzero;stroke:none;stroke-width:0.352778"
       d="m 107.81753,131.30089 c 0,0.89986 -0.72898,1.63022 -1.62885,1.63022 -0.90124,0 -1.63022,-0.73036 -1.63022,-1.63022 0,-0.89986 0.72898,-1.63021 1.63022,-1.63021 0.89987,0 1.62885,0.73035 1.62885,1.63021"
       id="path507-0" />
    <path
       style="fill:#073330;fill-opacity:1;fill-rule:nonzero;stroke:none;stroke-width:0.352778"
       d="m 103.23142,131.52138 c -0.12129,0 -0.22049,-0.0992 -0.22049,-0.22049 0,-0.86954 0.34449,-1.6812 0.97014,-2.28478 0.0868,-0.0841 0.22599,-0.0827 0.31143,0.006 0.0841,0.0868 0.0827,0.22738 -0.006,0.31144 -0.5388,0.51952 -0.83506,1.21818 -0.83506,1.96784 0,0.12126 -0.0979,0.22048 -0.22049,0.22048"
       id="path509-9" />
    <path
       style="fill:#073330;fill-opacity:1;fill-rule:nonzero;stroke:none;stroke-width:0.352778"
       d="m 106.18868,134.47727 c -0.87231,0 -1.68536,-0.34589 -2.2903,-0.97427 -0.0841,-0.0882 -0.0813,-0.22738 0.007,-0.31144 0.0868,-0.0841 0.22599,-0.0813 0.31143,0.006 0.52091,0.54157 1.22096,0.83922 1.97199,0.83922 0.12125,0 0.22049,0.0992 0.22049,0.22049 0,0.12264 -0.0992,0.22049 -0.22049,0.22049"
       id="path511-3" />
    <path
       style="fill:#073330;fill-opacity:1;fill-rule:nonzero;stroke:none;stroke-width:0.352778"
       d="m 109.14457,131.52138 c -0.12128,0 -0.22048,-0.0992 -0.22048,-0.22049 0,-1.50895 -1.22647,-2.73678 -2.73541,-2.73678 -0.12266,0 -0.22048,-0.0978 -0.22048,-0.22049 0,-0.12126 0.0978,-0.22048 0.22048,-0.22048 1.75147,0 3.17638,1.42627 3.17638,3.17775 0,0.12127 -0.0979,0.22049 -0.22049,0.22049"
       id="path513-6" />
    <path
       style="fill:#073330;fill-opacity:1;fill-rule:nonzero;stroke:none;stroke-width:0.352778"
       d="m 124.99061,133.37346 c 0,2.04501 -1.65777,3.70279 -3.70276,3.70279 -2.04501,0 -3.70279,-1.65778 -3.70279,-3.70279 0,-2.045 1.65778,-3.70278 3.70279,-3.70278 2.04499,0 3.70276,1.65778 3.70276,3.70278"
       id="path515-0" />
    <path
       style="fill:#073330;fill-opacity:1;fill-rule:nonzero;stroke:none;stroke-width:0.352778"
       d="m 106.18731,131.74187 c -0.0937,0 -0.18881,-0.0303 -0.27012,-0.0937 -0.19153,-0.14883 -0.22599,-0.42581 -0.0772,-0.61874 l 10.63019,-13.66049 c 0.14883,-0.19293 0.4258,-0.22738 0.61873,-0.0772 0.19156,0.14883 0.22599,0.42581 0.0772,0.61736 l -10.63022,13.66187 c -0.0868,0.11162 -0.21632,0.17088 -0.34861,0.17088"
       id="path517-6" />
    <path
       style="fill:#073330;fill-opacity:1;fill-rule:nonzero;stroke:none;stroke-width:0.352778"
       d="m 120.72147,133.53332 -5.62927,-19.81757 1.13135,-0.32108 5.62928,19.81756 z m 0,0"
       id="path519-2" />
    <path
       style="fill:#073330;fill-opacity:1;fill-rule:nonzero;stroke:none;stroke-width:0.352778"
       d="m 118.31404,104.63723 h -9.0358 c -0.006,0 -0.01,10e-4 -0.0152,10e-4 -0.006,0 -0.01,-10e-4 -0.0152,-10e-4 -0.38583,0 -0.69726,0.31144 -0.69726,0.69729 0,0.26734 0.15159,0.50023 0.37345,0.61736 1.21542,0.63803 2.42259,0.5774 3.58701,0.5774 1.80798,0 1.42765,-0.94671 5.80294,-0.94671 0.26184,0 0.47403,-0.21084 0.47403,-0.47267 0,-0.26045 -0.21219,-0.47267 -0.47403,-0.47267"
       id="path521-6" />
    <path
       style="fill:#073330;fill-opacity:1;fill-rule:nonzero;stroke:none;stroke-width:0.352778"
       d="m 138.49678,133.96051 c -0.32385,0 -0.58706,-0.26321 -0.58706,-0.58705 v -27.50702 c 0,-0.28801 0.20673,-0.53192 0.49061,-0.58015 l 2.70506,-0.44924 -1.49376,-0.7469 c -0.2908,-0.14607 -0.40792,-0.49885 -0.26321,-0.78961 0.14467,-0.28939 0.49883,-0.40653 0.78821,-0.26183 l 1.77768,0.88883 c 0.41755,0.20809 0.65045,0.65733 0.58152,1.11759 -0.0689,0.46164 -0.42443,0.82269 -0.88469,0.89848 l -2.52593,0.4203 v 27.00955 c 0,0.32384 -0.26321,0.58705 -0.58843,0.58705"
       id="path523-1" />
    <path
       style="fill:#073330;fill-opacity:1;fill-rule:nonzero;stroke:none;stroke-width:0.352778"
       d="m 121.28785,133.81443 c -0.0208,0 -0.04,-10e-4 -0.0606,-0.004 l -15.09917,-2.07257 c -0.24116,-0.0331 -0.40929,-0.25632 -0.3762,-0.49747 0.0332,-0.24116 0.25633,-0.40928 0.49608,-0.37621 l 15.09917,2.07257 c 0.24115,0.0331 0.40929,0.25632 0.3762,0.4961 -0.0303,0.22186 -0.21911,0.38171 -0.43544,0.38171"
       id="path525-8" />
    <path
       style="fill:#073330;fill-opacity:1;fill-rule:nonzero;stroke:none;stroke-width:0.352778"
       d="m 162.46224,134.47589 h -41.17439 c -0.6091,0 -1.10243,-0.49334 -1.10243,-1.10243 0,-0.60909 0.49333,-1.10243 1.10243,-1.10243 h 41.17439 c 2.52317,0 4.80247,-1.59025 5.67337,-3.9591 l 3.81166,-10.37112 c 0.20948,-0.57188 0.84335,-0.86403 1.41386,-0.65456 0.57189,0.20946 0.86403,0.84335 0.65458,1.41386 l -3.81165,10.3725 c -1.18788,3.23149 -4.29811,5.40328 -7.74182,5.40328"
       id="path527-7" />
    <path
       style="fill:#073330;fill-opacity:1;fill-rule:nonzero;stroke:none;stroke-width:0.352778"
       d="m 128.59833,137.40698 h -3.10611 c -0.24253,0 -0.43959,-0.19706 -0.43959,-0.44097 0,-0.24391 0.19706,-0.44097 0.43959,-0.44097 h 3.10611 c 0.24391,0 0.44097,0.19706 0.44097,0.44097 0,0.24391 -0.19706,0.44097 -0.44097,0.44097"
       id="path529-9" />
    <path
       style="fill:#073330;fill-opacity:1;fill-rule:nonzero;stroke:none;stroke-width:0.352778"
       d="m 127.04529,137.40698 c -0.0799,0 -0.15988,-0.0221 -0.2329,-0.0675 l -5.75882,-3.59255 c -0.20669,-0.12816 -0.26871,-0.39963 -0.14054,-0.60633 0.1295,-0.20671 0.401,-0.2701 0.60769,-0.14056 l 5.75744,3.59254 c 0.20673,0.12816 0.27009,0.40101 0.14058,0.60634 -0.0827,0.13504 -0.22602,0.20808 -0.37345,0.20808"
       id="path531-2" />
    <path
       style="fill:#073330;fill-opacity:1;fill-rule:nonzero;stroke:none;stroke-width:0.352778"
       d="m 120.40729,136.59118 0.0247,0.007 c 0.27834,0.073 0.56635,0.11025 0.85577,0.11025 1.83829,0 3.33484,-1.49655 3.33484,-3.33486 0,-1.83968 -1.49655,-3.33623 -3.33484,-3.33623 h -14.71334 v 0.0152 l -0.38446,-0.0152 c -0.69592,0 -1.26231,0.56776 -1.26231,1.26366 0,0.56224 0.37762,1.06247 0.92054,1.21406 l 0.32248,0.0909 v 10e-4 z m 0.88056,0.85163 c -0.21773,0 -0.43546,-0.0165 -0.65045,-0.051 l -0.004,0.0248 -0.39412,-0.11024 -14.91312,-4.1727 0.006,-0.0303 c -0.68488,-0.3266 -1.14102,-1.02664 -1.14102,-1.80248 0,-1.01837 0.76757,-1.86173 1.75426,-1.983 v -0.011 l 0.15571,-0.001 c 0.0372,-0.001 0.0758,-0.003 0.11438,-0.001 l 0.0441,-0.001 h 15.02752 c 2.24342,0 4.06933,1.82728 4.06933,4.07073 0,2.24482 -1.82591,4.06935 -4.06933,4.06935"
       id="path533-0" />
    <path
       style="fill:#073330;fill-opacity:1;fill-rule:nonzero;stroke:none;stroke-width:0.352778"
       d="m 119.15602,117.94908 c -1.65915,0 -3.18188,-1.12999 -3.64906,-2.77261 -0.0882,-0.31282 0.0937,-0.63803 0.40516,-0.72623 0.31281,-0.0882 0.63666,0.0923 0.72623,0.40514 0.3514,1.23611 1.5627,2.05466 2.81806,1.90032 0.32247,-0.04 0.61461,0.19017 0.65458,0.51263 0.0386,0.32246 -0.19015,0.61461 -0.51262,0.65457 -0.14746,0.0179 -0.29489,0.0262 -0.44235,0.0262"
       id="path535-2" />
    <path
       style="fill:#073330;fill-opacity:1;fill-rule:nonzero;stroke:none;stroke-width:0.352778"
       d="m 168.84808,137.01837 c -0.20397,0 -0.38724,-0.14193 -0.43134,-0.35002 -0.15847,-0.75654 -0.23841,-1.53513 -0.23841,-2.3151 0,-6.17637 5.02571,-11.20207 11.20208,-11.20207 0.68625,0 1.37255,0.062 2.04226,0.18465 0.23841,0.0441 0.39688,0.27423 0.35278,0.51401 -0.0441,0.23978 -0.27284,0.39688 -0.51262,0.35278 -0.61599,-0.113 -1.24989,-0.17088 -1.88242,-0.17088 -5.6913,0 -10.32151,4.63021 -10.32151,10.32151 0,0.71933 0.0744,1.43729 0.22187,2.1332 0.0496,0.2384 -0.10333,0.47267 -0.34174,0.52228 -0.0303,0.007 -0.0606,0.01 -0.0909,0.01"
       id="path537-3" />
    <path
       style="fill:#073330;fill-opacity:1;fill-rule:nonzero;stroke:#073330;stroke-width:0.635;stroke-miterlimit:4;stroke-dasharray:none;stroke-opacity:1"
       d="m 179.38041,126.08915 c -4.55578,0 -8.26411,3.7083 -8.26411,8.26548 0,4.55579 3.70833,8.26409 8.26411,8.26409 4.55718,0 8.2641,-3.7083 8.2641,-8.26409 0,-4.55718 -3.70692,-8.26548 -8.2641,-8.26548 m 0,17.70366 c -5.20485,0 -9.43956,-4.23333 -9.43956,-9.43818 0,-5.20623 4.23471,-9.44094 9.43956,-9.44094 5.20484,0 9.43955,4.23471 9.43955,9.44094 0,5.20485 -4.23471,9.43818 -9.43955,9.43818"
       id="path539-7" />
    <path
       style="fill:#073330;fill-opacity:1;fill-rule:nonzero;stroke:none;stroke-width:0.352778"
       d="m 177.36435,134.57374 c -0.12266,0 -0.22049,-0.0978 -0.22049,-0.22049 0,-1.23335 1.0032,-2.23656 2.23655,-2.23656 0.12266,0 0.22048,0.0978 0.22048,0.22049 0,0.12127 -0.0978,0.22048 -0.22048,0.22048 -0.98944,0 -1.79557,0.80616 -1.79557,1.79559 0,0.12264 -0.0992,0.22049 -0.22049,0.22049"
       id="path541-5" />
    <path
       style="fill:#073330;fill-opacity:1;fill-rule:nonzero;stroke:none;stroke-width:0.352778"
       d="m 179.38041,136.59118 c -0.12125,0 -0.22049,-0.0992 -0.22049,-0.22048 0,-0.12127 0.0992,-0.22049 0.22049,-0.22049 0.99081,0 1.79697,-0.80615 1.79697,-1.79696 0,-0.12127 0.0992,-0.21911 0.22049,-0.21911 0.12125,0 0.22049,0.0978 0.22049,0.21911 0,1.23472 -1.00323,2.23793 -2.23795,2.23793"
       id="path543-9" />
    <path
       style="fill:#073330;fill-opacity:1;fill-rule:nonzero;stroke:none;stroke-width:0.352778"
       d="m 184.39511,138.72163 c -0.0496,0 -0.0992,-0.0165 -0.14059,-0.051 -0.0937,-0.0772 -0.10749,-0.21635 -0.0289,-0.31006 0.37345,-0.45061 0.68075,-0.94947 0.91503,-1.48276 0.0482,-0.11163 0.17914,-0.16261 0.29076,-0.11301 0.11024,0.0482 0.16122,0.17915 0.113,0.29077 -0.25083,0.57051 -0.58015,1.10519 -0.97981,1.58612 -0.0441,0.0524 -0.10608,0.0799 -0.16947,0.0799"
       id="path545-2" />
    <path
       style="fill:#073330;fill-opacity:1;fill-rule:nonzero;stroke:none;stroke-width:0.352778"
       d="m 185.8875,134.57374 c -0.12125,0 -0.22049,-0.0978 -0.22049,-0.22049 0,-1.25953 -0.37066,-2.47496 -1.07347,-3.514 -0.0675,-0.1006 -0.0413,-0.2384 0.0592,-0.30592 0.10199,-0.0689 0.23841,-0.0413 0.30731,0.0592 0.75103,1.11208 1.1479,2.41295 1.1479,3.76067 0,0.12264 -0.0978,0.22049 -0.22048,0.22049"
       id="path547-2" />
    <path
       style="fill:#073330;fill-opacity:1;fill-rule:nonzero;stroke:none;stroke-width:0.352778"
       d="m 172.87469,134.57374 c -0.12263,0 -0.22049,-0.0978 -0.22049,-0.22049 0,-3.70968 3.01791,-6.72621 6.72621,-6.72621 0.12266,0 0.22048,0.0978 0.22048,0.21911 0,0.12265 -0.0978,0.22049 -0.22048,0.22049 -3.46576,0 -6.28523,2.82084 -6.28523,6.28661 0,0.12264 -0.0992,0.22049 -0.22049,0.22049"
       id="path549-8" />
    <path
       style="fill:#073330;fill-opacity:1;fill-rule:nonzero;stroke:none;stroke-width:0.352778"
       d="m 179.38041,141.08083 c -1.46484,0 -2.85803,-0.46302 -4.02799,-1.33807 -0.0979,-0.073 -0.11715,-0.21222 -0.0441,-0.30868 0.073,-0.0978 0.21082,-0.11714 0.30868,-0.0441 1.09276,0.81718 2.39363,1.24988 3.7634,1.24988 0.12266,0 0.22048,0.0992 0.22048,0.22049 0,0.12264 -0.0978,0.22048 -0.22048,0.22048"
       id="path551-9" />
    <path
       style="fill:#073330;fill-opacity:1;fill-rule:nonzero;stroke:none;stroke-width:0.352778"
       d="m 139.37872,133.37346 h -1.76389 v -21.85982 h 1.76389 z m 0,0"
       id="path553-7" />
    <path
       style="fill:#073330;fill-opacity:1;fill-rule:nonzero;stroke:#073330;stroke-width:0.635;stroke-miterlimit:4;stroke-dasharray:none;stroke-opacity:1"
       d="m 116.81749,118.22745 c -0.2963,0 -0.54984,-0.22325 -0.58431,-0.52366 -0.0346,-0.32246 0.19707,-0.61323 0.51954,-0.64905 l 21.67929,-2.39917 c 0.32247,-0.0372 0.61323,0.19706 0.64907,0.51952 0.0358,0.32246 -0.19706,0.61323 -0.51953,0.64768 l -21.67929,2.40054 c -0.0219,0.003 -0.0441,0.004 -0.0648,0.004"
       id="path555-3" />
    <path
       style="fill:#073330;fill-opacity:1;fill-rule:nonzero;stroke:#073330;stroke-width:0.635;stroke-miterlimit:4;stroke-dasharray:none;stroke-opacity:1"
       d="m 121.28644,133.81443 c -0.19152,0 -0.36791,-0.12677 -0.42305,-0.32108 l -7.81071,-27.49737 c -0.0661,-0.23427 0.0689,-0.47818 0.30318,-0.54433 0.23424,-0.0675 0.47815,0.0689 0.5443,0.30317 l 7.81075,27.49875 c 0.0675,0.23289 -0.0689,0.47818 -0.30318,0.54433 -0.04,0.011 -0.0813,0.0165 -0.12129,0.0165"
       id="path557-6" />
    <path
       style="fill:#073330;fill-opacity:1;fill-rule:nonzero;stroke:none;stroke-width:0.352778"
       d="m 179.38178,134.94167 c -0.23424,0 -0.45473,-0.14056 -0.54705,-0.36931 l -6.39964,-16.03348 c -0.11987,-0.30179 0.0275,-0.64354 0.32798,-0.76343 0.3018,-0.12127 0.64354,0.0262 0.76345,0.32659 l 6.40097,16.03348 c 0.11991,0.30179 -0.0275,0.64354 -0.32935,0.76481 -0.0703,0.0275 -0.14467,0.0413 -0.21636,0.0413"
       id="path559-1" />
    <path
       style="fill:#6eae00;fill-opacity:1;fill-rule:nonzero;stroke:none;stroke-width:0.352778"
       d="m 119.13531,120.31517 2.07257,7.29396 c 0.12541,0.44097 0.48786,0.77859 0.93984,0.8599 1.41802,0.2508 2.66096,1.11345 3.39961,2.33577 0.21498,0.35416 0.61186,0.55673 1.02524,0.55673 h 8.91731 c 0.67109,0 1.21542,-0.54433 1.21542,-1.21543 v -11.84424 c 0,-0.72347 -0.62978,-1.28709 -1.34909,-1.20716 l -15.18461,1.67983 c -0.74828,0.0841 -1.24161,0.81717 -1.03629,1.54064"
       id="path447-2" />
  </g>
</svg>
