<?xml version="1.0" encoding="UTF-8" standalone="no"?>
<svg
   viewBox="-5.49 -5.49 285.48 126.48"
   version="1.1"
   id="svg52"
   xmlns="http://www.w3.org/2000/svg"
   xmlns:svg="http://www.w3.org/2000/svg">
  <defs
     id="defs4">
    <style
       id="style2">.cls-1{fill:#083532}</style>
  </defs>
  <path
     d="M295.56 161.05a.63.63 0 01-.55-.7.64.64 0 01.55-.55 5.11 5.11 0 005.1-5.09.63.63 0 01.7-.55.64.64 0 01.55.55 6.36 6.36 0 01-6.35 6.34zm14.22 6.04a.62.62 0 01-.49-1 18.14 18.14 0 002.59-4.2.62.62 0 01.82-.32.61.61 0 01.33.8 18.94 18.94 0 01-2.77 4.5.64.64 0 01-.48.22zm-14.22 6.69a18.89 18.89 0 01-11.42-3.8.62.62 0 01-.12-.87.61.61 0 01.85-.13 17.69 17.69 0 0010.67 3.54.63.63 0 01.16 1.25z"
     class="cls-1"
     transform="translate(-47.68 -65.7)"
     id="Layer_1"
     data-name="Layer 1" />
  <path
     d="m 183.89,21.62 a 1,1 0 0 1 -0.24,-0.11 c -0.44,-0.31 -1.91,-1.45 -1.1,-2.3 a 15.75,15.75 0 0 1 3.15,-2.15 l 2.09,-1.22 c 0,0 0.91,-0.53 1.85,-1.22 l 0.08,-0.06 a 19.87,19.87 0 0 1 2.71,-2.26 11.14,11.14 0 0 1 2,-1.22 13.65,13.65 0 0 1 3.2,-0.81 c 0.83,0 5.74,0.72 7.84,2.62 a 9.16,9.16 0 0 1 1.71,1.8 0.73,0.73 0 0 0 0.49,0.35 42.15,42.15 0 0 1 5.52,1.46 c 0.56,0.38 0.76,0.55 0.73,0.77 0,0.43 -0.17,0.7 -0.5,2.26 a 5.13,5.13 0 0 1 -1.65,2.53 c -0.71,0.56 -3.46,0.74 -5.53,1.18 a 5.94,5.94 0 0 0 -2.41,1.59 c -1.95,1.65 -3.6,2.57 -5.9,5 a 15.19,15.19 0 0 0 -2.42,5 L 182.1,33.12 c -0.42,0 3.75,-2.84 3.75,-3.26 l -4.36,-2.39 c 0,-0.25 2.17,-1.94 2.88,-2.86 a 5.45,5.45 0 0 0 1.06,-2.56 8.92,8.92 0 0 0 -1.54,-0.43 z"
     class="cls-1"
     id="path7" />
  <path
     fill="#ffffff"
     d="m 202.64,14.53 c 0,0 -0.12,-0.31 0.38,-0.38 l 0.56,-0.09 h 0.49 c 0,0 0.86,0.1 0.51,0.43 -0.35,0.33 -1.94,0.04 -1.94,0.04 z m 9.9,2.69 a 0.23,0.23 0 0 1 0.33,-0.21 c 0.32,0.1 0.26,0.27 0.51,0.21 a 0.8,0.8 0 0 0 0.38,-0.23 0.44,0.44 0 0 1 0.13,0.47 0.67,0.67 0 0 1 -0.66,0.46 h -0.36 c -0.42,0.06 -0.33,-0.7 -0.33,-0.7 z m -26.91,3.39 c -0.89,0.39 -1.55,-1 -0.67,-1.37 a 1.24,1.24 0 0 1 0.44,-0.11 c 1.06,-0.09 1.43,-0.83 2.48,-1.44 0.76,-0.44 1.44,-0.76 1.75,-0.91 a 0.82,0.82 0 0 1 0.38,-0.06 2.29,2.29 0 0 0 0.52,0 c 0.28,-0.06 -0.66,0.8 -0.38,1.23 0.28,0.43 -2.56,1.82 -4.52,2.66 z"
     id="path9" />
  <path
     d="m 186.46,72.91 v -8.92 c -1,0.16 -2.12,0.37 -3.2,0.47 a 1.14,1.14 0 0 0 -1.13,1.07 c -0.46,2.22 -0.91,4.44 -1.36,6.64 -0.93,-0.33 -1.31,2 -2.6,0.72 l -1.1,-6.85 c -1.1,-0.37 -1.89,-0.73 -3.1,0 -1.42,0.82 -3.19,1 -4.78,1.61 -0.6,0.22 -1.08,0.94 -1.67,1 -1.45,0.19 -2.46,1.21 -3.72,1.73 -1.26,0.52 -2.62,1.42 -4,2.05 a 3.26,3.26 0 0 1 -1.47,0.16 q -6.56,-0.21 -13.11,-0.46 c -0.93,0 -1.86,-0.14 -2.68,-0.2 l -0.61,-4.58 a 7.31,7.31 0 0 0 -4.41,3.44 c -0.57,1 -1.21,1.29 -2.52,0.72 a 28.21,28.21 0 0 1 3.54,-5.18 43,43 0 0 1 2.42,-2.45 20.52,20.52 0 0 0 4.16,-5.16 3.92,3.92 0 0 1 0.73,-1.06 74,74 0 0 1 9.46,-8.09 111,111 0 0 0 8.89,-6.74 c 4.05,-3.3 8.07,-6.64 12,-10.11 2.29,-2 4.35,-4.32 6.5,-6.48 3,4.18 7,6.84 12.45,6.72 0.61,3.56 1.24,7.12 1.83,10.69 a 5.88,5.88 0 0 1 0.1,1.91 c -0.53,3.16 -0.68,6.41 -2.62,9.21 a 8.5,8.5 0 0 0 -1.24,3.82 22,22 0 0 1 -1.29,5.18 38.72,38.72 0 0 0 -2.16,6.91 c -0.45,2.4 -0.69,2.5 -3.31,2.23 z"
     class="cls-1"
     id="path11" />
  <path
     fill="none"
     stroke="#ffffff"
     stroke-miterlimit="10"
     stroke-width="2"
     d="m 182.32,23.91 c 0,0 6,9.65 14.73,10.09"
     id="path13" />
  <path
     d="m 129.49,24.27 h 5 v 61.97 h -5 z"
     class="cls-1"
     id="path15" />
  <path
     d="m 131.99,87.9 a 1.66,1.66 0 0 1 -1.66,-1.66 V 8.3 a 1.66,1.66 0 0 1 1.39,-1.64 l 7.67,-1.36 -4.24,-2.12 a 1.6748209,1.6748209 0 0 1 1.49,-3 l 5,2.52 a 3,3 0 0 1 -0.86,5.72 l -7.16,1.19 v 76.56 a 1.67,1.67 0 0 1 -1.61,1.73 z"
     class="cls-1"
     id="path17"
     style="fill:#073330;fill-opacity:1" />
  <path
     fill="#6faf00"
     d="m 132.62,46.93 v 36.82 h 71.56 c 0,0 5.21,1 10.89,-5.58 l 4.59,-15.32 z"
     id="path19" />
  <path
     d="m 61.5,66.76 a 0.63,0.63 0 0 1 -0.52,-0.27 25,25 0 0 0 -8.48,-7.8 0.62453983,0.62453983 0 0 1 0.61,-1.09 26.19,26.19 0 0 1 8.91,8.19 0.63,0.63 0 0 1 -0.17,0.86 0.61,0.61 0 0 1 -0.35,0.11 z M 49.17,57.09 h -0.22 a 24.4,24.4 0 0 0 -8.54,-1.51 0.6300992,0.6300992 0 0 1 -0.16,-1.25 0.43,0.43 0 0 1 0.16,0 26,26 0 0 1 9,1.58 0.63,0.63 0 0 1 0.37,0.8 0.61,0.61 0 0 1 -0.61,0.38 z m -34.2,23.89 a 0.62,0.62 0 0 1 -0.62,-0.62 26,26 0 0 1 9.42,-20.06 0.64031242,0.64031242 0 1 1 0.8,1 24.76,24.76 0 0 0 -9,19.1 0.62,0.62 0 0 1 -0.6,0.58 z m 25.44,25.44 a 26.33,26.33 0 0 1 -6.19,-0.74 0.63,0.63 0 1 1 0.21,-1.24 h 0.09 a 24.76,24.76 0 0 0 19.27,-3.14 0.63,0.63 0 0 1 0.86,0.19 0.62,0.62 0 0 1 -0.19,0.86 26,26 0 0 1 -14.05,4.07 z"
     class="cls-1"
     id="path21" />
  <path
     d="M 40.41,115.77 A 35.42,35.42 0 1 1 75.82,80.3 35.44,35.44 0 0 1 40.41,115.77 Z m 0,-67.49 A 32.08,32.08 0 1 0 72.49,80.36 32.12,32.12 0 0 0 40.41,48.3 Z"
     class="cls-1"
     id="path23"
     style="stroke:#073330;stroke-opacity:1;fill:#073330;fill-opacity:1;stroke-width:1.8;stroke-miterlimit:4;stroke-dasharray:none" />
  <path
     d="m 79.57,81.61 a 1.25,1.25 0 0 1 -1.25,-1.25 37.91,37.91 0 0 0 -75.82,0 1.25,1.25 0 0 1 -2.5,0 40.41,40.41 0 0 1 80.82,0 1.25,1.25 0 0 1 -1.25,1.25 z"
     class="cls-1"
     id="path25"
     style="fill:#073330;fill-opacity:1" />
  <circle
     cx="40.41"
     cy="80.360001"
     r="4.6199999"
     class="cls-1"
     id="circle27" />
  <path
     d="m 32.03,80.98 a 0.64,0.64 0 0 1 -0.63,-0.62 8.94,8.94 0 0 1 2.75,-6.48 0.62,0.62 0 0 1 0.88,0.12 0.62,0.62 0 0 1 0,0.78 7.66,7.66 0 0 0 -2.37,5.58 0.62,0.62 0 0 1 -0.63,0.62 z m 8.38,8.38 a 8.93,8.93 0 0 1 -6.49,-2.76 0.62,0.62 0 0 1 0.12,-0.88 0.62,0.62 0 0 1 0.78,0 7.67,7.67 0 0 0 5.59,2.38 0.63,0.63 0 0 1 0.55,0.7 0.64,0.64 0 0 1 -0.55,0.55 z m 8.38,-8.38 a 0.64,0.64 0 0 1 -0.63,-0.62 7.77,7.77 0 0 0 -7.75,-7.76 0.6300992,0.6300992 0 0 1 -0.16,-1.25 0.43,0.43 0 0 1 0.16,0 9,9 0 0 1 9,9 0.62,0.62 0 0 1 -0.61,0.63 z"
     class="cls-1"
     id="path29" />
  <circle
     cx="83.209999"
     cy="86.230003"
     r="10.5"
     class="cls-1"
     id="circle31" />
  <path
     d="m 40.41,81.61 a 1.26,1.26 0 0 1 -1,-2 L 69.54,40.88 a 1.2621014,1.2621014 0 0 1 2,1.54 l -30.15,38.7 a 1.21,1.21 0 0 1 -0.98,0.49 z"
     class="cls-1"
     id="path33" />
  <path
     d="M 65.658296,30.501212 68.86153,29.591164 84.821534,85.768012 81.618299,86.67806 Z"
     class="cls-1"
     id="path35" />
  <path
     d="M 74.78,4.77 H 49.08 A 2,2 0 0 0 48.16,8.5 c 3.45,1.81 6.87,1.64 10.17,1.64 5.13,0 4,-2.68 16.45,-2.68 a 1.35,1.35 0 0 0 0,-2.69 z m 8.43,82.71 H 83.04 L 40.24,81.6 a 1.25,1.25 0 1 1 0.16,-2.49 h 0.18 l 42.8,5.87 a 1.25,1.25 0 0 1 -0.17,2.49 z"
     class="cls-1"
     id="path37"
     style="fill:#073330;fill-opacity:1" />
  <path
     d="M 199.93,89.36 H 83.21 a 3.13,3.13 0 0 1 0,-6.25 h 116.72 a 17.19,17.19 0 0 0 16.08,-11.22 l 10.8,-29.41 a 3.1227072,3.1227072 0 0 1 5.86,2.16 l -10.8,29.4 a 23.48,23.48 0 0 1 -21.94,15.32 z m -96,8.3 h -8.8 a 1.25,1.25 0 1 1 -0.22,-2.49 h 9 a 1.25,1.25 0 1 1 0.22,2.49 z"
     class="cls-1"
     id="path39"
     style="fill:#073330;fill-opacity:1" />
  <path
     d="M 99.53,97.66 A 1.28,1.28 0 0 1 98.87,97.48 L 82.55,87.3 a 1.25,1.25 0 0 1 -0.41,-1.71 1.26,1.26 0 0 1 1.72,-0.4 l 16.32,10.19 a 1.24,1.24 0 0 1 -0.66,2.3 z"
     class="cls-1"
     id="path41"
     style="fill:#073330;fill-opacity:1" />
  <path
     d="m 83.21,97.77 a 11.32,11.32 0 0 1 -1.84,-0.15 v 0.07 L 80.25,97.38 37.96,85.55 V 85.47 A 5.66,5.66 0 0 1 39.7,74.74 h 43.49 a 11.54,11.54 0 1 1 0,23.08 z m -2.5,-2.42 h 0.08 a 9.45,9.45 0 1 0 4.8,-18.28 9.6,9.6 0 0 0 -2.38,-0.31 h -42.8 a 3.58,3.58 0 0 0 -1,7 l 0.91,0.25 z M 77.17,42.51 a 10.87,10.87 0 0 1 -10.35,-7.86 1.6712645,1.6712645 0 0 1 3.17,-1.06 v 0.15 a 7.48,7.48 0 0 0 8,5.39 1.662077,1.662077 0 0 1 0.4,3.3 8.88,8.88 0 0 1 -1.22,0.08 z m 140.86,54.05 a 1.24,1.24 0 0 1 -1.22,-1 31.76,31.76 0 0 1 36.86,-37.79 1.2504099,1.2504099 0 0 1 -0.45,2.46 29.88,29.88 0 0 0 -5.34,-0.49 29.27,29.27 0 0 0 -28.63,35.26 1.25,1.25 0 0 1 -1,1.48 z"
     class="cls-1"
     id="path43"
     style="fill:#073330;fill-opacity:1" />
  <path
     d="m 247.88,115.77 a 26.76,26.76 0 1 1 26.76,-26.76 26.76,26.76 0 0 1 -26.76,26.76 z m 0,-50.18 a 23.43,23.43 0 1 0 23.44,23.42 23.43,23.43 0 0 0 -23.44,-23.42 z"
     class="cls-1"
     id="path45"
     style="fill:#073330;fill-opacity:1;stroke:#073330;stroke-opacity:1;stroke-width:1.8;stroke-miterlimit:4;stroke-dasharray:none" />
  <path
     d="m 242.17,89.64 a 0.63,0.63 0 0 1 -0.63,-0.63 6.35,6.35 0 0 1 6.34,-6.34 0.6300992,0.6300992 0 0 1 0.16,1.25 h -0.16 a 5.1,5.1 0 0 0 -5.09,5.09 0.64,0.64 0 0 1 -0.62,0.63 z m 24.15,0 a 0.63,0.63 0 0 1 -0.63,-0.63 17.71,17.71 0 0 0 -3,-10 0.63,0.63 0 0 1 1,-0.7 19,19 0 0 1 3.25,10.66 0.63,0.63 0 0 1 -0.59,0.67 z m -36.88,0 a 0.63,0.63 0 0 1 -0.63,-0.63 19.1,19.1 0 0 1 19.07,-19.07 0.6300992,0.6300992 0 0 1 0.16,1.25 0.43,0.43 0 0 1 -0.16,0 17.84,17.84 0 0 0 -17.82,17.82 0.64,0.64 0 0 1 -0.62,0.63 z M 70.54,43.3 a 1.67,1.67 0 0 1 -0.18,-3.33 l 61.45,-6.8 a 1.67,1.67 0 1 1 0.62,3.28 1.07,1.07 0 0 1 -0.25,0 L 70.72,43.3 Z"
     class="cls-1"
     id="path47"
     style="fill:#073330;fill-opacity:1;stroke:#073330;stroke-opacity:1;stroke-width:1.8;stroke-miterlimit:4;stroke-dasharray:none" />
  <path
     d="m 83.21,87.48 a 1.24,1.24 0 0 1 -1.2,-0.91 L 59.87,8.63 a 1.2506898,1.2506898 0 1 1 2.37,-0.8 v 0.11 l 22.14,78 a 1.25,1.25 0 0 1 -0.86,1.54 1,1 0 0 1 -0.31,0 z m 164.67,3.2 a 1.66,1.66 0 0 1 -1.54,-1 L 228.2,44.23 a 1.6647597,1.6647597 0 0 1 3.09,-1.24 l 18.14,45.45 a 1.67,1.67 0 0 1 -1.55,2.29 z"
     class="cls-1"
     id="path49"
     style="fill:#073330;fill-opacity:1;stroke:#073330;stroke-opacity:1;stroke-width:1.8;stroke-miterlimit:4;stroke-dasharray:none" />
</svg>
