<?xml version="1.0" encoding="UTF-8" standalone="no"?>
<!-- Created with Inkscape (http://www.inkscape.org/) -->

<svg
   width="97.204605mm"
   height="41.134991mm"
   viewBox="0 0 97.204605 41.134991"
   version="1.1"
   id="svg5401"
   xmlns="http://www.w3.org/2000/svg"
   xmlns:svg="http://www.w3.org/2000/svg">
  <defs
     id="defs5398" />
  <g
     id="layer1"
     transform="translate(-79.543106,-99.43608)">
    <path
       style="fill:#6eae00;fill-opacity:1;fill-rule:nonzero;stroke:none;stroke-width:0.352778"
       d="m 154.25481,129.39187 h -27.55937 v -15.19976 h 33.14183 z m 0,0"
       id="path667" />
    <path
       style="fill:#073330;fill-opacity:1;fill-rule:nonzero;stroke:none;stroke-width:0.352778"
       d="m 101.23894,122.96332 c -0.0703,0 -0.14056,-0.0345 -0.18328,-0.0965 -0.76481,-1.13275 -1.79972,-2.08497 -2.990345,-2.75056 -0.106108,-0.0593 -0.144692,-0.1943 -0.08544,-0.30042 0.05925,-0.1061 0.192923,-0.14469 0.300411,-0.0841 1.251257,0.69867 2.337144,1.69775 3.140544,2.88837 0.0689,0.1006 0.0427,0.2384 -0.0593,0.30593 -0.0372,0.0248 -0.0799,0.0372 -0.12264,0.0372"
       id="path669" />
    <path
       style="fill:#073330;fill-opacity:1;fill-rule:nonzero;stroke:none;stroke-width:0.352778"
       d="m 96.887094,119.55406 c -0.0248,0 -0.05099,-0.004 -0.07579,-0.0138 -0.963249,-0.35416 -1.977485,-0.5333 -3.012394,-0.5333 -0.122643,0 -0.220486,-0.0978 -0.220486,-0.21911 0,-0.12265 0.09784,-0.22049 0.220486,-0.22049 1.087272,0 2.152498,0.18741 3.163976,0.55949 0.114377,0.0413 0.173633,0.16812 0.130916,0.28249 -0.03172,0.0896 -0.115757,0.1447 -0.206707,0.1447"
       id="path671" />
    <path
       style="fill:#073330;fill-opacity:1;fill-rule:nonzero;stroke:none;stroke-width:0.352778"
       d="m 84.825125,127.98076 c -0.121268,0 -0.220487,-0.0992 -0.220487,-0.22048 0,-2.74368 1.212674,-5.32337 3.325206,-7.07761 0.09371,-0.0772 0.23289,-0.0648 0.311439,0.0289 0.07717,0.0937 0.06477,0.23289 -0.02893,0.31006 -2.011938,1.67018 -3.166735,4.12585 -3.166735,6.73861 0,0.12126 -0.09784,0.22048 -0.220486,0.22048"
       id="path673" />
    <path
       style="fill:#073330;fill-opacity:1;fill-rule:nonzero;stroke:none;stroke-width:0.352778"
       d="m 93.798909,136.95317 c -0.738628,0 -1.473122,-0.0882 -2.182812,-0.26045 -0.118509,-0.0289 -0.190169,-0.14745 -0.16123,-0.26596 0.02893,-0.11852 0.14745,-0.19155 0.265962,-0.16261 0.675238,0.16536 1.375283,0.24805 2.07808,0.24805 1.679829,0 3.312806,-0.4768 4.719782,-1.3808 0.101974,-0.0648 0.2384,-0.0358 0.304546,0.0675 0.06615,0.10198 0.03583,0.2384 -0.06615,0.30455 -1.478636,0.94809 -3.194293,1.4497 -4.958182,1.4497"
       id="path675" />
    <path
       style="fill:#073330;fill-opacity:1;fill-rule:nonzero;stroke:#073330;stroke-width:0.635;stroke-miterlimit:4;stroke-dasharray:none;stroke-opacity:1"
       d="m 93.798909,116.44245 c -6.241133,0 -11.317827,5.07807 -11.317827,11.31783 0,6.23975 5.076694,11.31782 11.317827,11.31782 6.239761,0 11.316451,-5.07807 11.316451,-11.31782 0,-6.23976 -5.07669,-11.31783 -11.316451,-11.31783 m 0,23.80974 c -6.888811,0 -12.493293,-5.6031 -12.493293,-12.49191 0,-6.88882 5.604482,-12.4933 12.493293,-12.4933 6.887431,0 12.491921,5.60448 12.491921,12.4933 0,6.88881 -5.60449,12.49191 -12.491921,12.49191"
       id="path677" />
    <path
       style="fill:#073330;fill-opacity:1;fill-rule:nonzero;stroke:none;stroke-width:0.352778"
       d="m 107.61374,128.20125 c -0.24391,0 -0.44097,-0.19706 -0.44097,-0.44097 0,-7.37389 -5.99998,-13.37386 -13.373861,-13.37386 -7.37526,0 -13.375237,5.99997 -13.375237,13.37386 0,0.24391 -0.197059,0.44097 -0.439593,0.44097 -0.243914,0 -0.440973,-0.19706 -0.440973,-0.44097 0,-7.86033 6.394098,-14.25581 14.255803,-14.25581 7.860331,0 14.254431,6.39548 14.254431,14.25581 0,0.24391 -0.19706,0.44097 -0.4396,0.44097"
       id="path679" />
    <path
       style="fill:#073330;fill-opacity:1;fill-rule:nonzero;stroke:none;stroke-width:0.352778"
       d="m 95.427751,127.76028 c 0,0.89986 -0.728983,1.63021 -1.628842,1.63021 -0.901234,0 -1.630218,-0.73035 -1.630218,-1.63021 0,-0.89986 0.728984,-1.63022 1.630218,-1.63022 0.899859,0 1.628842,0.73036 1.628842,1.63022"
       id="path681" />
    <path
       style="fill:#073330;fill-opacity:1;fill-rule:nonzero;stroke:none;stroke-width:0.352778"
       d="m 90.84164,127.98076 c -0.121267,0 -0.220486,-0.0992 -0.220486,-0.22048 0,-0.86955 0.344509,-1.68121 0.970139,-2.28479 0.08682,-0.0841 0.226,-0.0827 0.311436,0.006 0.08406,0.0868 0.08268,0.22738 -0.0055,0.31144 -0.538815,0.51952 -0.835092,1.21956 -0.835092,1.96784 0,0.12126 -0.09784,0.22048 -0.220486,0.22048"
       id="path683" />
    <path
       style="fill:#073330;fill-opacity:1;fill-rule:nonzero;stroke:none;stroke-width:0.352778"
       d="m 93.798909,130.93665 c -0.872296,0 -1.685339,-0.34589 -2.290297,-0.97427 -0.08406,-0.0882 -0.0813,-0.22738 0.0069,-0.31144 0.08682,-0.0841 0.225997,-0.0813 0.311436,0.007 0.520898,0.54019 1.220943,0.83785 1.971971,0.83785 0.121268,0 0.220487,0.0992 0.220487,0.22049 0,0.12264 -0.09922,0.22048 -0.220487,0.22048"
       id="path685" />
    <path
       style="fill:#073330;fill-opacity:1;fill-rule:nonzero;stroke:none;stroke-width:0.352778"
       d="m 96.754802,127.98076 c -0.121267,0 -0.220486,-0.0992 -0.220486,-0.22048 0,-1.50896 -1.227832,-2.73679 -2.735407,-2.73679 -0.122643,0 -0.220486,-0.0978 -0.220486,-0.21911 0,-0.12264 0.09784,-0.22048 0.220486,-0.22048 1.751489,0 3.176379,1.42489 3.176379,3.17638 0,0.12126 -0.09922,0.22048 -0.220486,0.22048"
       id="path687" />
    <path
       style="fill:#073330;fill-opacity:1;fill-rule:nonzero;stroke:none;stroke-width:0.352778"
       d="m 112.59948,129.83285 c 0,2.045 -1.65778,3.70278 -3.70278,3.70278 -2.04363,0 -3.70279,-1.65778 -3.70279,-3.70278 0,-2.04501 1.65916,-3.70279 3.70279,-3.70279 2.045,0 3.70278,1.65778 3.70278,3.70279"
       id="path689" />
    <path
       style="fill:#073330;fill-opacity:1;fill-rule:nonzero;stroke:none;stroke-width:0.352778"
       d="m 93.797533,128.20125 c -0.09371,0 -0.188792,-0.0303 -0.270097,-0.0937 -0.191548,-0.14883 -0.225997,-0.42581 -0.07717,-0.61874 l 10.630184,-13.66049 c 0.14883,-0.19293 0.42582,-0.22738 0.61874,-0.0772 0.19155,0.14883 0.226,0.42581 0.0772,0.61736 l -10.630184,13.66187 c -0.08682,0.11162 -0.216351,0.17088 -0.348643,0.17088"
       id="path691" />
    <path
       style="fill:#073330;fill-opacity:1;fill-rule:nonzero;stroke:none;stroke-width:0.352778"
       d="m 108.3317,129.99408 -5.62929,-19.81895 1.13138,-0.32108 5.62928,19.81894 z m 0,0"
       id="path693" />
    <path
       style="fill:#073330;fill-opacity:1;fill-rule:nonzero;stroke:none;stroke-width:0.352778"
       d="m 105.92427,101.09661 h -9.035797 c -0.0055,0 -0.0097,0.001 -0.01517,0.001 -0.0055,0 -0.0097,-0.001 -0.01517,-0.001 -0.38585,0 -0.697286,0.31144 -0.697286,0.69729 0,0.26734 0.151582,0.50023 0.373447,0.61736 1.215429,0.63803 2.422592,0.5774 3.587036,0.5774 1.80798,0 1.42764,-0.94671 5.80292,-0.94671 0.26182,0 0.47266,-0.21084 0.47266,-0.47267 0,-0.26183 -0.21084,-0.47267 -0.47266,-0.47267"
       id="path695" />
    <path
       style="fill:#073330;fill-opacity:1;fill-rule:nonzero;stroke:none;stroke-width:0.352778"
       d="m 126.10701,130.41989 c -0.32383,0 -0.58704,-0.26321 -0.58704,-0.58704 v -27.50702 c 0,-0.28802 0.20671,-0.53193 0.49058,-0.57878 l 2.70509,-0.45062 -1.49379,-0.7469 c -0.29077,-0.14607 -0.4079,-0.49885 -0.26321,-0.789613 0.14607,-0.289387 0.49885,-0.40652 0.78824,-0.261828 l 1.77767,0.888841 c 0.41755,0.20808 0.65043,0.65732 0.58153,1.11896 -0.0703,0.46027 -0.42443,0.82131 -0.8847,0.89711 l -2.52594,0.4203 v 27.00955 c 0,0.32383 -0.26321,0.58704 -0.58843,0.58704"
       id="path697" />
    <path
       style="fill:#073330;fill-opacity:1;fill-rule:nonzero;stroke:none;stroke-width:0.352778"
       d="m 108.89807,130.27382 c -0.0207,0 -0.04,-0.001 -0.0606,-0.004 l -15.099163,-2.07257 c -0.241159,-0.0331 -0.409279,-0.25632 -0.376206,-0.49747 0.03306,-0.24116 0.254939,-0.40928 0.496094,-0.37621 l 15.099165,2.07257 c 0.24116,0.0331 0.40928,0.25632 0.3762,0.4961 -0.0303,0.22186 -0.2191,0.38172 -0.43546,0.38172"
       id="path699" />
    <path
       style="fill:#073330;fill-opacity:1;fill-rule:nonzero;stroke:none;stroke-width:0.352778"
       d="M 150.07249,130.93528 H 108.8967 c -0.60772,0 -1.10106,-0.49334 -1.10106,-1.10243 0,-0.6091 0.49334,-1.10243 1.10106,-1.10243 h 41.17579 c 2.52317,0 4.80247,-1.59026 5.67337,-3.95911 l 3.81166,-10.37112 c 0.20944,-0.57188 0.84335,-0.86403 1.41386,-0.65456 0.57189,0.20946 0.86402,0.84336 0.65458,1.41387 l -3.81166,10.37249 c -1.18787,3.2315 -4.2981,5.40329 -7.74181,5.40329"
       id="path701" />
    <path
       style="fill:#073330;fill-opacity:1;fill-rule:nonzero;stroke:none;stroke-width:0.352778"
       d="m 116.20857,133.86636 h -3.1061 c -0.24254,0 -0.44097,-0.19706 -0.44097,-0.44097 0,-0.24391 0.19843,-0.44097 0.44097,-0.44097 h 3.1061 c 0.24253,0 0.44097,0.19706 0.44097,0.44097 0,0.24391 -0.19844,0.44097 -0.44097,0.44097"
       id="path703" />
    <path
       style="fill:#073330;fill-opacity:1;fill-rule:nonzero;stroke:none;stroke-width:0.352778"
       d="m 114.65552,133.86636 c -0.0799,0 -0.16123,-0.022 -0.23289,-0.0661 l -5.75882,-3.59393 c -0.20671,-0.12815 -0.26872,-0.39963 -0.14056,-0.60633 0.12953,-0.20671 0.40101,-0.2701 0.60771,-0.14056 l 5.75745,3.59254 c 0.2067,0.12816 0.27009,0.40101 0.14056,0.60634 -0.0827,0.13505 -0.22738,0.20808 -0.37345,0.20808"
       id="path705" />
    <path
       style="fill:#073330;fill-opacity:1;fill-rule:nonzero;stroke:none;stroke-width:0.352778"
       d="m 108.01751,133.05056 0.0248,0.007 c 0.27836,0.0744 0.56637,0.11025 0.85576,0.11025 1.8383,0 3.33485,-1.49517 3.33485,-3.33485 0,-1.83969 -1.49655,-3.33486 -3.33485,-3.33486 H 94.184756 l -0.0014,0.0138 -0.384475,-0.0138 c -0.697286,0 -1.262281,0.56638 -1.262281,1.26229 0,0.56224 0.377582,1.06246 0.920528,1.21405 l 0.322463,0.0909 -0.0014,0.001 z m 0.88056,0.85301 c -0.21772,0 -0.43546,-0.0179 -0.65043,-0.0524 l -0.004,0.0248 -0.39412,-0.10886 -14.913128,-4.17408 0.0055,-0.0303 c -0.684886,-0.32659 -1.141017,-1.02664 -1.141017,-1.80247 0,-1.01837 0.767566,-1.86173 1.754243,-1.983 l 0.0014,-0.011 0.155719,-0.001 c 0.03721,-0.001 0.07579,-0.003 0.112998,-0.001 l 0.04548,-10e-4 H 108.8981 c 2.24345,0 4.06935,1.82728 4.06935,4.07073 0,2.24482 -1.8259,4.07072 -4.06935,4.07072"
       id="path707" />
    <path
       style="fill:#073330;fill-opacity:1;fill-rule:nonzero;stroke:none;stroke-width:0.352778"
       d="m 106.76625,114.40846 c -1.65916,0 -3.18189,-1.12999 -3.64904,-2.77261 -0.0882,-0.31281 0.0923,-0.63803 0.40514,-0.72623 0.31281,-0.0882 0.63665,0.0923 0.72622,0.40515 0.3514,1.2361 1.5627,2.05327 2.81809,1.90031 0.32246,-0.0386 0.61461,0.19017 0.65457,0.51263 0.0386,0.32246 -0.19017,0.61461 -0.51263,0.65457 -0.14883,0.0179 -0.29628,0.0262 -0.44235,0.0262"
       id="path709" />
    <path
       style="fill:#073330;fill-opacity:1;fill-rule:nonzero;stroke:none;stroke-width:0.352778"
       d="m 156.45829,133.47776 c -0.20394,0 -0.3872,-0.14194 -0.4313,-0.35003 -0.15847,-0.75516 -0.23841,-1.53513 -0.23841,-2.3151 0,-6.17637 5.02571,-11.20207 11.20207,-11.20207 0.68626,0 1.37252,0.062 2.04089,0.18465 0.23975,0.0441 0.39825,0.27423 0.35415,0.51401 -0.0441,0.23978 -0.27287,0.39826 -0.51403,0.35416 -0.61461,-0.11438 -1.24848,-0.17225 -1.88101,-0.17225 -5.69129,0 -10.3215,4.6302 -10.3215,10.3215 0,0.71934 0.0744,1.43729 0.22049,2.13458 0.051,0.23703 -0.10199,0.47129 -0.3404,0.5209 -0.0303,0.007 -0.0606,0.01 -0.0909,0.01"
       id="path711" />
    <path
       style="fill:#073330;fill-opacity:1;fill-rule:nonzero;stroke:#073330;stroke-width:0.635;stroke-miterlimit:4;stroke-dasharray:none;stroke-opacity:1"
       d="m 166.99065,122.54854 c -4.55581,0 -8.2641,3.7083 -8.2641,8.26409 0,4.55717 3.70829,8.26547 8.2641,8.26547 4.55718,0 8.2641,-3.7083 8.2641,-8.26547 0,-4.55579 -3.70692,-8.26409 -8.2641,-8.26409 m 0,17.70503 c -5.20485,0 -9.43956,-4.23471 -9.43956,-9.44094 0,-5.20485 4.23471,-9.43956 9.43956,-9.43956 5.20485,0 9.43956,4.23471 9.43956,9.43956 0,5.20623 -4.23471,9.44094 -9.43956,9.44094"
       id="path713" />
    <path
       style="fill:#073330;fill-opacity:1;fill-rule:nonzero;stroke:none;stroke-width:0.352778"
       d="m 164.9746,131.03312 c -0.12266,0 -0.22049,-0.0978 -0.22049,-0.22049 0,-1.23334 1.0032,-2.23655 2.23654,-2.23655 0.12266,0 0.22049,0.0992 0.22049,0.22048 0,0.12127 -0.0978,0.22049 -0.22049,0.22049 -0.99081,0 -1.79557,0.80615 -1.79557,1.79558 0,0.12265 -0.0992,0.22049 -0.22048,0.22049"
       id="path715" />
    <path
       style="fill:#073330;fill-opacity:1;fill-rule:nonzero;stroke:none;stroke-width:0.352778"
       d="m 166.99065,133.05056 c -0.12125,0 -0.22048,-0.0992 -0.22048,-0.22048 0,-0.12127 0.0992,-0.22049 0.22048,-0.22049 0.99081,0 1.79698,-0.80615 1.79698,-1.79558 0,-0.12265 0.0992,-0.22049 0.22049,-0.22049 0.12125,0 0.22048,0.0978 0.22048,0.22049 0,1.23334 -1.00323,2.23655 -2.23795,2.23655"
       id="path717" />
    <path
       style="fill:#073330;fill-opacity:1;fill-rule:nonzero;stroke:none;stroke-width:0.352778"
       d="m 172.00532,135.18101 c -0.0496,0 -0.0992,-0.0165 -0.14055,-0.051 -0.0937,-0.0772 -0.10749,-0.21635 -0.0289,-0.31006 0.37208,-0.45061 0.68076,-0.94946 0.915,-1.48276 0.0482,-0.11163 0.17777,-0.16261 0.29076,-0.113 0.11024,0.0482 0.16126,0.17914 0.11303,0.29076 -0.25082,0.57051 -0.58018,1.10519 -0.9798,1.58613 -0.0441,0.0524 -0.10612,0.0799 -0.16951,0.0799"
       id="path719" />
    <path
       style="fill:#073330;fill-opacity:1;fill-rule:nonzero;stroke:none;stroke-width:0.352778"
       d="m 173.49774,131.03312 c -0.12125,0 -0.22048,-0.0978 -0.22048,-0.22049 0,-1.25953 -0.3707,-2.47496 -1.07351,-3.514 -0.0675,-0.10059 -0.0413,-0.2384 0.0593,-0.30592 0.10061,-0.0689 0.23841,-0.0413 0.30593,0.0592 0.7524,1.11208 1.14928,2.41295 1.14928,3.76067 0,0.12265 -0.0978,0.22049 -0.22049,0.22049"
       id="path721" />
    <path
       style="fill:#073330;fill-opacity:1;fill-rule:nonzero;stroke:none;stroke-width:0.352778"
       d="m 160.48356,131.03312 c -0.12129,0 -0.22049,-0.0978 -0.22049,-0.22049 0,-3.7083 3.01791,-6.72621 6.72758,-6.72621 0.12266,0 0.22049,0.0978 0.22049,0.22049 0,0.12127 -0.0978,0.22049 -0.22049,0.22049 -3.46576,0 -6.2866,2.81946 -6.2866,6.28523 0,0.12265 -0.0979,0.22049 -0.22049,0.22049"
       id="path723" />
    <path
       style="fill:#073330;fill-opacity:1;fill-rule:nonzero;stroke:none;stroke-width:0.352778"
       d="m 166.99065,137.54021 c -1.46484,0 -2.85806,-0.46302 -4.02802,-1.33807 -0.0978,-0.073 -0.11712,-0.21222 -0.0441,-0.30868 0.0731,-0.0978 0.21085,-0.11714 0.30868,-0.0441 1.0928,0.81718 2.39367,1.24988 3.76343,1.24988 0.12266,0 0.22049,0.0992 0.22049,0.22049 0,0.12264 -0.0978,0.22048 -0.22049,0.22048"
       id="path725" />
    <path
       style="fill:#073330;fill-opacity:1;fill-rule:nonzero;stroke:none;stroke-width:0.352778"
       d="m 126.98896,129.83285 h -1.76389 v -21.85983 h 1.76389 z m 0,0"
       id="path727" />
    <path
       style="fill:#073330;fill-opacity:1;fill-rule:nonzero;stroke:#073330;stroke-width:0.635;stroke-miterlimit:4;stroke-dasharray:none;stroke-opacity:1"
       d="m 104.42772,114.68683 c -0.29628,0 -0.54984,-0.22324 -0.58429,-0.52366 -0.0358,-0.32246 0.19706,-0.61322 0.51952,-0.64905 l 21.6793,-2.39917 c 0.32246,-0.0358 0.61322,0.19706 0.64905,0.51952 0.0358,0.32246 -0.19706,0.61185 -0.51952,0.64906 l -21.67929,2.39916 c -0.0221,0.003 -0.0441,0.004 -0.0648,0.004"
       id="path729" />
    <path
       style="fill:#073330;fill-opacity:1;fill-rule:nonzero;stroke:#073330;stroke-width:0.635;stroke-miterlimit:4;stroke-dasharray:none;stroke-opacity:1"
       d="m 108.8967,130.27382 c -0.19155,0 -0.36794,-0.12678 -0.42306,-0.32109 l -7.81072,-27.49737 c -0.0675,-0.23427 0.0689,-0.47818 0.30317,-0.54432 0.23426,-0.0661 0.47818,0.0689 0.54432,0.30316 l 7.81072,27.49875 c 0.0662,0.23427 -0.0689,0.47818 -0.30317,0.54433 -0.04,0.011 -0.0813,0.0165 -0.12126,0.0165"
       id="path731" />
    <path
       style="fill:#073330;fill-opacity:1;fill-rule:nonzero;stroke:none;stroke-width:0.352778"
       d="m 166.99065,131.40105 c -0.2329,0 -0.45339,-0.13918 -0.54571,-0.36931 l -6.3996,-16.03348 c -0.11987,-0.30178 0.0261,-0.64354 0.32798,-0.76343 0.3018,-0.12127 0.64353,0.0262 0.76344,0.32797 l 6.3996,16.0321 c 0.12125,0.30179 -0.0261,0.64354 -0.32797,0.76481 -0.0703,0.0275 -0.14471,0.0413 -0.21774,0.0413"
       id="path733" />
    <path
       style="fill:#073330;fill-opacity:1;fill-rule:nonzero;stroke:none;stroke-width:0.352778"
       d="m 124.17638,114.19211 h -0.33761 c -1.22508,0 -2.21865,0.99357 -2.21865,2.21864 v 9.49606 c 0,1.22508 0.99357,2.21864 2.21865,2.21864 h 0.33761 c 0.29077,0 0.52779,-0.23564 0.52779,-0.52778 V 114.7199 c 0,-0.29214 -0.23702,-0.52779 -0.52779,-0.52779"
       id="path735" />
    <path
       style="fill:#073330;fill-opacity:1;fill-rule:evenodd;stroke:none;stroke-width:0.352778"
       d="m 140.9416,116.08416 h 3.31556 l -1.65778,4.02663 h 2.8429 l -5.6858,7.10654 1.65916,-5.21174 h -2.36885 z m 0,0"
       id="path737" />
  </g>
</svg>
