<?xml version="1.0" encoding="UTF-8" standalone="no"?>
<!-- Created with Inkscape (http://www.inkscape.org/) -->

<svg
   width="97.204613mm"
   height="41.133614mm"
   viewBox="0 0 97.204613 41.133614"
   version="1.1"
   id="svg2445"
   xmlns="http://www.w3.org/2000/svg"
   xmlns:svg="http://www.w3.org/2000/svg">
  <defs
     id="defs2442" />
  <g
     id="layer1"
     transform="translate(-182.20103,-130.23415)">
    <path
       style="fill:none;stroke:#6eae00;stroke-width:3.33834;stroke-linecap:butt;stroke-linejoin:miter;stroke-miterlimit:10;stroke-opacity:1"
       d="m 230.75345,159.52848 h 21.97695 c 2.52319,0 4.80247,-1.59025 5.67339,-3.9591 l 3.81165,-10.37111"
       id="path149" />
    <path
       style="fill:none;stroke:#6eae00;stroke-width:2.12443;stroke-linecap:butt;stroke-linejoin:miter;stroke-miterlimit:10;stroke-opacity:1"
       d="m 230.64459,149.31584 v -12.67519 c 0,-1.18098 0.95635,-2.13734 2.13733,-2.13734 h 6.35276 c 2.40881,0 4.78041,0.60358 6.8957,1.75838 l 16.67564,9.09229"
       id="path151" />
    <path
       style="fill:#6eae00;fill-opacity:1;fill-rule:nonzero;stroke:none;stroke-width:0.352778"
       d="M 246.58573,159.67318 H 229.4829 v -11.10837 h 10.59849 c 3.59255,0 6.50434,2.9118 6.50434,6.50434 z m 0,0"
       id="path739" />
    <path
       style="fill:#073330;fill-opacity:1;fill-rule:nonzero;stroke:none;stroke-width:0.352778"
       d="m 203.89687,153.7614 c -0.0703,0 -0.14057,-0.0331 -0.18328,-0.0965 -0.76481,-1.13275 -1.79972,-2.08497 -2.99034,-2.75056 -0.10749,-0.0593 -0.1447,-0.19431 -0.0854,-0.30042 0.0592,-0.1061 0.19292,-0.14469 0.30041,-0.0854 1.25126,0.70142 2.33715,1.69912 3.14055,2.88974 0.0689,0.1006 0.0427,0.23702 -0.0593,0.30593 -0.0372,0.0248 -0.0799,0.0372 -0.12264,0.0372"
       id="path741" />
    <path
       style="fill:#073330;fill-opacity:1;fill-rule:nonzero;stroke:none;stroke-width:0.352778"
       d="m 199.54502,150.35213 c -0.0248,0 -0.051,-0.004 -0.0758,-0.0138 -0.96325,-0.35415 -1.97749,-0.53192 -3.01377,-0.53192 -0.12127,0 -0.21911,-0.0992 -0.21911,-0.22049 0,-0.12264 0.0978,-0.22048 0.21911,-0.22048 1.08865,0 2.15387,0.18741 3.16535,0.55948 0.11438,0.0413 0.17364,0.16812 0.13092,0.2825 -0.0317,0.0882 -0.11576,0.14469 -0.20671,0.14469"
       id="path743" />
    <path
       style="fill:#073330;fill-opacity:1;fill-rule:nonzero;stroke:none;stroke-width:0.352778"
       d="m 187.48305,158.77883 c -0.12126,0 -0.22048,-0.0992 -0.22048,-0.22049 0,-2.74367 1.21267,-5.32336 3.3252,-7.0776 0.0937,-0.0772 0.23289,-0.0648 0.31144,0.0289 0.0772,0.0937 0.0648,0.23289 -0.0289,0.31006 -2.01193,1.67018 -3.16673,4.12584 -3.16673,6.7386 0,0.12127 -0.0978,0.22049 -0.22049,0.22049"
       id="path745" />
    <path
       style="fill:#073330;fill-opacity:1;fill-rule:nonzero;stroke:none;stroke-width:0.352778"
       d="m 196.45684,167.75124 c -0.73863,0 -1.47312,-0.0882 -2.18281,-0.26045 -0.11852,-0.0289 -0.19155,-0.14745 -0.16261,-0.26596 0.0289,-0.11851 0.14883,-0.19155 0.26734,-0.16261 0.67524,0.16536 1.37528,0.24805 2.07808,0.24805 1.67983,0 3.3128,-0.47681 4.71978,-1.3808 0.10197,-0.0648 0.2384,-0.0358 0.30455,0.0661 0.0661,0.10335 0.0358,0.23978 -0.0661,0.30454 -1.47864,0.94947 -3.19429,1.45108 -4.95818,1.45108"
       id="path747" />
    <path
       style="fill:#073330;fill-opacity:1;fill-rule:nonzero;stroke:#073330;stroke-width:0.635;stroke-miterlimit:4;stroke-dasharray:none;stroke-opacity:1"
       d="m 196.45684,147.24052 c -6.24114,0 -11.31783,5.07669 -11.31783,11.31782 0,6.23976 5.07669,11.31646 11.31783,11.31646 6.23976,0 11.31645,-5.0767 11.31645,-11.31646 0,-6.24113 -5.07669,-11.31782 -11.31645,-11.31782 m 0,23.80974 c -6.88882,0 -12.49329,-5.6031 -12.49329,-12.49192 0,-6.88881 5.60447,-12.49329 12.49329,-12.49329 6.88743,0 12.49191,5.60448 12.49191,12.49329 0,6.88882 -5.60448,12.49192 -12.49191,12.49192"
       id="path749" />
    <path
       style="fill:#073330;fill-opacity:1;fill-rule:nonzero;stroke:none;stroke-width:0.352778"
       d="m 210.27029,158.99932 c -0.24253,0 -0.43959,-0.19844 -0.43959,-0.44098 0,-7.37388 -5.99998,-13.37385 -13.37386,-13.37385 -7.37526,0 -13.37524,5.99997 -13.37524,13.37385 0,0.24254 -0.19706,0.44098 -0.4396,0.44098 -0.24391,0 -0.44097,-0.19844 -0.44097,-0.44098 0,-7.86033 6.3941,-14.2558 14.25581,-14.2558 7.86033,0 14.25443,6.39547 14.25443,14.2558 0,0.24254 -0.19707,0.44098 -0.44098,0.44098"
       id="path751" />
    <path
       style="fill:#073330;fill-opacity:1;fill-rule:nonzero;stroke:none;stroke-width:0.352778"
       d="m 198.08568,158.55834 c 0,0.89986 -0.72898,1.63023 -1.62884,1.63023 -0.90124,0 -1.63022,-0.73037 -1.63022,-1.63023 0,-0.89985 0.72898,-1.63021 1.63022,-1.63021 0.89986,0 1.62884,0.73036 1.62884,1.63021"
       id="path753" />
    <path
       style="fill:#073330;fill-opacity:1;fill-rule:nonzero;stroke:none;stroke-width:0.352778"
       d="m 193.49957,158.77883 c -0.12127,0 -0.22049,-0.0992 -0.22049,-0.22049 0,-0.86954 0.34451,-1.6812 0.97014,-2.28478 0.0868,-0.0841 0.226,-0.0827 0.31144,0.005 0.0841,0.0868 0.0827,0.22738 -0.006,0.31144 -0.53882,0.51952 -0.83509,1.21818 -0.83509,1.96784 0,0.12126 -0.0992,0.22048 -0.22049,0.22048"
       id="path755" />
    <path
       style="fill:#073330;fill-opacity:1;fill-rule:nonzero;stroke:none;stroke-width:0.352778"
       d="m 196.45684,161.73472 c -0.8723,0 -1.68534,-0.34588 -2.2903,-0.97427 -0.0841,-0.0882 -0.0813,-0.22738 0.006,-0.31144 0.0882,-0.0841 0.22738,-0.0813 0.31144,0.006 0.52227,0.54157 1.22232,0.83922 1.97335,0.83922 0.12127,0 0.22048,0.0992 0.22048,0.22049 0,0.12264 -0.0992,0.22049 -0.22048,0.22049"
       id="path757" />
    <path
       style="fill:#073330;fill-opacity:1;fill-rule:nonzero;stroke:none;stroke-width:0.352778"
       d="m 199.41273,158.77883 c -0.12127,0 -0.22049,-0.0992 -0.22049,-0.22049 0,-1.50895 -1.22783,-2.73678 -2.73678,-2.73678 -0.12127,0 -0.21911,-0.0978 -0.21911,-0.22048 0,-0.12127 0.0978,-0.22049 0.21911,-0.22049 1.75286,0 3.17775,1.42627 3.17775,3.17775 0,0.12127 -0.0992,0.22049 -0.22048,0.22049"
       id="path759" />
    <path
       style="fill:#073330;fill-opacity:1;fill-rule:nonzero;stroke:none;stroke-width:0.352778"
       d="m 215.25741,160.63091 c 0,2.04501 -1.65778,3.70279 -3.70279,3.70279 -2.04363,0 -3.70278,-1.65778 -3.70278,-3.70279 0,-2.045 1.65915,-3.70278 3.70278,-3.70278 2.04501,0 3.70279,1.65778 3.70279,3.70278"
       id="path761" />
    <path
       style="fill:#073330;fill-opacity:1;fill-rule:nonzero;stroke:none;stroke-width:0.352778"
       d="m 196.45546,158.99932 c -0.0937,0 -0.18879,-0.0303 -0.27009,-0.0937 -0.19155,-0.14883 -0.226,-0.42581 -0.0772,-0.61874 l 10.63018,-13.66049 c 0.14883,-0.19293 0.42581,-0.22738 0.61736,-0.0772 0.19293,0.14883 0.22738,0.42581 0.0786,0.61736 l -10.63019,13.66187 c -0.0868,0.11162 -0.21635,0.17088 -0.34864,0.17088"
       id="path763" />
    <path
       style="fill:#073330;fill-opacity:1;fill-rule:nonzero;stroke:none;stroke-width:0.352778"
       d="m 210.98963,160.79077 -5.62929,-19.81757 1.12999,-0.32108 5.63067,19.81756 z m 0,0"
       id="path765" />
    <path
       style="fill:#073330;fill-opacity:1;fill-rule:nonzero;stroke:none;stroke-width:0.352778"
       d="m 208.5822,131.89468 h -9.0358 c -0.006,0 -0.01,0.001 -0.0152,0.001 -0.005,0 -0.01,-0.001 -0.0152,-0.001 -0.38585,0 -0.69729,0.31144 -0.69729,0.69729 0,0.26734 0.15159,0.50023 0.37345,0.61736 1.21543,0.63804 2.42259,0.5774 3.58704,0.5774 1.80798,0 1.42764,-0.94671 5.80291,-0.94671 0.26183,0 0.47267,-0.21084 0.47267,-0.47267 0,-0.26045 -0.21084,-0.47267 -0.47267,-0.47267"
       id="path767" />
    <path
       style="fill:#073330;fill-opacity:1;fill-rule:nonzero;stroke:none;stroke-width:0.352778"
       d="m 228.76494,161.21796 c -0.32522,0 -0.58842,-0.26321 -0.58842,-0.58705 V 133.1239 c 0,-0.28802 0.20808,-0.53193 0.49196,-0.58016 l 2.70509,-0.44924 -1.49379,-0.7469 c -0.29077,-0.14607 -0.4079,-0.49885 -0.26321,-0.78961 0.1447,-0.28939 0.49747,-0.40653 0.78824,-0.26183 l 1.77767,0.88883 c 0.41617,0.20809 0.65043,0.65733 0.58015,1.11759 -0.0689,0.46164 -0.42443,0.82269 -0.88332,0.89849 l -2.52732,0.4203 v 27.00954 c 0,0.32384 -0.26321,0.58705 -0.58705,0.58705"
       id="path769" />
    <path
       style="fill:#073330;fill-opacity:1;fill-rule:nonzero;stroke:none;stroke-width:0.352778"
       d="m 211.556,161.07189 c -0.0207,0 -0.04,-0.001 -0.0606,-0.004 l -15.09917,-2.07257 c -0.24115,-0.0331 -0.40927,-0.25632 -0.3762,-0.49747 0.0331,-0.24116 0.25494,-0.40928 0.49609,-0.37621 l 15.09917,2.07257 c 0.24115,0.0331 0.40927,0.25632 0.3762,0.4961 -0.0303,0.22186 -0.21911,0.38171 -0.43546,0.38171"
       id="path771" />
    <path
       style="fill:#073330;fill-opacity:1;fill-rule:nonzero;stroke:none;stroke-width:0.352778"
       d="m 252.7304,161.73334 h -41.17578 c -0.60771,0 -1.10105,-0.49333 -1.10105,-1.10243 0,-0.60909 0.49334,-1.10243 1.10105,-1.10243 h 41.17578 c 2.52319,0 4.80247,-1.59025 5.67339,-3.9591 l 3.81165,-10.37111 c 0.20946,-0.57189 0.84336,-0.86403 1.41387,-0.65457 0.57051,0.20946 0.86403,0.84335 0.65457,1.41386 l -3.81166,10.3725 c -1.18787,3.2315 -4.29947,5.40328 -7.74182,5.40328"
       id="path773" />
    <path
       style="fill:#073330;fill-opacity:1;fill-rule:nonzero;stroke:none;stroke-width:0.352778"
       d="m 218.8665,164.66443 h -3.1061 c -0.24392,0 -0.44097,-0.19706 -0.44097,-0.44097 0,-0.24391 0.19705,-0.44097 0.44097,-0.44097 h 3.1061 c 0.24253,0 0.43959,0.19706 0.43959,0.44097 0,0.24391 -0.19706,0.44097 -0.43959,0.44097"
       id="path775" />
    <path
       style="fill:#073330;fill-opacity:1;fill-rule:nonzero;stroke:none;stroke-width:0.352778"
       d="m 217.31345,164.66443 c -0.0799,0 -0.16123,-0.0221 -0.23289,-0.0675 l -5.75882,-3.59255 c -0.20671,-0.12816 -0.26872,-0.39963 -0.14056,-0.60633 0.12815,-0.20671 0.40101,-0.2701 0.60771,-0.14056 l 5.75744,3.59254 c 0.20671,0.12816 0.2701,0.40101 0.14057,0.60634 -0.0827,0.13504 -0.22738,0.20808 -0.37345,0.20808"
       id="path777" />
    <path
       style="fill:#073330;fill-opacity:1;fill-rule:nonzero;stroke:none;stroke-width:0.352778"
       d="m 210.67544,163.84863 0.0248,0.007 c 0.27836,0.073 0.56637,0.11025 0.85438,0.11025 1.83968,0 3.33623,-1.49655 3.33623,-3.33486 0,-1.83968 -1.49655,-3.33623 -3.33623,-3.33623 h -14.71193 l -0.003,0.0152 -0.38447,-0.0152 c -0.69591,0 -1.26228,0.56776 -1.26228,1.26366 0,0.56224 0.37896,1.06247 0.9219,1.21406 l 0.32246,0.0909 -0.001,0.001 z m 0.87918,0.85163 c -0.21635,0 -0.43408,-0.0165 -0.64905,-0.051 l -0.004,0.0248 -0.39412,-0.11024 -14.91313,-4.1727 0.006,-0.0303 c -0.68489,-0.3266 -1.14102,-1.02664 -1.14102,-1.80248 0,-1.01837 0.76619,-1.86173 1.75424,-1.98299 l 0.001,-0.011 0.15571,-10e-4 c 0.0372,-0.001 0.0758,-0.003 0.113,-0.001 l 0.0455,-0.001 h 15.02613 c 2.24482,0 4.07072,1.82728 4.07072,4.07072 0,2.24482 -1.8259,4.06935 -4.07072,4.06935"
       id="path779" />
    <path
       style="fill:#073330;fill-opacity:1;fill-rule:nonzero;stroke:none;stroke-width:0.352778"
       d="m 209.42418,145.20653 c -1.65916,0 -3.18189,-1.12999 -3.64905,-2.77261 -0.0882,-0.31282 0.0923,-0.63803 0.40515,-0.72622 0.31143,-0.0882 0.63665,0.0923 0.72485,0.40514 0.35139,1.2361 1.56407,2.05465 2.81808,1.90031 0.32384,-0.04 0.61598,0.19017 0.65595,0.51263 0.0386,0.32246 -0.19017,0.61461 -0.51263,0.65457 -0.14883,0.0179 -0.29628,0.0262 -0.44235,0.0262"
       id="path781" />
    <path
       style="fill:#073330;fill-opacity:1;fill-rule:nonzero;stroke:none;stroke-width:0.352778"
       d="m 259.11624,164.27582 c -0.20396,0 -0.38723,-0.14193 -0.43133,-0.35001 -0.15848,-0.75655 -0.2384,-1.53514 -0.2384,-2.31511 0,-6.17637 5.0257,-11.20207 11.20207,-11.20207 0.68626,0 1.37253,0.062 2.04087,0.18466 0.23978,0.0441 0.39826,0.27422 0.35416,0.514 -0.0441,0.23978 -0.27285,0.39688 -0.51401,0.35278 -0.61598,-0.113 -1.2485,-0.17088 -1.88102,-0.17088 -5.6913,0 -10.32151,4.63021 -10.32151,10.32151 0,0.71934 0.0744,1.43729 0.22049,2.1332 0.051,0.2384 -0.10198,0.47267 -0.34038,0.52228 -0.0303,0.007 -0.0606,0.01 -0.0909,0.01"
       id="path783" />
    <path
       style="fill:#073330;fill-opacity:1;fill-rule:nonzero;stroke:#073330;stroke-width:0.635;stroke-miterlimit:4;stroke-dasharray:none;stroke-opacity:1"
       d="m 269.64858,153.3466 c -4.55717,0 -8.2641,3.7083 -8.2641,8.26548 0,4.55579 3.70693,8.26409 8.2641,8.26409 4.55717,0 8.2641,-3.7083 8.2641,-8.26409 0,-4.55718 -3.70693,-8.26548 -8.2641,-8.26548 m 0,17.70366 c -5.20485,0 -9.43956,-4.23333 -9.43956,-9.43818 0,-5.20623 4.23471,-9.44094 9.43956,-9.44094 5.20485,0 9.43956,4.23471 9.43956,9.44094 0,5.20485 -4.23471,9.43818 -9.43956,9.43818"
       id="path785" />
    <path
       style="fill:#073330;fill-opacity:1;fill-rule:nonzero;stroke:none;stroke-width:0.352778"
       d="m 267.63251,161.83119 c -0.12265,0 -0.22049,-0.0978 -0.22049,-0.22049 0,-1.23335 1.00321,-2.23656 2.23656,-2.23656 0.12264,0 0.22048,0.0978 0.22048,0.22049 0,0.12127 -0.0978,0.22048 -0.22048,0.22048 -0.99081,0 -1.79558,0.80616 -1.79558,1.79559 0,0.12264 -0.0992,0.22049 -0.22049,0.22049"
       id="path787" />
    <path
       style="fill:#073330;fill-opacity:1;fill-rule:nonzero;stroke:none;stroke-width:0.352778"
       d="m 269.64858,163.84863 c -0.12127,0 -0.22049,-0.0992 -0.22049,-0.22048 0,-0.12127 0.0992,-0.22049 0.22049,-0.22049 0.99081,0 1.79696,-0.80615 1.79696,-1.79696 0,-0.12127 0.0978,-0.21911 0.22049,-0.21911 0.12126,0 0.22048,0.0978 0.22048,0.21911 0,1.23472 -1.00459,2.23793 -2.23793,2.23793"
       id="path789" />
    <path
       style="fill:#073330;fill-opacity:1;fill-rule:nonzero;stroke:none;stroke-width:0.352778"
       d="m 274.66326,165.97908 c -0.0496,0 -0.0992,-0.0165 -0.14056,-0.051 -0.0937,-0.0772 -0.10749,-0.21635 -0.0303,-0.31006 0.37345,-0.45061 0.68213,-0.94947 0.91639,-1.48276 0.0482,-0.11163 0.17777,-0.16261 0.28939,-0.113 0.11162,0.0482 0.16261,0.17914 0.11438,0.29076 -0.25081,0.57051 -0.58016,1.10519 -0.97979,1.58613 -0.0441,0.0524 -0.1061,0.0799 -0.1695,0.0799"
       id="path791" />
    <path
       style="fill:#073330;fill-opacity:1;fill-rule:nonzero;stroke:none;stroke-width:0.352778"
       d="m 276.15568,161.83119 c -0.12127,0 -0.22049,-0.0978 -0.22049,-0.22049 0,-1.25953 -0.37069,-2.47496 -1.07349,-3.514 -0.0675,-0.1006 -0.0413,-0.2384 0.0593,-0.30592 0.1006,-0.0689 0.2384,-0.0413 0.30593,0.0592 0.75241,1.11208 1.14928,2.41295 1.14928,3.76067 0,0.12264 -0.0992,0.22049 -0.22048,0.22049"
       id="path793" />
    <path
       style="fill:#073330;fill-opacity:1;fill-rule:nonzero;stroke:none;stroke-width:0.352778"
       d="m 263.14148,161.83119 c -0.12126,0 -0.22048,-0.0978 -0.22048,-0.22049 0,-3.70968 3.0179,-6.7262 6.72758,-6.7262 0.12264,0 0.22048,0.0978 0.22048,0.2191 0,0.12265 -0.0978,0.22049 -0.22048,0.22049 -3.46577,0 -6.28661,2.82084 -6.28661,6.28661 0,0.12264 -0.0978,0.22049 -0.22049,0.22049"
       id="path795" />
    <path
       style="fill:#073330;fill-opacity:1;fill-rule:nonzero;stroke:none;stroke-width:0.352778"
       d="m 269.64858,168.33828 c -1.46486,0 -2.85805,-0.46302 -4.028,-1.33807 -0.0978,-0.073 -0.11714,-0.21222 -0.0441,-0.30868 0.073,-0.0978 0.21084,-0.11714 0.3073,-0.0441 1.09416,0.81718 2.39503,1.24988 3.7648,1.24988 0.12264,0 0.22048,0.0992 0.22048,0.22049 0,0.12264 -0.0978,0.22048 -0.22048,0.22048"
       id="path797" />
    <path
       style="fill:#073330;fill-opacity:1;fill-rule:nonzero;stroke:none;stroke-width:0.352778"
       d="M 229.64689,160.63091 H 227.883 V 138.7711 h 1.76389 z m 0,0"
       id="path799" />
    <path
       style="fill:#073330;fill-opacity:1;fill-rule:nonzero;stroke:#073330;stroke-width:0.635;stroke-miterlimit:4;stroke-dasharray:none;stroke-opacity:1"
       d="m 207.08565,145.4849 c -0.29628,0 -0.55122,-0.22324 -0.58429,-0.52366 -0.0358,-0.32246 0.19706,-0.61323 0.51952,-0.64905 l 21.6793,-2.39917 c 0.32246,-0.0372 0.61322,0.19706 0.64905,0.51952 0.0358,0.32246 -0.19706,0.61323 -0.51952,0.64768 l -21.67929,2.40054 c -0.0221,0.003 -0.0441,0.004 -0.0648,0.004"
       id="path801" />
    <path
       style="fill:#073330;fill-opacity:1;fill-rule:nonzero;stroke:#073330;stroke-width:0.635;stroke-miterlimit:4;stroke-dasharray:none;stroke-opacity:1"
       d="m 211.55462,161.07189 c -0.19154,0 -0.36793,-0.12678 -0.42305,-0.32108 l -7.81072,-27.49738 c -0.0675,-0.23427 0.0689,-0.47818 0.30316,-0.54433 0.23427,-0.0675 0.47818,0.0689 0.54433,0.30317 l 7.81072,27.49876 c 0.0661,0.23288 -0.0689,0.47818 -0.30317,0.54432 -0.04,0.011 -0.0813,0.0165 -0.12127,0.0165"
       id="path803" />
    <path
       style="fill:#073330;fill-opacity:1;fill-rule:nonzero;stroke:none;stroke-width:0.352778"
       d="m 269.64858,162.19912 c -0.23289,0 -0.45337,-0.14056 -0.5457,-0.36931 l -6.39961,-16.03348 c -0.11989,-0.30179 0.0262,-0.64354 0.32797,-0.76343 0.30179,-0.12127 0.64354,0.0262 0.76343,0.3266 l 6.39961,16.03347 c 0.12127,0.30179 -0.0262,0.64354 -0.32797,0.76481 -0.0703,0.0275 -0.14469,0.0413 -0.21773,0.0413"
       id="path805" />
    <path
       style="fill:#6eae00;fill-opacity:1;fill-rule:nonzero;stroke:none;stroke-width:0.352778"
       d="m 227.24497,141.7077 -2.87183,0.32246 6.59942,13.85755 2.46531,-1.17409 z m 0,0"
       id="path807" />
    <path
       style="fill:#6eae00;fill-opacity:1;fill-rule:nonzero;stroke:none;stroke-width:0.352778"
       d="m 232.5449,135.34805 -1.46623,0.16399 v 14.71055 h 8.54935 z m 0,0"
       id="path809" />
  </g>
</svg>
