<?xml version="1.0" encoding="UTF-8" standalone="no"?>
<!-- Created with Inkscape (http://www.inkscape.org/) -->

<svg
   width="97.204605mm"
   height="41.133606mm"
   viewBox="0 0 97.204605 41.133606"
   version="1.1"
   id="svg2992"
   xmlns="http://www.w3.org/2000/svg"
   xmlns:svg="http://www.w3.org/2000/svg">
  <defs
     id="defs2989" />
  <g
     id="layer1"
     transform="translate(-48.191568,-107.67836)">
    <path
       style="fill:#073330;fill-opacity:1;fill-rule:nonzero;stroke:none;stroke-width:0.352778"
       d="m 69.887402,131.20561 c -0.07028,0 -0.140561,-0.0331 -0.183279,-0.0965 -0.764811,-1.13275 -1.79972,-2.08497 -2.990345,-2.75056 -0.106109,-0.0593 -0.144692,-0.19431 -0.08544,-0.30042 0.05925,-0.1061 0.192923,-0.14469 0.300411,-0.0854 1.251257,0.70142 2.337153,1.69912 3.140548,2.88974 0.0689,0.1006 0.04272,0.23702 -0.05926,0.30593 -0.03721,0.0248 -0.07993,0.0372 -0.122643,0.0372"
       id="path561" />
    <path
       style="fill:#073330;fill-opacity:1;fill-rule:nonzero;stroke:none;stroke-width:0.352778"
       d="m 65.535556,127.79634 c -0.0248,0 -0.05099,-0.006 -0.07579,-0.0138 -0.96325,-0.35415 -1.977486,-0.5333 -3.012394,-0.5333 -0.122644,0 -0.220487,-0.0978 -0.220487,-0.22048 0,-0.12127 0.09784,-0.21911 0.220487,-0.21911 1.087271,0 2.152498,0.18741 3.163975,0.55948 0.114378,0.0413 0.173634,0.16812 0.130916,0.2825 -0.03171,0.0896 -0.115757,0.14469 -0.206707,0.14469"
       id="path563" />
    <path
       style="fill:#073330;fill-opacity:1;fill-rule:nonzero;stroke:none;stroke-width:0.352778"
       d="m 53.473587,136.22304 c -0.121268,0 -0.220487,-0.0992 -0.220487,-0.22049 0,-2.74367 1.212674,-5.32336 3.325207,-7.0776 0.09371,-0.0772 0.232889,-0.0648 0.311439,0.0289 0.07717,0.0937 0.06477,0.23289 -0.02893,0.31006 -2.011938,1.67018 -3.166735,4.12722 -3.166735,6.7386 0,0.12127 -0.09784,0.22049 -0.220486,0.22049"
       id="path565" />
    <path
       style="fill:#073330;fill-opacity:1;fill-rule:nonzero;stroke:none;stroke-width:0.352778"
       d="m 62.447372,145.19545 c -0.738629,0 -1.473123,-0.0882 -2.182813,-0.26045 -0.118509,-0.0289 -0.190168,-0.14745 -0.16123,-0.26596 0.02893,-0.11851 0.147451,-0.19155 0.265963,-0.16261 0.675238,0.16536 1.375283,0.24805 2.07808,0.24805 1.679828,0 3.312805,-0.47681 4.719782,-1.3808 0.101973,-0.0648 0.2384,-0.0358 0.304546,0.0661 0.06615,0.10335 0.03583,0.23978 -0.06615,0.30454 -1.478637,0.94947 -3.194294,1.45108 -4.958183,1.45108"
       id="path567" />
    <path
       style="fill:#073330;fill-opacity:1;fill-rule:nonzero;stroke:#073330;stroke-width:0.635;stroke-miterlimit:4;stroke-dasharray:none;stroke-opacity:1"
       d="m 62.447372,124.68473 c -6.241133,0 -11.317828,5.07669 -11.317828,11.31782 0,6.23976 5.076695,11.31646 11.317828,11.31646 6.239756,0 11.316451,-5.0767 11.316451,-11.31646 0,-6.24113 -5.076695,-11.31782 -11.316451,-11.31782 m 0,23.80974 c -6.888812,0 -12.493294,-5.6031 -12.493294,-12.49192 0,-6.88881 5.604482,-12.49329 12.493294,-12.49329 6.887435,0 12.491916,5.60448 12.491916,12.49329 0,6.88882 -5.604481,12.49192 -12.491916,12.49192"
       id="path569" />
    <path
       style="fill:#073330;fill-opacity:1;fill-rule:nonzero;stroke:none;stroke-width:0.352778"
       d="m 76.262205,136.44353 c -0.243914,0 -0.440972,-0.19844 -0.440972,-0.44098 0,-7.37388 -5.999977,-13.37385 -13.373861,-13.37385 -7.375261,0 -13.375238,5.99997 -13.375238,13.37385 0,0.24254 -0.197059,0.44098 -0.439593,0.44098 -0.243914,0 -0.440973,-0.19844 -0.440973,-0.44098 0,-7.86033 6.395474,-14.2558 14.255804,-14.2558 7.860329,0 14.254426,6.39547 14.254426,14.2558 0,0.24254 -0.197058,0.44098 -0.439593,0.44098"
       id="path571" />
    <path
       style="fill:#073330;fill-opacity:1;fill-rule:nonzero;stroke:none;stroke-width:0.352778"
       d="m 64.076213,136.00255 c 0,0.89986 -0.728983,1.63023 -1.628841,1.63023 -0.901235,0 -1.630218,-0.73037 -1.630218,-1.63023 0,-0.89985 0.728983,-1.63021 1.630218,-1.63021 0.899858,0 1.628841,0.73036 1.628841,1.63021"
       id="path573" />
    <path
       style="fill:#073330;fill-opacity:1;fill-rule:nonzero;stroke:none;stroke-width:0.352778"
       d="m 59.490102,136.22304 c -0.121267,0 -0.220486,-0.0992 -0.220486,-0.22049 0,-0.86954 0.344509,-1.6812 0.970139,-2.28478 0.08681,-0.0841 0.226,-0.0827 0.311436,0.005 0.08406,0.0868 0.08268,0.22738 -0.0055,0.31144 -0.538815,0.5209 -0.835092,1.21956 -0.835092,1.96784 0,0.12126 -0.09784,0.22048 -0.220486,0.22048"
       id="path575" />
    <path
       style="fill:#073330;fill-opacity:1;fill-rule:nonzero;stroke:none;stroke-width:0.352778"
       d="m 62.447372,139.17893 c -0.872296,0 -1.68534,-0.34588 -2.290297,-0.97427 -0.08406,-0.0882 -0.08131,-0.22738 0.0069,-0.31144 0.08682,-0.0841 0.225996,-0.0813 0.311436,0.006 0.520897,0.54157 1.220942,0.83922 1.971971,0.83922 0.121267,0 0.220486,0.0992 0.220486,0.22049 0,0.12264 -0.09922,0.22049 -0.220486,0.22049"
       id="path577" />
    <path
       style="fill:#073330;fill-opacity:1;fill-rule:nonzero;stroke:none;stroke-width:0.352778"
       d="m 65.403265,136.22304 c -0.121268,0 -0.220486,-0.0992 -0.220486,-0.22049 0,-1.50895 -1.227833,-2.73678 -2.735407,-2.73678 -0.122644,0 -0.220487,-0.0978 -0.220487,-0.22048 0,-0.12127 0.09784,-0.22049 0.220487,-0.22049 1.751488,0 3.176379,1.42627 3.176379,3.17775 0,0.12127 -0.09922,0.22049 -0.220486,0.22049"
       id="path579" />
    <path
       style="fill:#073330;fill-opacity:1;fill-rule:nonzero;stroke:none;stroke-width:0.352778"
       d="m 81.247946,138.07512 c 0,2.04501 -1.65778,3.70279 -3.702787,3.70279 -2.043631,0 -3.70279,-1.65778 -3.70279,-3.70279 0,-2.045 1.659159,-3.70278 3.70279,-3.70278 2.045007,0 3.702787,1.65778 3.702787,3.70278"
       id="path581" />
    <path
       style="fill:#073330;fill-opacity:1;fill-rule:nonzero;stroke:none;stroke-width:0.352778"
       d="m 62.445996,136.44353 c -0.09371,0 -0.188793,-0.0303 -0.270098,-0.0937 -0.191547,-0.14883 -0.225996,-0.42581 -0.07717,-0.61874 l 10.630186,-13.6605 c 0.14883,-0.19293 0.425817,-0.22738 0.61874,-0.0772 0.191548,0.14883 0.226,0.42581 0.07717,0.61736 l -10.630185,13.66187 c -0.08682,0.11162 -0.216352,0.17088 -0.348644,0.17088"
       id="path583" />
    <path
       style="fill:#073330;fill-opacity:1;fill-rule:nonzero;stroke:none;stroke-width:0.352778"
       d="m 76.980164,138.23498 -5.629288,-19.81757 1.131372,-0.32108 5.629285,19.81756 z m 0,0"
       id="path585" />
    <path
       style="fill:#073330;fill-opacity:1;fill-rule:nonzero;stroke:none;stroke-width:0.352778"
       d="m 74.572732,109.33889 h -9.035796 c -0.0055,0 -0.0097,10e-4 -0.01517,10e-4 -0.0055,0 -0.0097,-10e-4 -0.01517,-10e-4 -0.385851,0 -0.697287,0.31144 -0.697287,0.69729 0,0.26734 0.151582,0.50023 0.373447,0.61736 1.215429,0.63804 2.422593,0.5774 3.587034,0.5774 1.807986,0 1.427646,-0.94671 5.802919,-0.94671 0.261825,0 0.472666,-0.21084 0.472666,-0.47267 0,-0.26045 -0.210841,-0.47267 -0.472666,-0.47267"
       id="path587" />
    <path
       style="fill:#073330;fill-opacity:1;fill-rule:nonzero;stroke:none;stroke-width:0.352778"
       d="m 94.755475,138.66217 c -0.323836,0 -0.587043,-0.26321 -0.587043,-0.58705 v -27.50701 c 0,-0.28801 0.206707,-0.53193 0.490583,-0.58016 l 2.70509,-0.44924 -1.493795,-0.7469 c -0.290767,-0.14607 -0.4079,-0.49884 -0.263204,-0.78961 0.144691,-0.28939 0.498849,-0.40652 0.788236,-0.26183 l 1.777668,0.88883 c 0.417548,0.20809 0.650434,0.65733 0.581533,1.11759 -0.07028,0.46165 -0.424434,0.82269 -0.8847,0.89849 l -2.525945,0.4203 v 27.00954 c 0,0.32384 -0.263204,0.58705 -0.588423,0.58705"
       id="path589" />
    <path
       style="fill:#073330;fill-opacity:1;fill-rule:nonzero;stroke:none;stroke-width:0.352778"
       d="m 77.546535,138.5161 c -0.02067,0 -0.03996,-0.001 -0.06063,-0.004 l -15.099163,-2.07257 c -0.241159,-0.0331 -0.409279,-0.25632 -0.376206,-0.49747 0.03305,-0.24116 0.254938,-0.40928 0.496094,-0.37621 l 15.099163,2.07257 c 0.241159,0.0331 0.409279,0.25632 0.376206,0.4961 -0.0303,0.22186 -0.219107,0.38171 -0.435462,0.38171"
       id="path591" />
    <path
       style="fill:#073330;fill-opacity:1;fill-rule:nonzero;stroke:none;stroke-width:0.352778"
       d="M 84.857029,142.10864 H 81.75093 c -0.242535,0 -0.440973,-0.19706 -0.440973,-0.44097 0,-0.24391 0.198438,-0.44097 0.440973,-0.44097 h 3.106099 c 0.242534,0 0.440972,0.19706 0.440972,0.44097 0,0.24391 -0.198438,0.44097 -0.440972,0.44097"
       id="path593" />
    <path
       style="fill:#073330;fill-opacity:1;fill-rule:nonzero;stroke:none;stroke-width:0.352778"
       d="m 83.303981,142.10864 c -0.07993,0 -0.16123,-0.0221 -0.23289,-0.0675 l -5.758822,-3.59255 c -0.206706,-0.12816 -0.270094,-0.39963 -0.140561,-0.60633 0.129537,-0.20671 0.40101,-0.2701 0.607717,-0.14056 l 5.757442,3.59254 c 0.206707,0.12816 0.270097,0.40101 0.140561,0.60634 -0.08268,0.13504 -0.227376,0.20808 -0.373447,0.20808"
       id="path595" />
    <path
       style="fill:#073330;fill-opacity:1;fill-rule:nonzero;stroke:none;stroke-width:0.352778"
       d="m 76.66597,141.29284 0.0248,0.007 c 0.279742,0.073 0.566374,0.11025 0.855761,0.11025 1.838304,0 3.334854,-1.49517 3.334854,-3.33486 0,-1.83968 -1.49655,-3.33485 -3.334854,-3.33485 H 62.827708 l -0.0028,0.0138 -0.377585,-0.0138 c -0.697286,0 -1.262281,0.565 -1.262281,1.26228 0,0.56224 0.377582,1.06247 0.920528,1.21406 l 0.307304,0.0868 v 0.001 z m 0.880565,0.85301 c -0.217728,0 -0.435459,-0.0179 -0.650434,-0.0524 l -0.0041,0.0248 -0.39412,-0.11024 -14.899349,-4.16856 0.0041,-0.0289 c -0.691777,-0.32384 -1.153418,-1.02664 -1.153418,-1.80799 0,-1.02112 0.770322,-1.86586 1.759754,-1.98299 l 0.0014,-0.011 0.148827,-0.001 c 0.03859,-10e-4 0.07717,-0.003 0.114377,-10e-4 h 15.072951 c 2.243448,0 4.069348,1.82452 4.069348,4.06934 0,2.24482 -1.8259,4.07073 -4.069348,4.07073"
       id="path597" />
    <path
       style="fill:#073330;fill-opacity:1;fill-rule:nonzero;stroke:none;stroke-width:0.352778"
       d="m 75.414713,122.65074 c -1.659159,0 -3.181893,-1.12999 -3.649045,-2.77261 -0.08819,-0.31282 0.09232,-0.63803 0.405141,-0.72622 0.312815,-0.0882 0.636654,0.0923 0.726228,0.40514 0.351399,1.2361 1.562693,2.05465 2.818087,1.90031 0.32246,-0.04 0.614606,0.19017 0.654569,0.51263 0.03858,0.32246 -0.190172,0.61461 -0.512632,0.65457 -0.148826,0.0179 -0.296277,0.0262 -0.442348,0.0262"
       id="path599" />
    <path
       style="fill:#073330;fill-opacity:1;fill-rule:nonzero;stroke:none;stroke-width:0.352778"
       d="m 125.10676,141.72003 c -0.20394,0 -0.38721,-0.14193 -0.43131,-0.35001 -0.15847,-0.75655 -0.23841,-1.53514 -0.23841,-2.31511 0,-6.17637 5.02571,-11.20207 11.20207,-11.20207 0.68626,0 1.37252,0.062 2.04089,0.18603 0.23975,0.0427 0.39825,0.27285 0.35416,0.51263 -0.0441,0.23978 -0.27288,0.39688 -0.51404,0.35278 -0.61598,-0.113 -1.24848,-0.17088 -1.88101,-0.17088 -5.69129,0 -10.3215,4.63021 -10.3215,10.32151 0,0.71934 0.0744,1.43729 0.22049,2.1332 0.051,0.2384 -0.10199,0.47267 -0.3404,0.52228 -0.0303,0.007 -0.0606,0.01 -0.0909,0.01"
       id="path601" />
    <path
       style="fill:#073330;fill-opacity:1;fill-rule:nonzero;stroke:#073330;stroke-width:0.635;stroke-miterlimit:4;stroke-dasharray:none;stroke-opacity:1"
       d="m 135.63911,130.79081 c -4.5558,0 -8.2641,3.7083 -8.2641,8.26548 0,4.55579 3.7083,8.26409 8.2641,8.26409 4.55719,0 8.26411,-3.7083 8.26411,-8.26409 0,-4.55718 -3.70692,-8.26548 -8.26411,-8.26548 m 0,17.70366 c -5.20484,0 -9.43955,-4.23333 -9.43955,-9.43818 0,-5.20623 4.23471,-9.44094 9.43955,-9.44094 5.20485,0 9.43956,4.23471 9.43956,9.44094 0,5.20485 -4.23471,9.43818 -9.43956,9.43818"
       id="path603" />
    <path
       style="fill:#073330;fill-opacity:1;fill-rule:nonzero;stroke:none;stroke-width:0.352778"
       d="m 133.62306,139.2754 c -0.12266,0 -0.22049,-0.0979 -0.22049,-0.22049 0,-1.23335 1.0032,-2.23656 2.23654,-2.23656 0.12266,0 0.22049,0.0992 0.22049,0.22049 0,0.12127 -0.0978,0.22048 -0.22049,0.22048 -0.99081,0 -1.79556,0.80616 -1.79556,1.79559 0,0.12264 -0.0992,0.22049 -0.22049,0.22049"
       id="path605" />
    <path
       style="fill:#073330;fill-opacity:1;fill-rule:nonzero;stroke:none;stroke-width:0.352778"
       d="m 135.63911,141.29284 c -0.12125,0 -0.22048,-0.0992 -0.22048,-0.22048 0,-0.12127 0.0992,-0.22049 0.22048,-0.22049 0.99082,0 1.79698,-0.80615 1.79698,-1.79696 0,-0.12127 0.0978,-0.21911 0.22049,-0.21911 0.12125,0 0.22049,0.0978 0.22049,0.21911 0,1.23472 -1.00461,2.23793 -2.23796,2.23793"
       id="path607" />
    <path
       style="fill:#073330;fill-opacity:1;fill-rule:nonzero;stroke:none;stroke-width:0.352778"
       d="m 140.65378,143.42329 c -0.0496,0 -0.0992,-0.0165 -0.14055,-0.051 -0.0937,-0.0772 -0.10749,-0.21635 -0.0289,-0.31006 0.37208,-0.45061 0.68076,-0.94947 0.915,-1.48276 0.0482,-0.11163 0.17914,-0.16261 0.29076,-0.113 0.11025,0.0482 0.16126,0.17914 0.11303,0.29076 -0.25082,0.57051 -0.58018,1.10519 -0.9798,1.58613 -0.0441,0.0524 -0.10612,0.0799 -0.16951,0.0799"
       id="path609" />
    <path
       style="fill:#073330;fill-opacity:1;fill-rule:nonzero;stroke:none;stroke-width:0.352778"
       d="m 142.14621,139.2754 c -0.12125,0 -0.22049,-0.0979 -0.22049,-0.22049 0,-1.25953 -0.3707,-2.47496 -1.0735,-3.514 -0.0675,-0.1006 -0.0413,-0.2384 0.0593,-0.30592 0.10061,-0.0689 0.2384,-0.0413 0.30593,0.0593 0.7524,1.11208 1.14927,2.41295 1.14927,3.76067 0,0.12264 -0.0992,0.22049 -0.22048,0.22049"
       id="path611" />
    <path
       style="fill:#073330;fill-opacity:1;fill-rule:nonzero;stroke:none;stroke-width:0.352778"
       d="m 129.13202,139.2754 c -0.12128,0 -0.22048,-0.0979 -0.22048,-0.22049 0,-3.7083 3.0179,-6.7262 6.72757,-6.7262 0.12266,0 0.22049,0.0978 0.22049,0.22048 0,0.12127 -0.0978,0.22049 -0.22049,0.22049 -3.46576,0 -6.2866,2.81946 -6.2866,6.28523 0,0.12264 -0.0979,0.22049 -0.22049,0.22049"
       id="path613" />
    <path
       style="fill:#073330;fill-opacity:1;fill-rule:nonzero;stroke:none;stroke-width:0.352778"
       d="m 135.63911,145.78249 c -1.46484,0 -2.85806,-0.46302 -4.02801,-1.33807 -0.0978,-0.073 -0.11712,-0.21222 -0.0441,-0.30868 0.0731,-0.0978 0.21085,-0.11714 0.3073,-0.0441 1.09418,0.81718 2.39505,1.24988 3.76481,1.24988 0.12266,0 0.22049,0.0992 0.22049,0.22049 0,0.12264 -0.0978,0.22048 -0.22049,0.22048"
       id="path615" />
    <path
       style="fill:#073330;fill-opacity:1;fill-rule:nonzero;stroke:none;stroke-width:0.352778"
       d="m 95.63742,138.07512 h -1.763889 v -21.85981 h 1.763889 z m 0,0"
       id="path617" />
    <path
       style="fill:#073330;fill-opacity:1;fill-rule:nonzero;stroke:#073330;stroke-width:0.635;stroke-miterlimit:4;stroke-dasharray:none;stroke-opacity:1"
       d="m 73.076181,122.92911 c -0.296277,0 -0.549836,-0.22324 -0.584288,-0.52366 -0.03583,-0.32246 0.197058,-0.61323 0.519522,-0.64905 l 21.679294,-2.39917 c 0.32246,-0.0372 0.613226,0.19706 0.649055,0.51952 0.03583,0.32246 -0.197059,0.61323 -0.519519,0.64768 l -21.679297,2.40054 c -0.02205,0.003 -0.0441,0.004 -0.06477,0.004"
       id="path619" />
    <path
       style="fill:#073330;fill-opacity:1;fill-rule:nonzero;stroke:#073330;stroke-width:0.635;stroke-miterlimit:4;stroke-dasharray:none;stroke-opacity:1"
       d="m 77.545159,138.5161 c -0.191548,0 -0.367937,-0.12678 -0.423058,-0.32108 l -7.810722,-27.49738 c -0.06752,-0.23427 0.06891,-0.47818 0.30317,-0.54433 0.234266,-0.0675 0.47818,0.0689 0.544326,0.30317 l 7.810718,27.49876 c 0.06615,0.23288 -0.0689,0.47818 -0.303167,0.54432 -0.03996,0.011 -0.0813,0.0165 -0.121267,0.0165"
       id="path621" />
    <path
       style="fill:#073330;fill-opacity:1;fill-rule:nonzero;stroke:none;stroke-width:0.352778"
       d="m 135.63911,139.64333 c -0.2329,0 -0.45339,-0.14056 -0.54571,-0.36931 l -6.3996,-16.03348 c -0.11987,-0.30179 0.0261,-0.64354 0.32798,-0.76343 0.3018,-0.12127 0.64354,0.0262 0.76345,0.3266 l 6.3996,16.03347 c 0.12125,0.30179 -0.0261,0.64354 -0.32798,0.76481 -0.0703,0.0276 -0.14471,0.0413 -0.21774,0.0413"
       id="path623" />
    <path
       style="fill:#6eae00;fill-opacity:1;fill-rule:nonzero;stroke:none;stroke-width:0.352778"
       d="m 129.47238,121.94243 -33.83496,-5.72712 v 20.82353 h 27.12806 z m 0,0"
       id="path625" />
    <path
       style="fill:#073330;fill-opacity:1;fill-rule:nonzero;stroke:none;stroke-width:0.352778"
       d="M 118.72095,139.17755 H 77.545159 c -0.607716,0 -1.101055,-0.49333 -1.101055,-1.10243 0,-0.60909 0.493339,-1.10243 1.101055,-1.10243 h 41.175791 c 2.52317,0 4.80247,-1.59025 5.67337,-3.9591 l 3.81166,-10.37111 c 0.20944,-0.57189 0.84198,-0.86403 1.41386,-0.65457 0.57189,0.21084 0.86403,0.84335 0.65458,1.41524 l -3.81166,10.37112 c -1.18787,3.2315 -4.29947,5.40328 -7.74181,5.40328"
       id="path627" />
    <path
       style="fill:#073330;fill-opacity:1;fill-rule:nonzero;stroke:none;stroke-width:0.352778"
       d="m 126.69426,127.94517 -30.919035,-1.00322 v -0.91088 h 30.919035 z m 0,0"
       id="path629" />
    <path
       style="fill:#ded4d1;fill-opacity:1;fill-rule:nonzero;stroke:none;stroke-width:0.352778"
       d="M 118.72095,137.19318 H 95.857906 c -0.122643,0 -0.220486,-0.0978 -0.220486,-0.22049 V 122.0637 c 0,-0.12127 0.09784,-0.22049 0.220486,-0.22049 0.121267,0 0.220486,0.0992 0.220486,0.22049 v 14.68851 h 22.642558 c 2.43085,0 4.62746,-1.53238 5.46668,-3.81441 l 3.81025,-10.37112 c 0.0427,-0.11437 0.16951,-0.17363 0.28388,-0.13091 0.1144,0.0413 0.17226,0.16812 0.13091,0.2825 l -3.81166,10.37111 c -0.90261,2.45567 -3.26457,4.1038 -5.88006,4.1038"
       id="path631" />
    <path
       style="fill:#6eae00;fill-opacity:1;fill-rule:nonzero;stroke:none;stroke-width:0.352778"
       d="m 129.45033,126.34664 h 0.0441 l 1.14103,-3.22461 c 0.21085,-0.57188 -0.0827,-1.2044 -0.65321,-1.41387 -0.0496,-0.0179 -34.015474,-5.77398 -34.015474,-5.77398 h -1.351855 c -0.54846,0 -0.992187,0.44511 -0.992187,0.99357 v 9.41889 z m 0,0"
       id="path633" />
    <path
       style="fill:#073330;fill-opacity:1;fill-rule:nonzero;stroke:none;stroke-width:0.352778"
       d="m 94.755475,125.67278 c 0,0.14194 -0.115753,0.25769 -0.25769,0.25769 -0.14194,0 -0.257693,-0.11575 -0.257693,-0.25769 0,-0.14332 0.115753,-0.25769 0.257693,-0.25769 0.141937,0 0.25769,0.11437 0.25769,0.25769"
       id="path635" />
    <path
       style="fill:#073330;fill-opacity:1;fill-rule:nonzero;stroke:none;stroke-width:0.352778"
       d="m 103.37648,125.67278 c 0,0.14194 -0.11575,0.25769 -0.25769,0.25769 -0.14194,0 -0.25769,-0.11575 -0.25769,-0.25769 0,-0.14332 0.11575,-0.25769 0.25769,-0.25769 0.14194,0 0.25769,0.11437 0.25769,0.25769"
       id="path637" />
    <path
       style="fill:#073330;fill-opacity:1;fill-rule:nonzero;stroke:none;stroke-width:0.352778"
       d="m 111.9975,125.67278 c 0,0.14194 -0.11578,0.25769 -0.2577,0.25769 -0.14193,0 -0.25771,-0.11575 -0.25771,-0.25769 0,-0.14332 0.11578,-0.25769 0.25771,-0.25769 0.14192,0 0.2577,0.11437 0.2577,0.25769"
       id="path639" />
    <path
       style="fill:#073330;fill-opacity:1;fill-rule:nonzero;stroke:none;stroke-width:0.352778"
       d="m 120.61851,125.67278 c 0,0.14194 -0.11575,0.25769 -0.25771,0.25769 -0.14192,0 -0.2577,-0.11575 -0.2577,-0.25769 0,-0.14332 0.11578,-0.25769 0.2577,-0.25769 0.14196,0 0.25771,0.11437 0.25771,0.25769"
       id="path641" />
    <path
       style="fill:#073330;fill-opacity:1;fill-rule:nonzero;stroke:none;stroke-width:0.352778"
       d="m 129.23951,125.67278 c 0,0.14194 -0.11574,0.25769 -0.2577,0.25769 -0.14192,0 -0.2577,-0.11575 -0.2577,-0.25769 0,-0.14332 0.11578,-0.25769 0.2577,-0.25769 0.14196,0 0.2577,0.11437 0.2577,0.25769"
       id="path643" />
  </g>
</svg>
